<?xml version="1.0" encoding="utf-8"?>
<!-- Generator: Adobe Illustrator 22.0.0, SVG Export Plug-In . SVG Version: 6.00 Build 0)  -->
<svg version="1.1" xmlns="http://www.w3.org/2000/svg" xmlns:xlink="http://www.w3.org/1999/xlink" x="0px" y="0px"
	 viewBox="0 0 750 500" style="enable-background:new 0 0 750 500;" xml:space="preserve">
<style type="text/css">
	.st0{fill:url(#SVGID_1_);}
	.st1{clip-path:url(#SVGID_3_);}
	.st2{fill:#6826E3;}
	.st3{clip-path:url(#SVGID_5_);}
	.st4{clip-path:url(#SVGID_7_);}
	.st5{fill:#5822BD;}
	.st6{fill:#5920C2;}
	.st7{fill:#5320B3;}
	.st8{display:none;}
	.st9{display:inline;}
	.st10{fill:url(#SVGID_10_);}
	.st11{fill:#FFFEFC;}
	.st12{clip-path:url(#SVGID_12_);}
	.st13{fill:#6325DB;}
	.st14{fill:url(#SVGID_15_);}
	.st15{font-family:'MyriadPro-Regular';}
	.st16{font-size:6px;}
	.st17{opacity:0.8;}
	.st18{fill:#B5B4B3;}
	.st19{fill:#A1A09F;}
	.st20{font-size:4.0948px;}
	.st21{fill:#666565;}
	.st22{font-size:5px;}
	.st23{fill:url(#SVGID_16_);}
	.st24{font-size:21.5784px;}
	.st25{fill:none;}
	.st26{font-size:8px;}
	.st27{fill:url(#SVGID_17_);}
	.st28{fill:url(#SVGID_18_);}
	.st29{clip-path:url(#SVGID_20_);}
	.st30{clip-path:url(#SVGID_22_);}
	.st31{fill:#4D1DA8;}
	.st32{font-size:8.7921px;}
	.st33{font-size:5.3286px;}
	.st34{font-size:7.4601px;}
	.st35{font-size:10px;}
	.st36{letter-spacing:1;}
	.st37{clip-path:url(#SVGID_24_);}
	.st38{opacity:0.8;fill:#B5B4B3;}
</style>
<g id="BACKGROUND">
	<linearGradient id="SVGID_1_" gradientUnits="userSpaceOnUse" x1="62.2786" y1="647.6522" x2="979.5579" y2="-518.7474">
		<stop  offset="0.1978" style="stop-color:#4D1DA8"/>
		<stop  offset="0.3705" style="stop-color:#5721C0"/>
		<stop  offset="0.5593" style="stop-color:#6024D4"/>
		<stop  offset="0.6877" style="stop-color:#6325DB"/>
	</linearGradient>
	<rect class="st0" width="750" height="500"/>
	<g>
		<defs>
			<path id="SVGID_2_" d="M496.6,125.2c49,0,88.7,39.7,88.7,88.7c0,49-39.7,88.7-88.7,88.7V125.2z"/>
		</defs>
		<clipPath id="SVGID_3_">
			<use xlink:href="#SVGID_2_"  style="overflow:visible;"/>
		</clipPath>
		<g class="st1">
			<g>
				<path class="st2" d="M664.2,203.5c-0.1,0-0.3,0-0.4-0.1l-243-243.5c-0.2-0.2-0.2-0.5,0-0.7c0.2-0.2,0.5-0.2,0.7,0l243,243.5
					c0.2,0.2,0.2,0.5,0,0.7C664.5,203.4,664.3,203.5,664.2,203.5z"/>
				<path class="st2" d="M662.6,214.5c-0.1,0-0.3,0-0.4-0.1l-243-243.5c-0.2-0.2-0.2-0.5,0-0.7c0.2-0.2,0.5-0.2,0.7,0l243,243.5
					c0.2,0.2,0.2,0.5,0,0.7C662.9,214.5,662.8,214.5,662.6,214.5z"/>
				<path class="st2" d="M661.1,225.6c-0.1,0-0.3,0-0.4-0.1L417.7-18c-0.2-0.2-0.2-0.5,0-0.7c0.2-0.2,0.5-0.2,0.7,0l243,243.5
					c0.2,0.2,0.2,0.5,0,0.7C661.3,225.6,661.2,225.6,661.1,225.6z"/>
				<path class="st2" d="M659.5,236.7c-0.1,0-0.3,0-0.4-0.1L416.1-7c-0.2-0.2-0.2-0.5,0-0.7c0.2-0.2,0.5-0.2,0.7,0l243,243.5
					c0.2,0.2,0.2,0.5,0,0.7C659.7,236.6,659.6,236.7,659.5,236.7z"/>
				<path class="st2" d="M657.9,247.7c-0.1,0-0.3,0-0.4-0.1L414.6,4.1c-0.2-0.2-0.2-0.5,0-0.7c0.2-0.2,0.5-0.2,0.7,0l243,243.5
					c0.2,0.2,0.2,0.5,0,0.7C658.2,247.7,658,247.7,657.9,247.7z"/>
				<path class="st2" d="M656.3,258.8c-0.1,0-0.3,0-0.4-0.1L413,15.1c-0.2-0.2-0.2-0.5,0-0.7c0.2-0.2,0.5-0.2,0.7,0l243,243.5
					c0.2,0.2,0.2,0.5,0,0.7C656.6,258.8,656.5,258.8,656.3,258.8z"/>
				<path class="st2" d="M654.8,269.9c-0.1,0-0.3,0-0.4-0.1l-243-243.5c-0.2-0.2-0.2-0.5,0-0.7c0.2-0.2,0.5-0.2,0.7,0l243,243.5
					c0.2,0.2,0.2,0.5,0,0.7C655,269.8,654.9,269.9,654.8,269.9z"/>
				<path class="st2" d="M653.2,280.9c-0.1,0-0.3,0-0.4-0.1l-243-243.5c-0.2-0.2-0.2-0.5,0-0.7c0.2-0.2,0.5-0.2,0.7,0l243,243.5
					c0.2,0.2,0.2,0.5,0,0.7C653.5,280.9,653.3,280.9,653.2,280.9z"/>
				<path class="st2" d="M651.6,292c-0.1,0-0.3,0-0.4-0.1l-243-243.5c-0.2-0.2-0.2-0.5,0-0.7c0.2-0.2,0.5-0.2,0.7,0l243,243.5
					c0.2,0.2,0.2,0.5,0,0.7C651.9,291.9,651.8,292,651.6,292z"/>
				<path class="st2" d="M650.1,303.1c-0.1,0-0.3,0-0.4-0.1l-243-243.5c-0.2-0.2-0.2-0.5,0-0.7c0.2-0.2,0.5-0.2,0.7,0l243,243.5
					c0.2,0.2,0.2,0.5,0,0.7C650.3,303,650.2,303.1,650.1,303.1z"/>
				<path class="st2" d="M648.5,314.1c-0.1,0-0.3,0-0.4-0.1l-243-243.5c-0.2-0.2-0.2-0.5,0-0.7c0.2-0.2,0.5-0.2,0.7,0l243,243.5
					c0.2,0.2,0.2,0.5,0,0.7C648.7,314.1,648.6,314.1,648.5,314.1z"/>
				<path class="st2" d="M646.9,325.2c-0.1,0-0.3,0-0.4-0.1l-243-243.5c-0.2-0.2-0.2-0.5,0-0.7c0.2-0.2,0.5-0.2,0.7,0l243,243.5
					c0.2,0.2,0.2,0.5,0,0.7C647.2,325.1,647,325.2,646.9,325.2z"/>
				<path class="st2" d="M645.3,336.3c-0.1,0-0.3,0-0.4-0.1L402,92.6c-0.2-0.2-0.2-0.5,0-0.7c0.2-0.2,0.5-0.2,0.7,0l243,243.5
					c0.2,0.2,0.2,0.5,0,0.7C645.6,336.2,645.5,336.3,645.3,336.3z"/>
				<path class="st2" d="M643.8,347.3c-0.1,0-0.3,0-0.4-0.1l-243-243.5c-0.2-0.2-0.2-0.5,0-0.7c0.2-0.2,0.5-0.2,0.7,0l243,243.5
					c0.2,0.2,0.2,0.5,0,0.7C644,347.3,643.9,347.3,643.8,347.3z"/>
				<path class="st2" d="M642.2,358.4c-0.1,0-0.3,0-0.4-0.1l-243-243.5c-0.2-0.2-0.2-0.5,0-0.7c0.2-0.2,0.5-0.2,0.7,0l243,243.5
					c0.2,0.2,0.2,0.5,0,0.7C642.5,358.3,642.3,358.4,642.2,358.4z"/>
				<path class="st2" d="M640.6,369.5c-0.1,0-0.3,0-0.4-0.1l-243-243.5c-0.2-0.2-0.2-0.5,0-0.7c0.2-0.2,0.5-0.2,0.7,0l243,243.5
					c0.2,0.2,0.2,0.5,0,0.7C640.9,369.4,640.8,369.5,640.6,369.5z"/>
				<path class="st2" d="M639.1,380.5c-0.1,0-0.3,0-0.4-0.1l-243-243.5c-0.2-0.2-0.2-0.5,0-0.7c0.2-0.2,0.5-0.2,0.7,0l243,243.5
					c0.2,0.2,0.2,0.5,0,0.7C639.3,380.5,639.2,380.5,639.1,380.5z"/>
				<path class="st2" d="M637.5,391.6c-0.1,0-0.3,0-0.4-0.1l-243-243.5c-0.2-0.2-0.2-0.5,0-0.7c0.2-0.2,0.5-0.2,0.7,0l243,243.5
					c0.2,0.2,0.2,0.5,0,0.7C637.7,391.5,637.6,391.6,637.5,391.6z"/>
				<path class="st2" d="M635.9,402.6c-0.1,0-0.3,0-0.4-0.1L392.6,159c-0.2-0.2-0.2-0.5,0-0.7c0.2-0.2,0.5-0.2,0.7,0l243,243.5
					c0.2,0.2,0.2,0.5,0,0.7C636.2,402.6,636,402.6,635.9,402.6z"/>
				<path class="st2" d="M634.3,413.7c-0.1,0-0.3,0-0.4-0.1L391,170.1c-0.2-0.2-0.2-0.5,0-0.7c0.2-0.2,0.5-0.2,0.7,0l243,243.5
					c0.2,0.2,0.2,0.5,0,0.7C634.6,413.7,634.5,413.7,634.3,413.7z"/>
				<path class="st2" d="M632.8,424.8c-0.1,0-0.3,0-0.4-0.1l-243-243.5c-0.2-0.2-0.2-0.5,0-0.7c0.2-0.2,0.5-0.2,0.7,0l243,243.5
					c0.2,0.2,0.2,0.5,0,0.7C633,424.7,632.9,424.8,632.8,424.8z"/>
				<path class="st2" d="M631.2,435.8c-0.1,0-0.3,0-0.4-0.1l-243-243.5c-0.2-0.2-0.2-0.5,0-0.7c0.2-0.2,0.5-0.2,0.7,0l243,243.5
					c0.2,0.2,0.2,0.5,0,0.7C631.5,435.8,631.3,435.8,631.2,435.8z"/>
				<path class="st2" d="M629.6,446.9c-0.1,0-0.3,0-0.4-0.1l-243-243.5c-0.2-0.2-0.2-0.5,0-0.7c0.2-0.2,0.5-0.2,0.7,0l243,243.5
					c0.2,0.2,0.2,0.5,0,0.7C629.9,446.9,629.8,446.9,629.6,446.9z"/>
				<path class="st2" d="M628.1,458c-0.1,0-0.3,0-0.4-0.1l-243-243.5c-0.2-0.2-0.2-0.5,0-0.7c0.2-0.2,0.5-0.2,0.7,0l243,243.5
					c0.2,0.2,0.2,0.5,0,0.7C628.3,457.9,628.2,458,628.1,458z"/>
				<path class="st2" d="M626.5,469c-0.1,0-0.3,0-0.4-0.1l-243-243.5c-0.2-0.2-0.2-0.5,0-0.7c0.2-0.2,0.5-0.2,0.7,0l243,243.5
					c0.2,0.2,0.2,0.5,0,0.7C626.7,469,626.6,469,626.5,469z"/>
				<path class="st2" d="M624.9,480.1c-0.1,0-0.3,0-0.4-0.1l-243-243.5c-0.2-0.2-0.2-0.5,0-0.7c0.2-0.2,0.5-0.2,0.7,0l243,243.5
					c0.2,0.2,0.2,0.5,0,0.7C625.2,480.1,625,480.1,624.9,480.1z"/>
			</g>
		</g>
	</g>
	<g>
		<defs>
			<path id="SVGID_4_" d="M268.4,401.4c-49,0-88.7-39.7-88.7-88.7c0-49,39.7-88.7,88.7-88.7V401.4z"/>
		</defs>
		<clipPath id="SVGID_5_">
			<use xlink:href="#SVGID_4_"  style="overflow:visible;"/>
		</clipPath>
		<g class="st3">
			<g>
				<path class="st2" d="M343.8,567.7c-0.1,0-0.3,0-0.4-0.1L100.4,324c-0.2-0.2-0.2-0.5,0-0.7c0.2-0.2,0.5-0.2,0.7,0l243,243.5
					c0.2,0.2,0.2,0.5,0,0.7C344,567.6,343.9,567.7,343.8,567.7z"/>
				<path class="st2" d="M345.3,556.6c-0.1,0-0.3,0-0.4-0.1L102,313c-0.2-0.2-0.2-0.5,0-0.7c0.2-0.2,0.5-0.2,0.7,0l243,243.5
					c0.2,0.2,0.2,0.5,0,0.7C345.6,556.6,345.5,556.6,345.3,556.6z"/>
				<path class="st2" d="M346.9,545.5c-0.1,0-0.3,0-0.4-0.1l-243-243.5c-0.2-0.2-0.2-0.5,0-0.7c0.2-0.2,0.5-0.2,0.7,0l243,243.5
					c0.2,0.2,0.2,0.5,0,0.7C347.2,545.5,347,545.5,346.9,545.5z"/>
				<path class="st2" d="M348.5,534.5c-0.1,0-0.3,0-0.4-0.1l-243-243.5c-0.2-0.2-0.2-0.5,0-0.7c0.2-0.2,0.5-0.2,0.7,0l243,243.5
					c0.2,0.2,0.2,0.5,0,0.7C348.7,534.4,348.6,534.5,348.5,534.5z"/>
				<path class="st2" d="M350.1,523.4c-0.1,0-0.3,0-0.4-0.1l-243-243.5c-0.2-0.2-0.2-0.5,0-0.7c0.2-0.2,0.5-0.2,0.7,0l243,243.5
					c0.2,0.2,0.2,0.5,0,0.7C350.3,523.4,350.2,523.4,350.1,523.4z"/>
				<path class="st2" d="M351.6,512.3c-0.1,0-0.3,0-0.4-0.1l-243-243.5c-0.2-0.2-0.2-0.5,0-0.7c0.2-0.2,0.5-0.2,0.7,0l243,243.5
					c0.2,0.2,0.2,0.5,0,0.7C351.9,512.3,351.8,512.3,351.6,512.3z"/>
				<path class="st2" d="M353.2,501.3c-0.1,0-0.3,0-0.4-0.1l-243-243.5c-0.2-0.2-0.2-0.5,0-0.7c0.2-0.2,0.5-0.2,0.7,0l243,243.5
					c0.2,0.2,0.2,0.5,0,0.7C353.5,501.2,353.3,501.3,353.2,501.3z"/>
				<path class="st2" d="M354.8,490.2c-0.1,0-0.3,0-0.4-0.1l-243-243.5c-0.2-0.2-0.2-0.5,0-0.7c0.2-0.2,0.5-0.2,0.7,0l243,243.5
					c0.2,0.2,0.2,0.5,0,0.7C355,490.2,354.9,490.2,354.8,490.2z"/>
				<path class="st2" d="M356.4,479.2c-0.1,0-0.3,0-0.4-0.1L113,235.5c-0.2-0.2-0.2-0.5,0-0.7c0.2-0.2,0.5-0.2,0.7,0l243,243.5
					c0.2,0.2,0.2,0.5,0,0.7C356.6,479.1,356.5,479.2,356.4,479.2z"/>
				<path class="st2" d="M357.9,468.1c-0.1,0-0.3,0-0.4-0.1l-243-243.5c-0.2-0.2-0.2-0.5,0-0.7c0.2-0.2,0.5-0.2,0.7,0l243,243.5
					c0.2,0.2,0.2,0.5,0,0.7C358.2,468,358.1,468.1,357.9,468.1z"/>
				<path class="st2" d="M359.5,457c-0.1,0-0.3,0-0.4-0.1l-243-243.5c-0.2-0.2-0.2-0.5,0-0.7c0.2-0.2,0.5-0.2,0.7,0l243,243.5
					c0.2,0.2,0.2,0.5,0,0.7C359.8,457,359.6,457,359.5,457z"/>
				<path class="st2" d="M361.1,446c-0.1,0-0.3,0-0.4-0.1l-243-243.5c-0.2-0.2-0.2-0.5,0-0.7c0.2-0.2,0.5-0.2,0.7,0l243,243.5
					c0.2,0.2,0.2,0.5,0,0.7C361.3,445.9,361.2,446,361.1,446z"/>
				<path class="st2" d="M362.6,434.9c-0.1,0-0.3,0-0.4-0.1l-243-243.5c-0.2-0.2-0.2-0.5,0-0.7c0.2-0.2,0.5-0.2,0.7,0L363,434
					c0.2,0.2,0.2,0.5,0,0.7C362.9,434.8,362.8,434.9,362.6,434.9z"/>
				<path class="st2" d="M364.2,423.8c-0.1,0-0.3,0-0.4-0.1l-243-243.5c-0.2-0.2-0.2-0.5,0-0.7c0.2-0.2,0.5-0.2,0.7,0l243,243.5
					c0.2,0.2,0.2,0.5,0,0.7C364.5,423.8,364.3,423.8,364.2,423.8z"/>
				<path class="st2" d="M365.8,412.8c-0.1,0-0.3,0-0.4-0.1l-243-243.5c-0.2-0.2-0.2-0.5,0-0.7c0.2-0.2,0.5-0.2,0.7,0l243,243.5
					c0.2,0.2,0.2,0.5,0,0.7C366,412.7,365.9,412.8,365.8,412.8z"/>
				<path class="st2" d="M367.4,401.7c-0.1,0-0.3,0-0.4-0.1L124,158c-0.2-0.2-0.2-0.5,0-0.7c0.2-0.2,0.5-0.2,0.7,0l243,243.5
					c0.2,0.2,0.2,0.5,0,0.7C367.6,401.6,367.5,401.7,367.4,401.7z"/>
				<path class="st2" d="M368.9,390.6c-0.1,0-0.3,0-0.4-0.1L125.6,147c-0.2-0.2-0.2-0.5,0-0.7c0.2-0.2,0.5-0.2,0.7,0l243,243.5
					c0.2,0.2,0.2,0.5,0,0.7C369.2,390.6,369.1,390.6,368.9,390.6z"/>
				<path class="st2" d="M370.5,379.6c-0.1,0-0.3,0-0.4-0.1l-243-243.5c-0.2-0.2-0.2-0.5,0-0.7c0.2-0.2,0.5-0.2,0.7,0l243,243.5
					c0.2,0.2,0.2,0.5,0,0.7C370.8,379.5,370.6,379.6,370.5,379.6z"/>
				<path class="st2" d="M372.1,368.5c-0.1,0-0.3,0-0.4-0.1l-243-243.5c-0.2-0.2-0.2-0.5,0-0.7c0.2-0.2,0.5-0.2,0.7,0l243,243.5
					c0.2,0.2,0.2,0.5,0,0.7C372.3,368.4,372.2,368.5,372.1,368.5z"/>
				<path class="st2" d="M373.6,357.4c-0.1,0-0.3,0-0.4-0.1l-243-243.5c-0.2-0.2-0.2-0.5,0-0.7c0.2-0.2,0.5-0.2,0.7,0l243,243.5
					c0.2,0.2,0.2,0.5,0,0.7C373.9,357.4,373.8,357.4,373.6,357.4z"/>
				<path class="st2" d="M375.2,346.4c-0.1,0-0.3,0-0.4-0.1l-243-243.5c-0.2-0.2-0.2-0.5,0-0.7c0.2-0.2,0.5-0.2,0.7,0l243,243.5
					c0.2,0.2,0.2,0.5,0,0.7C375.5,346.3,375.3,346.4,375.2,346.4z"/>
				<path class="st2" d="M376.8,335.3c-0.1,0-0.3,0-0.4-0.1l-243-243.5c-0.2-0.2-0.2-0.5,0-0.7c0.2-0.2,0.5-0.2,0.7,0l243,243.5
					c0.2,0.2,0.2,0.5,0,0.7C377,335.3,376.9,335.3,376.8,335.3z"/>
				<path class="st2" d="M378.4,324.2c-0.1,0-0.3,0-0.4-0.1L135,80.6c-0.2-0.2-0.2-0.5,0-0.7c0.2-0.2,0.5-0.2,0.7,0l243,243.5
					c0.2,0.2,0.2,0.5,0,0.7C378.6,324.2,378.5,324.2,378.4,324.2z"/>
				<path class="st2" d="M379.9,313.2c-0.1,0-0.3,0-0.4-0.1l-243-243.5c-0.2-0.2-0.2-0.5,0-0.7c0.2-0.2,0.5-0.2,0.7,0l243,243.5
					c0.2,0.2,0.2,0.5,0,0.7C380.2,313.1,380.1,313.2,379.9,313.2z"/>
				<path class="st2" d="M381.5,302.1c-0.1,0-0.3,0-0.4-0.1l-243-243.5c-0.2-0.2-0.2-0.5,0-0.7c0.2-0.2,0.5-0.2,0.7,0l243,243.5
					c0.2,0.2,0.2,0.5,0,0.7C381.8,302.1,381.6,302.1,381.5,302.1z"/>
				<path class="st2" d="M383.1,291c-0.1,0-0.3,0-0.4-0.1l-243-243.5c-0.2-0.2-0.2-0.5,0-0.7c0.2-0.2,0.5-0.2,0.7,0l243,243.5
					c0.2,0.2,0.2,0.5,0,0.7C383.3,291,383.2,291,383.1,291z"/>
			</g>
		</g>
	</g>
	<g>
		<defs>
			<rect id="SVGID_6_" width="750" height="500"/>
		</defs>
		<clipPath id="SVGID_7_">
			<use xlink:href="#SVGID_6_"  style="overflow:visible;"/>
		</clipPath>
		<g class="st4">
			<g>
				<line class="st5" x1="-51.5" y1="-10.1" x2="146.4" y2="187.7"/>
				<path class="st6" d="M146.4,215.2c-7,0-14.1-2.7-19.4-8L-71,9.3c-10.7-10.7-10.7-28.1,0-38.9c10.7-10.7,28.1-10.7,38.9,0
					l197.9,197.8c10.7,10.7,10.7,28.1,0,38.9C160.5,212.5,153.5,215.2,146.4,215.2z"/>
			</g>
			<g>
				<line class="st5" x1="-76.3" y1="277.3" x2="69" y2="422.6"/>
				<path class="st7" d="M69,450.1c-7,0-14.1-2.7-19.4-8L-95.8,296.8c-10.7-10.7-10.7-28.1,0-38.9c10.7-10.7,28.1-10.7,38.9,0
					L88.5,403.2c10.7,10.7,10.7,28.1,0,38.9C83.1,447.4,76.1,450.1,69,450.1z"/>
			</g>
			<g>
				<line class="st5" x1="77.7" y1="242.8" x2="100.8" y2="265.9"/>
				<path class="st6" d="M100.8,293.4c-7,0-14.1-2.7-19.4-8l-23.1-23.1c-10.7-10.7-10.7-28.1,0-38.9c10.7-10.7,28.1-10.7,38.9,0
					l23.1,23.1c10.7,10.7,10.7,28.1,0,38.9C114.9,290.7,107.9,293.4,100.8,293.4z"/>
			</g>
			<g>
				<line class="st5" x1="-175.3" y1="-10.1" x2="29.1" y2="194.1"/>
				<path class="st6" d="M29.1,221.6c-7,0-14.1-2.7-19.4-8L-194.7,9.3c-10.7-10.7-10.7-28.1,0-38.9c10.7-10.7,28.1-10.7,38.9,0
					L48.5,174.7c10.7,10.7,10.7,28.1,0,38.9C43.1,218.9,36.1,221.6,29.1,221.6z"/>
			</g>
			<g>
				<line class="st5" x1="241.6" y1="194.1" x2="254.4" y2="206.9"/>
				<path class="st6" d="M254.4,210.4c-0.9,0-1.8-0.3-2.5-1l-12.8-12.8c-1.4-1.4-1.4-3.6,0-4.9c1.4-1.4,3.6-1.4,4.9,0l12.8,12.8
					c1.4,1.4,1.4,3.6,0,4.9C256.2,210.1,255.3,210.4,254.4,210.4z"/>
			</g>
			<g>
				<line class="st5" x1="-20.1" y1="-67.5" x2="221.8" y2="174.3"/>
				<path class="st6" d="M221.8,177.8c-0.9,0-1.8-0.3-2.5-1L-22.6-65c-1.4-1.4-1.4-3.6,0-4.9c1.4-1.4,3.6-1.4,4.9,0l241.9,241.8
					c1.4,1.4,1.4,3.6,0,4.9C223.6,177.5,222.7,177.8,221.8,177.8z"/>
			</g>
		</g>
		<g class="st4">
			<g>
				<line class="st5" x1="823.5" y1="458.5" x2="710.2" y2="345.3"/>
				<path class="st7" d="M823.5,486c-7,0-14.1-2.7-19.4-8L690.8,364.7c-10.7-10.7-10.7-28.1,0-38.9c10.7-10.7,28.2-10.7,38.9,0
					L843,439.1c10.7,10.7,10.7,28.1,0,38.9C837.6,483.3,830.6,486,823.5,486z"/>
			</g>
			<g>
				<line class="st5" x1="689.3" y1="556.6" x2="576" y2="443.4"/>
				<path class="st7" d="M689.3,584.1c-7,0-14.1-2.7-19.4-8L556.6,462.8c-10.7-10.7-10.7-28.1,0-38.9c10.7-10.7,28.1-10.7,38.9,0
					l113.3,113.3c10.7,10.7,10.7,28.1,0,38.9C703.4,581.4,696.4,584.1,689.3,584.1z"/>
			</g>
			<g>
				<line class="st5" x1="969.8" y1="473.6" x2="689.3" y2="193.3"/>
				<path class="st7" d="M969.8,501.1c-7,0-14.1-2.7-19.4-8L669.9,212.7c-10.7-10.7-10.7-28.1,0-38.9c10.7-10.7,28.1-10.7,38.9,0
					l280.5,280.3c10.7,10.7,10.7,28.1,0,38.9C983.8,498.4,976.8,501.1,969.8,501.1z"/>
			</g>
			<g>
				<line class="st5" x1="598.1" y1="325.2" x2="585.3" y2="312.4"/>
				<path class="st7" d="M598.1,328.7c-0.9,0-1.8-0.3-2.5-1l-12.8-12.8c-1.4-1.4-1.4-3.6,0-5c1.4-1.4,3.6-1.4,5,0l12.8,12.8
					c1.4,1.4,1.4,3.6,0,5C599.9,328.3,599,328.7,598.1,328.7z"/>
			</g>
			<g>
				<line class="st5" x1="859.8" y1="586.8" x2="617.9" y2="345"/>
				<path class="st7" d="M859.8,590.3c-0.9,0-1.8-0.3-2.5-1L615.4,347.5c-1.4-1.4-1.4-3.6,0-5c1.4-1.4,3.6-1.4,5,0l241.9,241.8
					c1.4,1.4,1.4,3.6,0,5C861.6,589.9,860.7,590.3,859.8,590.3z"/>
			</g>
		</g>
	</g>
</g>
<g id="OBJECTS" class="st8">
	<g class="st9">
		<g>
			<g>
				<image style="overflow:visible;" width="207" height="115" xlink:href="5630C2C4.png"  transform="matrix(1 0 0 1 340 376)">
				</image>
			</g>
			<g>
				<image style="overflow:visible;" width="210" height="115" xlink:href="5630C2C5.png"  transform="matrix(1 0 0 1 203 376)">
				</image>
			</g>
		</g>
		<g>
			
				<image style="overflow:visible;opacity:0.2;" width="443" height="479" xlink:href="5630C2C3.png"  transform="matrix(1 0 0 1 170 -41)">
			</image>
			<g>
				<g>
					<g>
						<g>
							<defs>
								<path id="SVGID_8_" d="M510.3,67.7c0-9.8-7.9-17.7-17.7-17.7H258c-9.8,0-17.7,7.9-17.7,17.7V236h270V67.7z"/>
							</defs>
							<clipPath id="SVGID_9_">
								<use xlink:href="#SVGID_8_"  style="overflow:visible;"/>
							</clipPath>
						</g>
					</g>
				</g>
				<g>
					<linearGradient id="SVGID_10_" gradientUnits="userSpaceOnUse" x1="494.3328" y1="35.7918" x2="151.9731" y2="358.711">
						<stop  offset="8.080040e-02" style="stop-color:#F640FF"/>
						<stop  offset="0.6017" style="stop-color:#FF8856"/>
					</linearGradient>
					<path class="st10" d="M510.3,67.7c0-9.8-7.9-17.7-17.7-17.7H258c-9.8,0-17.7,7.9-17.7,17.7V236h270V67.7z"/>
					<g>
						<path class="st11" d="M258,422.1h234.7c9.8,0,17.7-7.9,17.7-17.7V236h-270v168.4C240.4,414.2,248.3,422.1,258,422.1z"/>
						<g>
							<defs>
								<path id="SVGID_11_" d="M510.3,67.7c0-9.8-7.9-17.7-17.7-17.7H258c-9.8,0-17.7,7.9-17.7,17.7V236h270V67.7z"/>
							</defs>
							<clipPath id="SVGID_12_">
								<use xlink:href="#SVGID_11_"  style="overflow:visible;"/>
							</clipPath>
							<g class="st12">
								<g>
									<line class="st5" x1="562.7" y1="33.2" x2="475.7" y2="120.2"/>
									<path class="st13" d="M475.7,130.2c-2.6,0-5.1-1-7.1-2.9c-3.9-3.9-3.9-10.2,0-14.1l87-87c3.9-3.9,10.2-3.9,14.1,0
										c3.9,3.9,3.9,10.2,0,14.1l-87,87C480.9,129.2,478.3,130.2,475.7,130.2z"/>
								</g>
								<g>
									<line class="st5" x1="480.1" y1="162.1" x2="474.5" y2="167.7"/>
									<path class="st13" d="M474.5,170.2c-0.6,0-1.3-0.2-1.8-0.7c-1-1-1-2.6,0-3.5l5.6-5.6c1-1,2.6-1,3.5,0c1,1,1,2.6,0,3.5
										l-5.6,5.6C475.8,169.9,475.1,170.2,474.5,170.2z"/>
								</g>
								<g>
									<line class="st5" x1="595.1" y1="47" x2="488.8" y2="153.3"/>
									<path class="st13" d="M488.8,155.8c-0.6,0-1.3-0.2-1.8-0.7c-1-1-1-2.6,0-3.5L593.4,45.2c1-1,2.6-1,3.5,0c1,1,1,2.6,0,3.5
										L490.6,155.1C490.1,155.6,489.5,155.8,488.8,155.8z"/>
								</g>
							</g>
							<g class="st12">
								<g>
									<line class="st5" x1="303" y1="92.4" x2="308.7" y2="98.1"/>
									<path class="st13" d="M308.7,100.6c-0.6,0-1.3-0.2-1.8-0.7l-5.6-5.6c-1-1-1-2.6,0-3.5c1-1,2.6-1,3.5,0l5.6,5.6
										c1,1,1,2.6,0,3.5C309.9,100.3,309.3,100.6,308.7,100.6z"/>
								</g>
								<g>
									<line class="st5" x1="188" y1="-22.6" x2="294.3" y2="83.7"/>
									<path class="st13" d="M294.3,86.2c-0.6,0-1.3-0.2-1.8-0.7L186.2-20.8c-1-1-1-2.6,0-3.5c1-1,2.6-1,3.5,0L296.1,82
										c1,1,1,2.6,0,3.5C295.6,86,295,86.2,294.3,86.2z"/>
								</g>
							</g>
						</g>
					</g>
				</g>
				<g>
					<g>
						<g>
							<defs>
								<path id="SVGID_13_" d="M510.3,67.7c0-9.8-7.9-17.7-17.7-17.7H258c-9.8,0-17.7,7.9-17.7,17.7V236h270V67.7z"/>
							</defs>
							<clipPath id="SVGID_14_">
								<use xlink:href="#SVGID_13_"  style="overflow:visible;"/>
							</clipPath>
						</g>
					</g>
				</g>
			</g>
		</g>
		<g>
			<g>
			</g>
		</g>
		<g>
			<g>
				
					<image style="overflow:visible;opacity:0.3;" width="75" height="46" xlink:href="5630C2CC.png"  transform="matrix(1 0 0 1 269.7811 368.0867)">
				</image>
				<g>
					<linearGradient id="SVGID_15_" gradientUnits="userSpaceOnUse" x1="277.6448" y1="425.4673" x2="342.9248" y2="342.9073">
						<stop  offset="8.080040e-02" style="stop-color:#F640FF"/>
						<stop  offset="0.7712" style="stop-color:#FF8856"/>
					</linearGradient>
					<path class="st14" d="M326.4,395.8H288c-1.6,0-2.9-1.3-2.9-2.9v-9.5c0-1.6,1.3-2.9,2.9-2.9h38.4c1.6,0,2.9,1.3,2.9,2.9v9.5
						C329.3,394.5,328,395.8,326.4,395.8z"/>
				</g>
			</g>
			<g>
				<text transform="matrix(1 0 0 1 299.339 390.2215)" class="st11 st15 st16">Login</text>
			</g>
		</g>
		<g>
			<g>
				<g class="st17">
					
						<image style="overflow:visible;opacity:0.3;" width="61" height="42" xlink:href="5630C2CF.png"  transform="matrix(1 0 0 1 449 385)">
					</image>
					<g>
						<path class="st18" d="M491.7,408.3h-24.3c-1.8,0-3.2-1.4-3.2-3.2v-4.6c0-1.8,1.4-3.2,3.2-3.2h24.3c1.8,0,3.2,1.4,3.2,3.2v4.6
							C494.9,406.9,493.5,408.3,491.7,408.3z M467.4,397.9c-1.5,0-2.7,1.2-2.7,2.7v4.6c0,1.5,1.2,2.7,2.7,2.7h24.3
							c1.5,0,2.7-1.2,2.7-2.7v-4.6c0-1.5-1.2-2.7-2.7-2.7H467.4z"/>
					</g>
				</g>
				<g>
					<g>
						<text transform="matrix(1 0 0 1 472.562 404.3141)" class="st19 st15 st20">Sign up</text>
					</g>
				</g>
			</g>
			<g>
				<text transform="matrix(1 0 0 1 404.8089 404.9882)" class="st21 st15 st22">Don’t have an account?</text>
			</g>
		</g>
		<linearGradient id="SVGID_16_" gradientUnits="userSpaceOnUse" x1="490.6978" y1="235.1652" x2="382.9951" y2="127.4625">
			<stop  offset="0.1978" style="stop-color:#4D1DA8"/>
			<stop  offset="0.3235" style="stop-color:#5720BE"/>
			<stop  offset="0.4611" style="stop-color:#5E23CE"/>
			<stop  offset="0.6156" style="stop-color:#6225D8"/>
			<stop  offset="0.8208" style="stop-color:#6325DB"/>
		</linearGradient>
		<circle class="st23" cx="432.2" cy="176.7" r="34.1"/>
		<g>
			<g>
				<text transform="matrix(1 0 0 1 267.7417 142.9978)"><tspan x="0" y="0" class="st11 st15 st24">Welcome to </tspan><tspan x="0" y="21.9" class="st11 st15 st24">our website</tspan></text>
			</g>
		</g>
		<rect x="267.8" y="178.3" class="st25" width="169" height="23.8"/>
		<text transform="matrix(1 0 0 1 267.8487 183.9742)"><tspan x="0" y="0" class="st11 st15 st26">Lorem ipsum dolor sit amet, consectetuer </tspan><tspan x="0" y="11" class="st11 st15 st26">adipiscing elit, sed diam nonummy nibh </tspan></text>
		<linearGradient id="SVGID_17_" gradientUnits="userSpaceOnUse" x1="426.7718" y1="95.0957" x2="354.0384" y2="22.3623">
			<stop  offset="0.1978" style="stop-color:#4D1DA8"/>
			<stop  offset="0.3235" style="stop-color:#5720BE"/>
			<stop  offset="0.4611" style="stop-color:#5E23CE"/>
			<stop  offset="0.6156" style="stop-color:#6225D8"/>
			<stop  offset="0.8208" style="stop-color:#6325DB"/>
		</linearGradient>
		<path class="st27" d="M368.2,69.1c10.5,10.5,27.6,10.5,38.2,0c5.3-5.3,7.9-12.2,7.9-19.1h-54C360.3,56.9,362.9,63.8,368.2,69.1z"
			/>
		<linearGradient id="SVGID_18_" gradientUnits="userSpaceOnUse" x1="253.7474" y1="254.7617" x2="342.2311" y2="194.0871">
			<stop  offset="0.1978" style="stop-color:#4D1DA8"/>
			<stop  offset="0.3235" style="stop-color:#5720BE"/>
			<stop  offset="0.4611" style="stop-color:#5E23CE"/>
			<stop  offset="0.6156" style="stop-color:#6225D8"/>
			<stop  offset="0.8208" style="stop-color:#6325DB"/>
		</linearGradient>
		<path class="st28" d="M310.2,217.2c-10.4-10.4-27.3-10.4-37.7,0c-5.2,5.2-7.8,12-7.8,18.8H318C318,229.2,315.4,222.4,310.2,217.2z
			"/>
		<g>
			<defs>
				<path id="SVGID_19_" d="M494,199.9c0,15.5-12.6,28.1-28.1,28.1c-15.5,0-28.1-12.6-28.1-28.1H494z"/>
			</defs>
			<clipPath id="SVGID_20_">
				<use xlink:href="#SVGID_19_"  style="overflow:visible;"/>
			</clipPath>
			<g class="st29">
				<g>
					<path class="st11" d="M469.4,253.2c-0.1,0-0.1,0-0.2-0.1c-0.1-0.1-0.1-0.3,0-0.4l77.1-76.9c0.1-0.1,0.3-0.1,0.4,0
						c0.1,0.1,0.1,0.3,0,0.4l-77.1,76.9C469.5,253.2,469.5,253.2,469.4,253.2z"/>
					<path class="st11" d="M465.9,252.7c-0.1,0-0.1,0-0.2-0.1c-0.1-0.1-0.1-0.3,0-0.4l77.1-76.9c0.1-0.1,0.3-0.1,0.4,0
						c0.1,0.1,0.1,0.3,0,0.4l-77.1,76.9C466,252.7,466,252.7,465.9,252.7z"/>
					<path class="st11" d="M462.4,252.2c-0.1,0-0.1,0-0.2-0.1c-0.1-0.1-0.1-0.3,0-0.4l77.1-76.9c0.1-0.1,0.3-0.1,0.4,0
						c0.1,0.1,0.1,0.3,0,0.4l-77.1,76.9C462.5,252.2,462.5,252.2,462.4,252.2z"/>
					<path class="st11" d="M458.9,251.7c-0.1,0-0.1,0-0.2-0.1c-0.1-0.1-0.1-0.3,0-0.4l77.1-76.9c0.1-0.1,0.3-0.1,0.4,0
						c0.1,0.1,0.1,0.3,0,0.4l-77.1,76.9C459,251.7,459,251.7,458.9,251.7z"/>
					<path class="st11" d="M455.4,251.3c-0.1,0-0.1,0-0.2-0.1c-0.1-0.1-0.1-0.3,0-0.4l77.1-76.9c0.1-0.1,0.3-0.1,0.4,0
						c0.1,0.1,0.1,0.3,0,0.4l-77.1,76.9C455.5,251.2,455.5,251.3,455.4,251.3z"/>
					<path class="st11" d="M451.9,250.8c-0.1,0-0.1,0-0.2-0.1c-0.1-0.1-0.1-0.3,0-0.4l77.1-76.9c0.1-0.1,0.3-0.1,0.4,0
						c0.1,0.1,0.1,0.3,0,0.4l-77.1,76.9C452,250.7,452,250.8,451.9,250.8z"/>
					<path class="st11" d="M448.4,250.3c-0.1,0-0.1,0-0.2-0.1c-0.1-0.1-0.1-0.3,0-0.4l77.1-76.9c0.1-0.1,0.3-0.1,0.4,0
						c0.1,0.1,0.1,0.3,0,0.4l-77.1,76.9C448.5,250.2,448.5,250.3,448.4,250.3z"/>
					<path class="st11" d="M444.9,249.8c-0.1,0-0.1,0-0.2-0.1c-0.1-0.1-0.1-0.3,0-0.4l77.1-76.9c0.1-0.1,0.3-0.1,0.4,0
						c0.1,0.1,0.1,0.3,0,0.4l-77.1,76.9C445,249.7,444.9,249.8,444.9,249.8z"/>
					<path class="st11" d="M441.4,249.3c-0.1,0-0.1,0-0.2-0.1c-0.1-0.1-0.1-0.3,0-0.4l77.1-76.9c0.1-0.1,0.3-0.1,0.4,0
						c0.1,0.1,0.1,0.3,0,0.4l-77.1,76.9C441.5,249.2,441.4,249.3,441.4,249.3z"/>
					<path class="st11" d="M437.9,248.8c-0.1,0-0.1,0-0.2-0.1c-0.1-0.1-0.1-0.3,0-0.4l77.1-76.9c0.1-0.1,0.3-0.1,0.4,0
						c0.1,0.1,0.1,0.3,0,0.4l-77.1,76.9C438,248.7,437.9,248.8,437.9,248.8z"/>
					<path class="st11" d="M434.4,248.3c-0.1,0-0.1,0-0.2-0.1c-0.1-0.1-0.1-0.3,0-0.4l77.1-76.9c0.1-0.1,0.3-0.1,0.4,0
						c0.1,0.1,0.1,0.3,0,0.4l-77.1,76.9C434.5,248.2,434.4,248.3,434.4,248.3z"/>
					<path class="st11" d="M430.9,247.8c-0.1,0-0.1,0-0.2-0.1c-0.1-0.1-0.1-0.3,0-0.4l77.1-76.9c0.1-0.1,0.3-0.1,0.4,0
						c0.1,0.1,0.1,0.3,0,0.4l-77.1,76.9C431,247.7,430.9,247.8,430.9,247.8z"/>
					<path class="st11" d="M427.4,247.3c-0.1,0-0.1,0-0.2-0.1c-0.1-0.1-0.1-0.3,0-0.4l77.1-76.9c0.1-0.1,0.3-0.1,0.4,0
						c0.1,0.1,0.1,0.3,0,0.4l-77.1,76.9C427.5,247.2,427.4,247.3,427.4,247.3z"/>
					<path class="st11" d="M423.9,246.8c-0.1,0-0.1,0-0.2-0.1c-0.1-0.1-0.1-0.3,0-0.4l77.1-76.9c0.1-0.1,0.3-0.1,0.4,0
						c0.1,0.1,0.1,0.3,0,0.4L424,246.7C424,246.8,423.9,246.8,423.9,246.8z"/>
					<path class="st11" d="M420.4,246.3c-0.1,0-0.1,0-0.2-0.1c-0.1-0.1-0.1-0.3,0-0.4l77.1-76.9c0.1-0.1,0.3-0.1,0.4,0
						c0.1,0.1,0.1,0.3,0,0.4l-77.1,76.9C420.5,246.3,420.4,246.3,420.4,246.3z"/>
					<path class="st11" d="M416.9,245.8c-0.1,0-0.1,0-0.2-0.1c-0.1-0.1-0.1-0.3,0-0.4l77.1-76.9c0.1-0.1,0.3-0.1,0.4,0
						c0.1,0.1,0.1,0.3,0,0.4L417,245.7C417,245.8,416.9,245.8,416.9,245.8z"/>
					<path class="st11" d="M413.4,245.3c-0.1,0-0.1,0-0.2-0.1c-0.1-0.1-0.1-0.3,0-0.4l77.1-76.9c0.1-0.1,0.3-0.1,0.4,0
						c0.1,0.1,0.1,0.3,0,0.4l-77.1,76.9C413.5,245.3,413.4,245.3,413.4,245.3z"/>
					<path class="st11" d="M409.9,244.8c-0.1,0-0.1,0-0.2-0.1c-0.1-0.1-0.1-0.3,0-0.4l77.1-76.9c0.1-0.1,0.3-0.1,0.4,0
						c0.1,0.1,0.1,0.3,0,0.4L410,244.7C410,244.8,409.9,244.8,409.9,244.8z"/>
					<path class="st11" d="M406.4,244.3c-0.1,0-0.1,0-0.2-0.1c-0.1-0.1-0.1-0.3,0-0.4l77.1-76.9c0.1-0.1,0.3-0.1,0.4,0
						c0.1,0.1,0.1,0.3,0,0.4l-77.1,76.9C406.5,244.3,406.4,244.3,406.4,244.3z"/>
					<path class="st11" d="M402.9,243.8c-0.1,0-0.1,0-0.2-0.1c-0.1-0.1-0.1-0.3,0-0.4l77.1-76.9c0.1-0.1,0.3-0.1,0.4,0
						c0.1,0.1,0.1,0.3,0,0.4L403,243.7C403,243.8,402.9,243.8,402.9,243.8z"/>
					<path class="st11" d="M399.4,243.3c-0.1,0-0.1,0-0.2-0.1c-0.1-0.1-0.1-0.3,0-0.4l77.1-76.9c0.1-0.1,0.3-0.1,0.4,0
						c0.1,0.1,0.1,0.3,0,0.4l-77.1,76.9C399.5,243.3,399.4,243.3,399.4,243.3z"/>
					<path class="st11" d="M395.9,242.8c-0.1,0-0.1,0-0.2-0.1c-0.1-0.1-0.1-0.3,0-0.4l77.1-76.9c0.1-0.1,0.3-0.1,0.4,0
						c0.1,0.1,0.1,0.3,0,0.4L396,242.7C396,242.8,395.9,242.8,395.9,242.8z"/>
					<path class="st11" d="M392.4,242.3c-0.1,0-0.1,0-0.2-0.1c-0.1-0.1-0.1-0.3,0-0.4l77.1-76.9c0.1-0.1,0.3-0.1,0.4,0
						c0.1,0.1,0.1,0.3,0,0.4l-77.1,76.9C392.5,242.3,392.4,242.3,392.4,242.3z"/>
					<path class="st11" d="M388.8,241.8c-0.1,0-0.1,0-0.2-0.1c-0.1-0.1-0.1-0.3,0-0.4l77.1-76.9c0.1-0.1,0.3-0.1,0.4,0
						c0.1,0.1,0.1,0.3,0,0.4L389,241.7C389,241.8,388.9,241.8,388.8,241.8z"/>
					<path class="st11" d="M385.3,241.3c-0.1,0-0.1,0-0.2-0.1c-0.1-0.1-0.1-0.3,0-0.4l77.1-76.9c0.1-0.1,0.3-0.1,0.4,0
						c0.1,0.1,0.1,0.3,0,0.4l-77.1,76.9C385.5,241.3,385.4,241.3,385.3,241.3z"/>
					<path class="st11" d="M381.8,240.8c-0.1,0-0.1,0-0.2-0.1c-0.1-0.1-0.1-0.3,0-0.4l77.1-76.9c0.1-0.1,0.3-0.1,0.4,0
						c0.1,0.1,0.1,0.3,0,0.4L382,240.7C382,240.8,381.9,240.8,381.8,240.8z"/>
				</g>
			</g>
		</g>
		<g>
			<defs>
				<path id="SVGID_21_" d="M420.2,112.3c-15.5,0-28.1-12.6-28.1-28.1c0-15.5,12.6-28.1,28.1-28.1V112.3z"/>
			</defs>
			<clipPath id="SVGID_22_">
				<use xlink:href="#SVGID_21_"  style="overflow:visible;"/>
			</clipPath>
			<g class="st30">
				<g>
					<path class="st11" d="M444,165c-0.1,0-0.1,0-0.2-0.1l-76.9-77.1c-0.1-0.1-0.1-0.3,0-0.4c0.1-0.1,0.3-0.1,0.4,0l76.9,77.1
						c0.1,0.1,0.1,0.3,0,0.4C444.2,165,444.1,165,444,165z"/>
					<path class="st11" d="M444.5,161.5c-0.1,0-0.1,0-0.2-0.1l-76.9-77.1c-0.1-0.1-0.1-0.3,0-0.4c0.1-0.1,0.3-0.1,0.4,0l76.9,77.1
						c0.1,0.1,0.1,0.3,0,0.4C444.7,161.5,444.6,161.5,444.5,161.5z"/>
					<path class="st11" d="M445,158c-0.1,0-0.1,0-0.2-0.1l-76.9-77.1c-0.1-0.1-0.1-0.3,0-0.4c0.1-0.1,0.3-0.1,0.4,0l76.9,77.1
						c0.1,0.1,0.1,0.3,0,0.4C445.2,158,445.1,158,445,158z"/>
					<path class="st11" d="M445.5,154.5c-0.1,0-0.1,0-0.2-0.1l-76.9-77.1c-0.1-0.1-0.1-0.3,0-0.4c0.1-0.1,0.3-0.1,0.4,0l76.9,77.1
						c0.1,0.1,0.1,0.3,0,0.4C445.6,154.5,445.6,154.5,445.5,154.5z"/>
					<path class="st11" d="M446,151c-0.1,0-0.1,0-0.2-0.1l-76.9-77.1c-0.1-0.1-0.1-0.3,0-0.4c0.1-0.1,0.3-0.1,0.4,0l76.9,77.1
						c0.1,0.1,0.1,0.3,0,0.4C446.1,151,446.1,151,446,151z"/>
					<path class="st11" d="M446.5,147.5c-0.1,0-0.1,0-0.2-0.1l-76.9-77.1c-0.1-0.1-0.1-0.3,0-0.4c0.1-0.1,0.3-0.1,0.4,0l76.9,77.1
						c0.1,0.1,0.1,0.3,0,0.4C446.6,147.5,446.6,147.5,446.5,147.5z"/>
					<path class="st11" d="M447,144c-0.1,0-0.1,0-0.2-0.1l-76.9-77.1c-0.1-0.1-0.1-0.3,0-0.4c0.1-0.1,0.3-0.1,0.4,0l76.9,77.1
						c0.1,0.1,0.1,0.3,0,0.4C447.1,144,447.1,144,447,144z"/>
					<path class="st11" d="M447.5,140.5c-0.1,0-0.1,0-0.2-0.1l-76.9-77.1c-0.1-0.1-0.1-0.3,0-0.4c0.1-0.1,0.3-0.1,0.4,0l76.9,77.1
						c0.1,0.1,0.1,0.3,0,0.4C447.6,140.5,447.6,140.5,447.5,140.5z"/>
					<path class="st11" d="M448,137c-0.1,0-0.1,0-0.2-0.1l-76.9-77.1c-0.1-0.1-0.1-0.3,0-0.4c0.1-0.1,0.3-0.1,0.4,0l76.9,77.1
						c0.1,0.1,0.1,0.3,0,0.4C448.1,137,448.1,137,448,137z"/>
					<path class="st11" d="M448.5,133.5c-0.1,0-0.1,0-0.2-0.1l-76.9-77.1c-0.1-0.1-0.1-0.3,0-0.4c0.1-0.1,0.3-0.1,0.4,0l76.9,77.1
						c0.1,0.1,0.1,0.3,0,0.4C448.6,133.5,448.6,133.5,448.5,133.5z"/>
					<path class="st11" d="M449,130c-0.1,0-0.1,0-0.2-0.1l-76.9-77.1c-0.1-0.1-0.1-0.3,0-0.4c0.1-0.1,0.3-0.1,0.4,0l76.9,77.1
						c0.1,0.1,0.1,0.3,0,0.4C449.1,130,449.1,130,449,130z"/>
					<path class="st11" d="M449.5,126.5c-0.1,0-0.1,0-0.2-0.1l-76.9-77.1c-0.1-0.1-0.1-0.3,0-0.4c0.1-0.1,0.3-0.1,0.4,0l76.9,77.1
						c0.1,0.1,0.1,0.3,0,0.4C449.6,126.5,449.6,126.5,449.5,126.5z"/>
					<path class="st11" d="M450,123c-0.1,0-0.1,0-0.2-0.1l-76.9-77.1c-0.1-0.1-0.1-0.3,0-0.4c0.1-0.1,0.3-0.1,0.4,0l76.9,77.1
						c0.1,0.1,0.1,0.3,0,0.4C450.1,122.9,450.1,123,450,123z"/>
					<path class="st11" d="M450.5,119.5c-0.1,0-0.1,0-0.2-0.1l-76.9-77.1c-0.1-0.1-0.1-0.3,0-0.4c0.1-0.1,0.3-0.1,0.4,0l76.9,77.1
						c0.1,0.1,0.1,0.3,0,0.4C450.6,119.4,450.6,119.5,450.5,119.5z"/>
					<path class="st11" d="M451,116c-0.1,0-0.1,0-0.2-0.1l-76.9-77.1c-0.1-0.1-0.1-0.3,0-0.4c0.1-0.1,0.3-0.1,0.4,0l76.9,77.1
						c0.1,0.1,0.1,0.3,0,0.4C451.1,115.9,451.1,116,451,116z"/>
					<path class="st11" d="M451.5,112.5c-0.1,0-0.1,0-0.2-0.1l-76.9-77.1c-0.1-0.1-0.1-0.3,0-0.4c0.1-0.1,0.3-0.1,0.4,0l76.9,77.1
						c0.1,0.1,0.1,0.3,0,0.4C451.6,112.4,451.6,112.5,451.5,112.5z"/>
					<path class="st11" d="M452,109c-0.1,0-0.1,0-0.2-0.1l-76.9-77.1c-0.1-0.1-0.1-0.3,0-0.4c0.1-0.1,0.3-0.1,0.4,0l76.9,77.1
						c0.1,0.1,0.1,0.3,0,0.4C452.1,108.9,452.1,109,452,109z"/>
					<path class="st11" d="M452.5,105.5c-0.1,0-0.1,0-0.2-0.1l-76.9-77.1c-0.1-0.1-0.1-0.3,0-0.4c0.1-0.1,0.3-0.1,0.4,0l76.9,77.1
						c0.1,0.1,0.1,0.3,0,0.4C452.6,105.4,452.5,105.5,452.5,105.5z"/>
					<path class="st11" d="M453,102c-0.1,0-0.1,0-0.2-0.1l-76.9-77.1c-0.1-0.1-0.1-0.3,0-0.4c0.1-0.1,0.3-0.1,0.4,0l76.9,77.1
						c0.1,0.1,0.1,0.3,0,0.4C453.1,101.9,453,102,453,102z"/>
					<path class="st11" d="M453.5,98.5c-0.1,0-0.1,0-0.2-0.1l-76.9-77.1c-0.1-0.1-0.1-0.3,0-0.4c0.1-0.1,0.3-0.1,0.4,0L453.7,98
						c0.1,0.1,0.1,0.3,0,0.4C453.6,98.4,453.5,98.5,453.5,98.5z"/>
					<path class="st11" d="M454,95c-0.1,0-0.1,0-0.2-0.1l-76.9-77.1c-0.1-0.1-0.1-0.3,0-0.4c0.1-0.1,0.3-0.1,0.4,0l76.9,77.1
						c0.1,0.1,0.1,0.3,0,0.4C454.1,94.9,454,95,454,95z"/>
					<path class="st11" d="M454.5,91.5c-0.1,0-0.1,0-0.2-0.1l-76.9-77.1c-0.1-0.1-0.1-0.3,0-0.4c0.1-0.1,0.3-0.1,0.4,0L454.7,91
						c0.1,0.1,0.1,0.3,0,0.4C454.6,91.4,454.5,91.5,454.5,91.5z"/>
					<path class="st11" d="M455,88c-0.1,0-0.1,0-0.2-0.1l-76.9-77.1c-0.1-0.1-0.1-0.3,0-0.4c0.1-0.1,0.3-0.1,0.4,0l76.9,77.1
						c0.1,0.1,0.1,0.3,0,0.4C455.1,87.9,455,88,455,88z"/>
					<path class="st11" d="M455.5,84.4c-0.1,0-0.1,0-0.2-0.1L378.4,7.3c-0.1-0.1-0.1-0.3,0-0.4c0.1-0.1,0.3-0.1,0.4,0L455.6,84
						c0.1,0.1,0.1,0.3,0,0.4C455.6,84.4,455.5,84.4,455.5,84.4z"/>
					<path class="st11" d="M456,80.9c-0.1,0-0.1,0-0.2-0.1L378.9,3.8c-0.1-0.1-0.1-0.3,0-0.4c0.1-0.1,0.3-0.1,0.4,0l76.9,77.1
						c0.1,0.1,0.1,0.3,0,0.4C456.1,80.9,456,80.9,456,80.9z"/>
					<path class="st11" d="M456.5,77.4c-0.1,0-0.1,0-0.2-0.1L379.4,0.3c-0.1-0.1-0.1-0.3,0-0.4c0.1-0.1,0.3-0.1,0.4,0L456.6,77
						c0.1,0.1,0.1,0.3,0,0.4C456.6,77.4,456.5,77.4,456.5,77.4z"/>
				</g>
			</g>
		</g>
		<g>
			<rect x="453.5" y="76.5" class="st13" width="14.9" height="1"/>
			<rect x="460.4" y="69.6" class="st13" width="1" height="14.9"/>
		</g>
		<g>
			<rect x="353.1" y="97.6" class="st13" width="14.9" height="1"/>
			<rect x="360.1" y="90.6" class="st13" width="1" height="14.9"/>
		</g>
		<g>
			<g>
				<rect x="368.4" y="216.3" class="st31" width="14.9" height="1"/>
				<rect x="375.4" y="209.4" class="st31" width="1" height="14.9"/>
			</g>
		</g>
		<g>
			<rect x="246.3" y="201.6" class="st31" width="14.9" height="1"/>
			<rect x="253.2" y="194.6" class="st31" width="1" height="14.9"/>
		</g>
		<g>
			<g>
				<text transform="matrix(1 0 0 1 288.1313 328.2464)" class="st21 st15 st32">Password</text>
			</g>
			<g>
				<text transform="matrix(1 0 0 1 411.9971 341.5063)" class="st21 st15 st33">Forgot your password?</text>
			</g>
			<g>
				<text transform="matrix(1 0 0 1 288.2261 287.4251)" class="st21 st15 st32">User name</text>
			</g>
			<g>
				<g>
					<g>
					</g>
					<text transform="matrix(1 0 0 1 292.734 300.5901)" class="st19 st15 st34">Enter your user name or email</text>
				</g>
				<rect x="285" y="306.2" class="st21" width="180.1" height="0.3"/>
			</g>
			<g>
				<g>
					<g>
					</g>
					<text transform="matrix(1 0 0 1 289.6035 341.5062)" class="st19 st15 st34">Enter your password</text>
				</g>
				<rect x="285" y="347.1" class="st21" width="180.1" height="0.3"/>
			</g>
		</g>
		<g>
			<text transform="matrix(1 0 0 1 357.4809 264.7211)" class="st21 st15 st35 st36">LOG IN</text>
		</g>
		<g>
			<defs>
				<path id="SVGID_23_" d="M240.4,72.3c15.5,0,28.1,12.6,28.1,28.1s-12.6,28.1-28.1,28.1V72.3z"/>
			</defs>
			<clipPath id="SVGID_24_">
				<use xlink:href="#SVGID_23_"  style="overflow:visible;"/>
			</clipPath>
			<g class="st37">
				<g>
					<path class="st11" d="M293.4,97.2c-0.1,0-0.1,0-0.2-0.1L216.3,20c-0.1-0.1-0.1-0.3,0-0.4c0.1-0.1,0.3-0.1,0.4,0l76.9,77.1
						c0.1,0.1,0.1,0.3,0,0.4C293.5,97.2,293.5,97.2,293.4,97.2z"/>
					<path class="st11" d="M292.9,100.7c-0.1,0-0.1,0-0.2-0.1l-76.9-77.1c-0.1-0.1-0.1-0.3,0-0.4c0.1-0.1,0.3-0.1,0.4,0l76.9,77.1
						c0.1,0.1,0.1,0.3,0,0.4C293,100.7,293,100.7,292.9,100.7z"/>
					<path class="st11" d="M292.4,104.2c-0.1,0-0.1,0-0.2-0.1L215.3,27c-0.1-0.1-0.1-0.3,0-0.4c0.1-0.1,0.3-0.1,0.4,0l76.9,77.1
						c0.1,0.1,0.1,0.3,0,0.4C292.5,104.2,292.5,104.2,292.4,104.2z"/>
					<path class="st11" d="M291.9,107.7c-0.1,0-0.1,0-0.2-0.1l-76.9-77.1c-0.1-0.1-0.1-0.3,0-0.4c0.1-0.1,0.3-0.1,0.4,0l76.9,77.1
						c0.1,0.1,0.1,0.3,0,0.4C292.1,107.7,292,107.7,291.9,107.7z"/>
					<path class="st11" d="M291.4,111.2c-0.1,0-0.1,0-0.2-0.1L214.3,34c-0.1-0.1-0.1-0.3,0-0.4c0.1-0.1,0.3-0.1,0.4,0l76.9,77.1
						c0.1,0.1,0.1,0.3,0,0.4C291.6,111.2,291.5,111.2,291.4,111.2z"/>
					<path class="st11" d="M290.9,114.7c-0.1,0-0.1,0-0.2-0.1l-76.9-77.1c-0.1-0.1-0.1-0.3,0-0.4c0.1-0.1,0.3-0.1,0.4,0l76.9,77.1
						c0.1,0.1,0.1,0.3,0,0.4C291.1,114.7,291,114.7,290.9,114.7z"/>
					<path class="st11" d="M290.4,118.2c-0.1,0-0.1,0-0.2-0.1l-76.9-77.1c-0.1-0.1-0.1-0.3,0-0.4c0.1-0.1,0.3-0.1,0.4,0l76.9,77.1
						c0.1,0.1,0.1,0.3,0,0.4C290.6,118.2,290.5,118.2,290.4,118.2z"/>
					<path class="st11" d="M289.9,121.7c-0.1,0-0.1,0-0.2-0.1l-76.9-77.1c-0.1-0.1-0.1-0.3,0-0.4c0.1-0.1,0.3-0.1,0.4,0l76.9,77.1
						c0.1,0.1,0.1,0.3,0,0.4C290.1,121.7,290,121.7,289.9,121.7z"/>
					<path class="st11" d="M289.4,125.2c-0.1,0-0.1,0-0.2-0.1l-76.9-77.1c-0.1-0.1-0.1-0.3,0-0.4c0.1-0.1,0.3-0.1,0.4,0l76.9,77.1
						c0.1,0.1,0.1,0.3,0,0.4C289.6,125.2,289.5,125.2,289.4,125.2z"/>
					<path class="st11" d="M288.9,128.7c-0.1,0-0.1,0-0.2-0.1l-76.9-77.1c-0.1-0.1-0.1-0.3,0-0.4c0.1-0.1,0.3-0.1,0.4,0l76.9,77.1
						c0.1,0.1,0.1,0.3,0,0.4C289.1,128.7,289,128.7,288.9,128.7z"/>
					<path class="st11" d="M288.4,132.2c-0.1,0-0.1,0-0.2-0.1l-76.9-77.1c-0.1-0.1-0.1-0.3,0-0.4c0.1-0.1,0.3-0.1,0.4,0l76.9,77.1
						c0.1,0.1,0.1,0.3,0,0.4C288.6,132.2,288.5,132.2,288.4,132.2z"/>
					<path class="st11" d="M287.9,135.7c-0.1,0-0.1,0-0.2-0.1l-76.9-77.1c-0.1-0.1-0.1-0.3,0-0.4c0.1-0.1,0.3-0.1,0.4,0l76.9,77.1
						c0.1,0.1,0.1,0.3,0,0.4C288.1,135.7,288,135.7,287.9,135.7z"/>
					<path class="st11" d="M287.4,139.2c-0.1,0-0.1,0-0.2-0.1l-76.9-77.1c-0.1-0.1-0.1-0.3,0-0.4c0.1-0.1,0.3-0.1,0.4,0l76.9,77.1
						c0.1,0.1,0.1,0.3,0,0.4C287.6,139.2,287.5,139.2,287.4,139.2z"/>
					<path class="st11" d="M286.9,142.7c-0.1,0-0.1,0-0.2-0.1l-76.9-77.1c-0.1-0.1-0.1-0.3,0-0.4c0.1-0.1,0.3-0.1,0.4,0l76.9,77.1
						c0.1,0.1,0.1,0.3,0,0.4C287.1,142.7,287,142.7,286.9,142.7z"/>
					<path class="st11" d="M286.5,146.2c-0.1,0-0.1,0-0.2-0.1l-76.9-77.1c-0.1-0.1-0.1-0.3,0-0.4c0.1-0.1,0.3-0.1,0.4,0l76.9,77.1
						c0.1,0.1,0.1,0.3,0,0.4C286.6,146.2,286.5,146.2,286.5,146.2z"/>
					<path class="st11" d="M286,149.7c-0.1,0-0.1,0-0.2-0.1l-76.9-77.1c-0.1-0.1-0.1-0.3,0-0.4c0.1-0.1,0.3-0.1,0.4,0l76.9,77.1
						c0.1,0.1,0.1,0.3,0,0.4C286.1,149.7,286,149.7,286,149.7z"/>
					<path class="st11" d="M285.5,153.2c-0.1,0-0.1,0-0.2-0.1l-76.9-77.1c-0.1-0.1-0.1-0.3,0-0.4c0.1-0.1,0.3-0.1,0.4,0l76.9,77.1
						c0.1,0.1,0.1,0.3,0,0.4C285.6,153.2,285.5,153.2,285.5,153.2z"/>
					<path class="st11" d="M285,156.7c-0.1,0-0.1,0-0.2-0.1l-76.9-77.1c-0.1-0.1-0.1-0.3,0-0.4c0.1-0.1,0.3-0.1,0.4,0l76.9,77.1
						c0.1,0.1,0.1,0.3,0,0.4C285.1,156.7,285,156.7,285,156.7z"/>
					<path class="st11" d="M284.5,160.2c-0.1,0-0.1,0-0.2-0.1l-76.9-77.1c-0.1-0.1-0.1-0.3,0-0.4c0.1-0.1,0.3-0.1,0.4,0l76.9,77.1
						c0.1,0.1,0.1,0.3,0,0.4C284.6,160.2,284.5,160.2,284.5,160.2z"/>
					<path class="st11" d="M284,163.7c-0.1,0-0.1,0-0.2-0.1l-76.9-77.1c-0.1-0.1-0.1-0.3,0-0.4c0.1-0.1,0.3-0.1,0.4,0l76.9,77.1
						c0.1,0.1,0.1,0.3,0,0.4C284.1,163.7,284,163.7,284,163.7z"/>
					<path class="st11" d="M283.5,167.2c-0.1,0-0.1,0-0.2-0.1l-76.9-77.1c-0.1-0.1-0.1-0.3,0-0.4c0.1-0.1,0.3-0.1,0.4,0l76.9,77.1
						c0.1,0.1,0.1,0.3,0,0.4C283.6,167.2,283.5,167.2,283.5,167.2z"/>
					<path class="st11" d="M283,170.7c-0.1,0-0.1,0-0.2-0.1l-76.9-77.1c-0.1-0.1-0.1-0.3,0-0.4c0.1-0.1,0.3-0.1,0.4,0l76.9,77.1
						c0.1,0.1,0.1,0.3,0,0.4C283.1,170.7,283,170.7,283,170.7z"/>
					<path class="st11" d="M282.5,174.2c-0.1,0-0.1,0-0.2-0.1l-76.9-77.1c-0.1-0.1-0.1-0.3,0-0.4c0.1-0.1,0.3-0.1,0.4,0l76.9,77.1
						c0.1,0.1,0.1,0.3,0,0.4C282.6,174.2,282.5,174.2,282.5,174.2z"/>
					<path class="st11" d="M282,177.7c-0.1,0-0.1,0-0.2-0.1l-76.9-77.1c-0.1-0.1-0.1-0.3,0-0.4c0.1-0.1,0.3-0.1,0.4,0l76.9,77.1
						c0.1,0.1,0.1,0.3,0,0.4C282.1,177.7,282,177.7,282,177.7z"/>
					<path class="st11" d="M281.5,181.2c-0.1,0-0.1,0-0.2-0.1l-76.9-77.1c-0.1-0.1-0.1-0.3,0-0.4c0.1-0.1,0.3-0.1,0.4,0l76.9,77.1
						c0.1,0.1,0.1,0.3,0,0.4C281.6,181.2,281.5,181.2,281.5,181.2z"/>
					<path class="st11" d="M281,184.7c-0.1,0-0.1,0-0.2-0.1l-76.9-77.1c-0.1-0.1-0.1-0.3,0-0.4c0.1-0.1,0.3-0.1,0.4,0l76.9,77.1
						c0.1,0.1,0.1,0.3,0,0.4C281.1,184.7,281,184.7,281,184.7z"/>
				</g>
			</g>
		</g>
		<g>
			<g>
				<text transform="matrix(1 0 0 1 295.4281 366.1173)" class="st21 st15 st33">Remember me</text>
			</g>
			<path class="st38" d="M289.9,367.1h-5c-0.1,0-0.3-0.1-0.3-0.3v-5c0-0.1,0.1-0.3,0.3-0.3h5c0.1,0,0.3,0.1,0.3,0.3v5
				C290.2,367,290.1,367.1,289.9,367.1z M285.2,366.6h4.5v-4.5h-4.5V366.6z"/>
		</g>
	</g>
</g>
<g id="DESIGNED_BY_FREEPIK" class="st8">
</g>
</svg>
