<?xml version="1.0" encoding="utf-8"?>
<!-- Generator: Adobe Illustrator 22.0.0, SVG Export Plug-In . SVG Version: 6.00 Build 0)  -->
<svg version="1.1" id="Layer_1" xmlns="http://www.w3.org/2000/svg" xmlns:xlink="http://www.w3.org/1999/xlink" x="0px" y="0px"
	 viewBox="0 0 750 500" style="enable-background:new 0 0 750 500;" xml:space="preserve">
<style type="text/css">
	.st0{fill:url(#SVGID_3_);}
	.st1{clip-path:url(#SVGID_5_);}
	.st2{fill:#5822BD;}
	.st3{fill:#6325DB;}
	.st4{fill:url(#SVGID_8_);}
	.st5{fill:url(#SVGID_9_);}
	.st6{fill:url(#SVGID_10_);}
	.st7{clip-path:url(#SVGID_12_);}
	.st8{fill:#FFFEFC;}
	.st9{clip-path:url(#SVGID_14_);}
	.st10{fill:#4D1DA8;}
	.st11{clip-path:url(#SVGID_16_);}
	.st12{fill:url(#SVGID_19_);}
	.st13{clip-path:url(#SVGID_21_);}
	.st14{fill:url(#SVGID_24_);}
	.st15{fill:url(#SVGID_25_);}
	.st16{fill:url(#SVGID_26_);}
	.st17{clip-path:url(#SVGID_28_);}
	.st18{clip-path:url(#SVGID_30_);}
	.st19{clip-path:url(#SVGID_32_);}
</style>
<g>
	<g>
		
			<image style="overflow:visible;opacity:0.2;" width="443" height="292" xlink:href="E573B8E3.png"  transform="matrix(1 0 0 1 738 393)">
		</image>
		<g>
			<g>
				<g>
					<g>
						<defs>
							<path id="SVGID_1_" d="M1078.3,501.7c0-9.8-7.9-17.7-17.7-17.7H826c-9.8,0-17.7,7.9-17.7,17.7V670h270V501.7z"/>
						</defs>
						<clipPath id="SVGID_2_">
							<use xlink:href="#SVGID_1_"  style="overflow:visible;"/>
						</clipPath>
					</g>
				</g>
			</g>
			<g>
				<linearGradient id="SVGID_3_" gradientUnits="userSpaceOnUse" x1="1062.3329" y1="469.7918" x2="719.9731" y2="792.7111">
					<stop  offset="8.080040e-02" style="stop-color:#F640FF"/>
					<stop  offset="0.6017" style="stop-color:#FF8856"/>
				</linearGradient>
				<path class="st0" d="M1078.3,501.7c0-9.8-7.9-17.7-17.7-17.7H826c-9.8,0-17.7,7.9-17.7,17.7V670h270V501.7z"/>
				<g>
					<g>
						<defs>
							<path id="SVGID_4_" d="M1078.3,501.7c0-9.8-7.9-17.7-17.7-17.7H826c-9.8,0-17.7,7.9-17.7,17.7V670h270V501.7z"/>
						</defs>
						<clipPath id="SVGID_5_">
							<use xlink:href="#SVGID_4_"  style="overflow:visible;"/>
						</clipPath>
						<g class="st1">
							<g>
								<line class="st2" x1="1130.7" y1="467.2" x2="1043.7" y2="554.2"/>
								<path class="st3" d="M1043.7,564.2c-2.6,0-5.1-1-7.1-2.9c-3.9-3.9-3.9-10.2,0-14.1l87-87c3.9-3.9,10.2-3.9,14.1,0
									c3.9,3.9,3.9,10.2,0,14.1l-87,87C1048.9,563.2,1046.3,564.2,1043.7,564.2z"/>
							</g>
							<g>
								<line class="st2" x1="1048.1" y1="596.1" x2="1042.5" y2="601.7"/>
								<path class="st3" d="M1042.5,604.2c-0.6,0-1.3-0.2-1.8-0.7c-1-1-1-2.6,0-3.5l5.6-5.6c1-1,2.6-1,3.5,0c1,1,1,2.6,0,3.5
									l-5.6,5.6C1043.8,603.9,1043.1,604.2,1042.5,604.2z"/>
							</g>
							<g>
								<line class="st2" x1="1163.1" y1="481" x2="1056.8" y2="587.3"/>
								<path class="st3" d="M1056.8,589.8c-0.6,0-1.3-0.2-1.8-0.7c-1-1-1-2.6,0-3.5l106.3-106.4c1-1,2.6-1,3.5,0c1,1,1,2.6,0,3.5
									l-106.3,106.4C1058.1,589.6,1057.5,589.8,1056.8,589.8z"/>
							</g>
						</g>
						<g class="st1">
							<g>
								<line class="st2" x1="871" y1="526.4" x2="876.7" y2="532.1"/>
								<path class="st3" d="M876.7,534.6c-0.6,0-1.3-0.2-1.8-0.7l-5.6-5.6c-1-1-1-2.6,0-3.5c1-1,2.6-1,3.5,0l5.6,5.6
									c1,1,1,2.6,0,3.5C877.9,534.3,877.3,534.6,876.7,534.6z"/>
							</g>
							<g>
								<line class="st2" x1="756" y1="411.4" x2="862.3" y2="517.7"/>
								<path class="st3" d="M862.3,520.2c-0.6,0-1.3-0.2-1.8-0.7L754.2,413.2c-1-1-1-2.6,0-3.5c1-1,2.6-1,3.5,0L864.1,516
									c1,1,1,2.6,0,3.5C863.6,520,863,520.2,862.3,520.2z"/>
							</g>
						</g>
					</g>
				</g>
			</g>
			<g>
				<g>
					<g>
						<defs>
							<path id="SVGID_6_" d="M1078.3,501.7c0-9.8-7.9-17.7-17.7-17.7H826c-9.8,0-17.7,7.9-17.7,17.7V670h270V501.7z"/>
						</defs>
						<clipPath id="SVGID_7_">
							<use xlink:href="#SVGID_6_"  style="overflow:visible;"/>
						</clipPath>
					</g>
				</g>
			</g>
		</g>
	</g>
	<linearGradient id="SVGID_8_" gradientUnits="userSpaceOnUse" x1="1058.6978" y1="669.1652" x2="950.9951" y2="561.4625">
		<stop  offset="0.1978" style="stop-color:#4D1DA8"/>
		<stop  offset="0.3235" style="stop-color:#5720BE"/>
		<stop  offset="0.4611" style="stop-color:#5E23CE"/>
		<stop  offset="0.6156" style="stop-color:#6225D8"/>
		<stop  offset="0.8208" style="stop-color:#6325DB"/>
	</linearGradient>
	<circle class="st4" cx="1000.2" cy="610.7" r="34.1"/>
	<linearGradient id="SVGID_9_" gradientUnits="userSpaceOnUse" x1="994.7718" y1="529.0957" x2="922.0383" y2="456.3623">
		<stop  offset="0.1978" style="stop-color:#4D1DA8"/>
		<stop  offset="0.3235" style="stop-color:#5720BE"/>
		<stop  offset="0.4611" style="stop-color:#5E23CE"/>
		<stop  offset="0.6156" style="stop-color:#6225D8"/>
		<stop  offset="0.8208" style="stop-color:#6325DB"/>
	</linearGradient>
	<path class="st5" d="M936.2,503.1c10.5,10.5,27.6,10.5,38.2,0c5.3-5.3,7.9-12.2,7.9-19.1h-54C928.3,490.9,930.9,497.8,936.2,503.1z
		"/>
	<linearGradient id="SVGID_10_" gradientUnits="userSpaceOnUse" x1="821.7474" y1="688.7617" x2="910.2311" y2="628.0871">
		<stop  offset="0.1978" style="stop-color:#4D1DA8"/>
		<stop  offset="0.3235" style="stop-color:#5720BE"/>
		<stop  offset="0.4611" style="stop-color:#5E23CE"/>
		<stop  offset="0.6156" style="stop-color:#6225D8"/>
		<stop  offset="0.8208" style="stop-color:#6325DB"/>
	</linearGradient>
	<path class="st6" d="M878.2,651.2c-10.4-10.4-27.3-10.4-37.7,0c-5.2,5.2-7.8,12-7.8,18.8H886C886,663.2,883.4,656.4,878.2,651.2z"
		/>
	<g>
		<defs>
			<path id="SVGID_11_" d="M1062,633.9c0,15.5-12.6,28.1-28.1,28.1s-28.1-12.6-28.1-28.1H1062z"/>
		</defs>
		<clipPath id="SVGID_12_">
			<use xlink:href="#SVGID_11_"  style="overflow:visible;"/>
		</clipPath>
		<g class="st7">
			<g>
				<path class="st8" d="M1037.4,687.2c-0.1,0-0.1,0-0.2-0.1c-0.1-0.1-0.1-0.3,0-0.4l77.1-76.9c0.1-0.1,0.3-0.1,0.4,0
					c0.1,0.1,0.1,0.3,0,0.4l-77.1,76.9C1037.5,687.2,1037.5,687.2,1037.4,687.2z"/>
				<path class="st8" d="M1033.9,686.7c-0.1,0-0.1,0-0.2-0.1c-0.1-0.1-0.1-0.3,0-0.4l77.1-76.9c0.1-0.1,0.3-0.1,0.4,0
					c0.1,0.1,0.1,0.3,0,0.4l-77.1,76.9C1034,686.7,1034,686.7,1033.9,686.7z"/>
				<path class="st8" d="M1030.4,686.2c-0.1,0-0.1,0-0.2-0.1c-0.1-0.1-0.1-0.3,0-0.4l77.1-76.9c0.1-0.1,0.3-0.1,0.4,0
					c0.1,0.1,0.1,0.3,0,0.4l-77.1,76.9C1030.5,686.2,1030.5,686.2,1030.4,686.2z"/>
				<path class="st8" d="M1026.9,685.7c-0.1,0-0.1,0-0.2-0.1c-0.1-0.1-0.1-0.3,0-0.4l77.1-76.9c0.1-0.1,0.3-0.1,0.4,0
					c0.1,0.1,0.1,0.3,0,0.4l-77.1,76.9C1027,685.7,1027,685.7,1026.9,685.7z"/>
				<path class="st8" d="M1023.4,685.3c-0.1,0-0.1,0-0.2-0.1c-0.1-0.1-0.1-0.3,0-0.4l77.1-76.9c0.1-0.1,0.3-0.1,0.4,0
					c0.1,0.1,0.1,0.3,0,0.4l-77.1,76.9C1023.5,685.2,1023.5,685.3,1023.4,685.3z"/>
				<path class="st8" d="M1019.9,684.8c-0.1,0-0.1,0-0.2-0.1c-0.1-0.1-0.1-0.3,0-0.4l77.1-76.9c0.1-0.1,0.3-0.1,0.4,0
					c0.1,0.1,0.1,0.3,0,0.4l-77.1,76.9C1020,684.7,1020,684.8,1019.9,684.8z"/>
				<path class="st8" d="M1016.4,684.3c-0.1,0-0.1,0-0.2-0.1c-0.1-0.1-0.1-0.3,0-0.4l77.1-76.9c0.1-0.1,0.3-0.1,0.4,0
					c0.1,0.1,0.1,0.3,0,0.4l-77.1,76.9C1016.5,684.2,1016.5,684.3,1016.4,684.3z"/>
				<path class="st8" d="M1012.9,683.8c-0.1,0-0.1,0-0.2-0.1c-0.1-0.1-0.1-0.3,0-0.4l77.1-76.9c0.1-0.1,0.3-0.1,0.4,0
					c0.1,0.1,0.1,0.3,0,0.4l-77.1,76.9C1013,683.7,1012.9,683.8,1012.9,683.8z"/>
				<path class="st8" d="M1009.4,683.3c-0.1,0-0.1,0-0.2-0.1c-0.1-0.1-0.1-0.3,0-0.4l77.1-76.9c0.1-0.1,0.3-0.1,0.4,0
					c0.1,0.1,0.1,0.3,0,0.4l-77.1,76.9C1009.5,683.2,1009.4,683.3,1009.4,683.3z"/>
				<path class="st8" d="M1005.9,682.8c-0.1,0-0.1,0-0.2-0.1c-0.1-0.1-0.1-0.3,0-0.4l77.1-76.9c0.1-0.1,0.3-0.1,0.4,0
					c0.1,0.1,0.1,0.3,0,0.4l-77.1,76.9C1006,682.7,1005.9,682.8,1005.9,682.8z"/>
				<path class="st8" d="M1002.4,682.3c-0.1,0-0.1,0-0.2-0.1c-0.1-0.1-0.1-0.3,0-0.4l77.1-76.9c0.1-0.1,0.3-0.1,0.4,0
					c0.1,0.1,0.1,0.3,0,0.4l-77.1,76.9C1002.5,682.2,1002.4,682.3,1002.4,682.3z"/>
				<path class="st8" d="M998.9,681.8c-0.1,0-0.1,0-0.2-0.1c-0.1-0.1-0.1-0.3,0-0.4l77.1-76.9c0.1-0.1,0.3-0.1,0.4,0
					c0.1,0.1,0.1,0.3,0,0.4l-77.1,76.9C999,681.7,998.9,681.8,998.9,681.8z"/>
				<path class="st8" d="M995.4,681.3c-0.1,0-0.1,0-0.2-0.1c-0.1-0.1-0.1-0.3,0-0.4l77.1-76.9c0.1-0.1,0.3-0.1,0.4,0
					c0.1,0.1,0.1,0.3,0,0.4l-77.1,76.9C995.5,681.2,995.4,681.3,995.4,681.3z"/>
				<path class="st8" d="M991.9,680.8c-0.1,0-0.1,0-0.2-0.1c-0.1-0.1-0.1-0.3,0-0.4l77.1-76.9c0.1-0.1,0.3-0.1,0.4,0
					c0.1,0.1,0.1,0.3,0,0.4L992,680.7C992,680.8,991.9,680.8,991.9,680.8z"/>
				<path class="st8" d="M988.4,680.3c-0.1,0-0.1,0-0.2-0.1c-0.1-0.1-0.1-0.3,0-0.4l77.1-76.9c0.1-0.1,0.3-0.1,0.4,0
					c0.1,0.1,0.1,0.3,0,0.4l-77.1,76.9C988.5,680.3,988.4,680.3,988.4,680.3z"/>
				<path class="st8" d="M984.9,679.8c-0.1,0-0.1,0-0.2-0.1c-0.1-0.1-0.1-0.3,0-0.4l77.1-76.9c0.1-0.1,0.3-0.1,0.4,0
					c0.1,0.1,0.1,0.3,0,0.4L985,679.7C985,679.8,984.9,679.8,984.9,679.8z"/>
				<path class="st8" d="M981.4,679.3c-0.1,0-0.1,0-0.2-0.1c-0.1-0.1-0.1-0.3,0-0.4l77.1-76.9c0.1-0.1,0.3-0.1,0.4,0
					c0.1,0.1,0.1,0.3,0,0.4l-77.1,76.9C981.5,679.3,981.4,679.3,981.4,679.3z"/>
				<path class="st8" d="M977.9,678.8c-0.1,0-0.1,0-0.2-0.1c-0.1-0.1-0.1-0.3,0-0.4l77.1-76.9c0.1-0.1,0.3-0.1,0.4,0
					c0.1,0.1,0.1,0.3,0,0.4L978,678.7C978,678.8,977.9,678.8,977.9,678.8z"/>
				<path class="st8" d="M974.4,678.3c-0.1,0-0.1,0-0.2-0.1c-0.1-0.1-0.1-0.3,0-0.4l77.1-76.9c0.1-0.1,0.3-0.1,0.4,0
					c0.1,0.1,0.1,0.3,0,0.4l-77.1,76.9C974.5,678.3,974.4,678.3,974.4,678.3z"/>
				<path class="st8" d="M970.9,677.8c-0.1,0-0.1,0-0.2-0.1c-0.1-0.1-0.1-0.3,0-0.4l77.1-76.9c0.1-0.1,0.3-0.1,0.4,0
					c0.1,0.1,0.1,0.3,0,0.4L971,677.7C971,677.8,970.9,677.8,970.9,677.8z"/>
				<path class="st8" d="M967.4,677.3c-0.1,0-0.1,0-0.2-0.1c-0.1-0.1-0.1-0.3,0-0.4l77.1-76.9c0.1-0.1,0.3-0.1,0.4,0
					c0.1,0.1,0.1,0.3,0,0.4l-77.1,76.9C967.5,677.3,967.4,677.3,967.4,677.3z"/>
				<path class="st8" d="M963.9,676.8c-0.1,0-0.1,0-0.2-0.1c-0.1-0.1-0.1-0.3,0-0.4l77.1-76.9c0.1-0.1,0.3-0.1,0.4,0
					c0.1,0.1,0.1,0.3,0,0.4L964,676.7C964,676.8,963.9,676.8,963.9,676.8z"/>
				<path class="st8" d="M960.4,676.3c-0.1,0-0.1,0-0.2-0.1c-0.1-0.1-0.1-0.3,0-0.4l77.1-76.9c0.1-0.1,0.3-0.1,0.4,0
					c0.1,0.1,0.1,0.3,0,0.4l-77.1,76.9C960.5,676.3,960.4,676.3,960.4,676.3z"/>
				<path class="st8" d="M956.8,675.8c-0.1,0-0.1,0-0.2-0.1c-0.1-0.1-0.1-0.3,0-0.4l77.1-76.9c0.1-0.1,0.3-0.1,0.4,0
					c0.1,0.1,0.1,0.3,0,0.4L957,675.7C957,675.8,956.9,675.8,956.8,675.8z"/>
				<path class="st8" d="M953.3,675.3c-0.1,0-0.1,0-0.2-0.1c-0.1-0.1-0.1-0.3,0-0.4l77.1-76.9c0.1-0.1,0.3-0.1,0.4,0
					c0.1,0.1,0.1,0.3,0,0.4l-77.1,76.9C953.5,675.3,953.4,675.3,953.3,675.3z"/>
				<path class="st8" d="M949.8,674.8c-0.1,0-0.1,0-0.2-0.1c-0.1-0.1-0.1-0.3,0-0.4l77.1-76.9c0.1-0.1,0.3-0.1,0.4,0
					c0.1,0.1,0.1,0.3,0,0.4L950,674.7C950,674.8,949.9,674.8,949.8,674.8z"/>
			</g>
		</g>
	</g>
	<g>
		<defs>
			<path id="SVGID_13_" d="M988.2,546.3c-15.5,0-28.1-12.6-28.1-28.1c0-15.5,12.6-28.1,28.1-28.1V546.3z"/>
		</defs>
		<clipPath id="SVGID_14_">
			<use xlink:href="#SVGID_13_"  style="overflow:visible;"/>
		</clipPath>
		<g class="st9">
			<g>
				<path class="st8" d="M1012,599c-0.1,0-0.1,0-0.2-0.1l-76.9-77.1c-0.1-0.1-0.1-0.3,0-0.4c0.1-0.1,0.3-0.1,0.4,0l76.9,77.1
					c0.1,0.1,0.1,0.3,0,0.4C1012.2,599,1012.1,599,1012,599z"/>
				<path class="st8" d="M1012.5,595.5c-0.1,0-0.1,0-0.2-0.1l-76.9-77.1c-0.1-0.1-0.1-0.3,0-0.4c0.1-0.1,0.3-0.1,0.4,0l76.9,77.1
					c0.1,0.1,0.1,0.3,0,0.4C1012.7,595.5,1012.6,595.5,1012.5,595.5z"/>
				<path class="st8" d="M1013,592c-0.1,0-0.1,0-0.2-0.1l-76.9-77.1c-0.1-0.1-0.1-0.3,0-0.4c0.1-0.1,0.3-0.1,0.4,0l76.9,77.1
					c0.1,0.1,0.1,0.3,0,0.4C1013.2,592,1013.1,592,1013,592z"/>
				<path class="st8" d="M1013.5,588.5c-0.1,0-0.1,0-0.2-0.1l-76.9-77.1c-0.1-0.1-0.1-0.3,0-0.4c0.1-0.1,0.3-0.1,0.4,0l76.9,77.1
					c0.1,0.1,0.1,0.3,0,0.4C1013.6,588.5,1013.6,588.5,1013.5,588.5z"/>
				<path class="st8" d="M1014,585c-0.1,0-0.1,0-0.2-0.1l-76.9-77.1c-0.1-0.1-0.1-0.3,0-0.4c0.1-0.1,0.3-0.1,0.4,0l76.9,77.1
					c0.1,0.1,0.1,0.3,0,0.4C1014.1,585,1014.1,585,1014,585z"/>
				<path class="st8" d="M1014.5,581.5c-0.1,0-0.1,0-0.2-0.1l-76.9-77.1c-0.1-0.1-0.1-0.3,0-0.4c0.1-0.1,0.3-0.1,0.4,0l76.9,77.1
					c0.1,0.1,0.1,0.3,0,0.4C1014.6,581.5,1014.6,581.5,1014.5,581.5z"/>
				<path class="st8" d="M1015,578c-0.1,0-0.1,0-0.2-0.1l-76.9-77.1c-0.1-0.1-0.1-0.3,0-0.4c0.1-0.1,0.3-0.1,0.4,0l76.9,77.1
					c0.1,0.1,0.1,0.3,0,0.4C1015.1,578,1015.1,578,1015,578z"/>
				<path class="st8" d="M1015.5,574.5c-0.1,0-0.1,0-0.2-0.1l-76.9-77.1c-0.1-0.1-0.1-0.3,0-0.4c0.1-0.1,0.3-0.1,0.4,0l76.9,77.1
					c0.1,0.1,0.1,0.3,0,0.4C1015.6,574.5,1015.6,574.5,1015.5,574.5z"/>
				<path class="st8" d="M1016,571c-0.1,0-0.1,0-0.2-0.1l-76.9-77.1c-0.1-0.1-0.1-0.3,0-0.4c0.1-0.1,0.3-0.1,0.4,0l76.9,77.1
					c0.1,0.1,0.1,0.3,0,0.4C1016.1,571,1016.1,571,1016,571z"/>
				<path class="st8" d="M1016.5,567.5c-0.1,0-0.1,0-0.2-0.1l-76.9-77.1c-0.1-0.1-0.1-0.3,0-0.4c0.1-0.1,0.3-0.1,0.4,0l76.9,77.1
					c0.1,0.1,0.1,0.3,0,0.4C1016.6,567.5,1016.6,567.5,1016.5,567.5z"/>
				<path class="st8" d="M1017,564c-0.1,0-0.1,0-0.2-0.1l-76.9-77.1c-0.1-0.1-0.1-0.3,0-0.4c0.1-0.1,0.3-0.1,0.4,0l76.9,77.1
					c0.1,0.1,0.1,0.3,0,0.4C1017.1,564,1017.1,564,1017,564z"/>
				<path class="st8" d="M1017.5,560.5c-0.1,0-0.1,0-0.2-0.1l-76.9-77.1c-0.1-0.1-0.1-0.3,0-0.4c0.1-0.1,0.3-0.1,0.4,0l76.9,77.1
					c0.1,0.1,0.1,0.3,0,0.4C1017.6,560.5,1017.6,560.5,1017.5,560.5z"/>
				<path class="st8" d="M1018,557c-0.1,0-0.1,0-0.2-0.1l-76.9-77.1c-0.1-0.1-0.1-0.3,0-0.4c0.1-0.1,0.3-0.1,0.4,0l76.9,77.1
					c0.1,0.1,0.1,0.3,0,0.4C1018.1,556.9,1018.1,557,1018,557z"/>
				<path class="st8" d="M1018.5,553.5c-0.1,0-0.1,0-0.2-0.1l-76.9-77.1c-0.1-0.1-0.1-0.3,0-0.4c0.1-0.1,0.3-0.1,0.4,0l76.9,77.1
					c0.1,0.1,0.1,0.3,0,0.4C1018.6,553.4,1018.6,553.5,1018.5,553.5z"/>
				<path class="st8" d="M1019,550c-0.1,0-0.1,0-0.2-0.1l-76.9-77.1c-0.1-0.1-0.1-0.3,0-0.4c0.1-0.1,0.3-0.1,0.4,0l76.9,77.1
					c0.1,0.1,0.1,0.3,0,0.4C1019.1,549.9,1019.1,550,1019,550z"/>
				<path class="st8" d="M1019.5,546.5c-0.1,0-0.1,0-0.2-0.1l-76.9-77.1c-0.1-0.1-0.1-0.3,0-0.4c0.1-0.1,0.3-0.1,0.4,0l76.9,77.1
					c0.1,0.1,0.1,0.3,0,0.4C1019.6,546.4,1019.6,546.5,1019.5,546.5z"/>
				<path class="st8" d="M1020,543c-0.1,0-0.1,0-0.2-0.1l-76.9-77.1c-0.1-0.1-0.1-0.3,0-0.4c0.1-0.1,0.3-0.1,0.4,0l76.9,77.1
					c0.1,0.1,0.1,0.3,0,0.4C1020.1,542.9,1020.1,543,1020,543z"/>
				<path class="st8" d="M1020.5,539.5c-0.1,0-0.1,0-0.2-0.1l-76.9-77.1c-0.1-0.1-0.1-0.3,0-0.4c0.1-0.1,0.3-0.1,0.4,0l76.9,77.1
					c0.1,0.1,0.1,0.3,0,0.4C1020.6,539.4,1020.5,539.5,1020.5,539.5z"/>
				<path class="st8" d="M1021,536c-0.1,0-0.1,0-0.2-0.1l-76.9-77.1c-0.1-0.1-0.1-0.3,0-0.4c0.1-0.1,0.3-0.1,0.4,0l76.9,77.1
					c0.1,0.1,0.1,0.3,0,0.4C1021.1,535.9,1021,536,1021,536z"/>
				<path class="st8" d="M1021.5,532.5c-0.1,0-0.1,0-0.2-0.1l-76.9-77.1c-0.1-0.1-0.1-0.3,0-0.4c0.1-0.1,0.3-0.1,0.4,0l76.9,77.1
					c0.1,0.1,0.1,0.3,0,0.4C1021.6,532.4,1021.5,532.5,1021.5,532.5z"/>
				<path class="st8" d="M1022,529c-0.1,0-0.1,0-0.2-0.1l-76.9-77.1c-0.1-0.1-0.1-0.3,0-0.4c0.1-0.1,0.3-0.1,0.4,0l76.9,77.1
					c0.1,0.1,0.1,0.3,0,0.4C1022.1,528.9,1022,529,1022,529z"/>
				<path class="st8" d="M1022.5,525.5c-0.1,0-0.1,0-0.2-0.1l-76.9-77.1c-0.1-0.1-0.1-0.3,0-0.4c0.1-0.1,0.3-0.1,0.4,0l76.9,77.1
					c0.1,0.1,0.1,0.3,0,0.4C1022.6,525.4,1022.5,525.5,1022.5,525.5z"/>
				<path class="st8" d="M1023,522c-0.1,0-0.1,0-0.2-0.1l-76.9-77.1c-0.1-0.1-0.1-0.3,0-0.4c0.1-0.1,0.3-0.1,0.4,0l76.9,77.1
					c0.1,0.1,0.1,0.3,0,0.4C1023.1,521.9,1023,522,1023,522z"/>
				<path class="st8" d="M1023.5,518.4c-0.1,0-0.1,0-0.2-0.1l-76.9-77.1c-0.1-0.1-0.1-0.3,0-0.4c0.1-0.1,0.3-0.1,0.4,0l76.9,77.1
					c0.1,0.1,0.1,0.3,0,0.4C1023.6,518.4,1023.5,518.4,1023.5,518.4z"/>
				<path class="st8" d="M1024,514.9c-0.1,0-0.1,0-0.2-0.1l-76.9-77.1c-0.1-0.1-0.1-0.3,0-0.4c0.1-0.1,0.3-0.1,0.4,0l76.9,77.1
					c0.1,0.1,0.1,0.3,0,0.4C1024.1,514.9,1024,514.9,1024,514.9z"/>
				<path class="st8" d="M1024.5,511.4c-0.1,0-0.1,0-0.2-0.1l-76.9-77.1c-0.1-0.1-0.1-0.3,0-0.4c0.1-0.1,0.3-0.1,0.4,0l76.9,77.1
					c0.1,0.1,0.1,0.3,0,0.4C1024.6,511.4,1024.5,511.4,1024.5,511.4z"/>
			</g>
		</g>
	</g>
	<g>
		<rect x="1021.5" y="510.5" class="st3" width="14.9" height="1"/>
		<rect x="1028.4" y="503.6" class="st3" width="1" height="14.9"/>
	</g>
	<g>
		<rect x="921.1" y="531.6" class="st3" width="14.9" height="1"/>
		<rect x="928.1" y="524.6" class="st3" width="1" height="14.9"/>
	</g>
	<g>
		<g>
			<rect x="936.4" y="650.3" class="st10" width="14.9" height="1"/>
			<rect x="943.4" y="643.4" class="st10" width="1" height="14.9"/>
		</g>
	</g>
	<g>
		<rect x="814.3" y="635.6" class="st10" width="14.9" height="1"/>
		<rect x="821.2" y="628.6" class="st10" width="1" height="14.9"/>
	</g>
	<g>
		<defs>
			<path id="SVGID_15_" d="M808.4,506.3c15.5,0,28.1,12.6,28.1,28.1s-12.6,28.1-28.1,28.1V506.3z"/>
		</defs>
		<clipPath id="SVGID_16_">
			<use xlink:href="#SVGID_15_"  style="overflow:visible;"/>
		</clipPath>
		<g class="st11">
			<g>
				<path class="st8" d="M861.4,531.2c-0.1,0-0.1,0-0.2-0.1L784.3,454c-0.1-0.1-0.1-0.3,0-0.4c0.1-0.1,0.3-0.1,0.4,0l76.9,77.1
					c0.1,0.1,0.1,0.3,0,0.4C861.5,531.2,861.5,531.2,861.4,531.2z"/>
				<path class="st8" d="M860.9,534.7c-0.1,0-0.1,0-0.2-0.1l-76.9-77.1c-0.1-0.1-0.1-0.3,0-0.4c0.1-0.1,0.3-0.1,0.4,0l76.9,77.1
					c0.1,0.1,0.1,0.3,0,0.4C861,534.7,861,534.7,860.9,534.7z"/>
				<path class="st8" d="M860.4,538.2c-0.1,0-0.1,0-0.2-0.1L783.3,461c-0.1-0.1-0.1-0.3,0-0.4c0.1-0.1,0.3-0.1,0.4,0l76.9,77.1
					c0.1,0.1,0.1,0.3,0,0.4C860.5,538.2,860.5,538.2,860.4,538.2z"/>
				<path class="st8" d="M859.9,541.7c-0.1,0-0.1,0-0.2-0.1l-76.9-77.1c-0.1-0.1-0.1-0.3,0-0.4c0.1-0.1,0.3-0.1,0.4,0l76.9,77.1
					c0.1,0.1,0.1,0.3,0,0.4C860.1,541.7,860,541.7,859.9,541.7z"/>
				<path class="st8" d="M859.4,545.2c-0.1,0-0.1,0-0.2-0.1L782.3,468c-0.1-0.1-0.1-0.3,0-0.4c0.1-0.1,0.3-0.1,0.4,0l76.9,77.1
					c0.1,0.1,0.1,0.3,0,0.4C859.6,545.2,859.5,545.2,859.4,545.2z"/>
				<path class="st8" d="M858.9,548.7c-0.1,0-0.1,0-0.2-0.1l-76.9-77.1c-0.1-0.1-0.1-0.3,0-0.4c0.1-0.1,0.3-0.1,0.4,0l76.9,77.1
					c0.1,0.1,0.1,0.3,0,0.4C859.1,548.7,859,548.7,858.9,548.7z"/>
				<path class="st8" d="M858.4,552.2c-0.1,0-0.1,0-0.2-0.1l-76.9-77.1c-0.1-0.1-0.1-0.3,0-0.4c0.1-0.1,0.3-0.1,0.4,0l76.9,77.1
					c0.1,0.1,0.1,0.3,0,0.4C858.6,552.2,858.5,552.2,858.4,552.2z"/>
				<path class="st8" d="M857.9,555.7c-0.1,0-0.1,0-0.2-0.1l-76.9-77.1c-0.1-0.1-0.1-0.3,0-0.4c0.1-0.1,0.3-0.1,0.4,0l76.9,77.1
					c0.1,0.1,0.1,0.3,0,0.4C858.1,555.7,858,555.7,857.9,555.7z"/>
				<path class="st8" d="M857.4,559.2c-0.1,0-0.1,0-0.2-0.1l-76.9-77.1c-0.1-0.1-0.1-0.3,0-0.4c0.1-0.1,0.3-0.1,0.4,0l76.9,77.1
					c0.1,0.1,0.1,0.3,0,0.4C857.6,559.2,857.5,559.2,857.4,559.2z"/>
				<path class="st8" d="M856.9,562.7c-0.1,0-0.1,0-0.2-0.1l-76.9-77.1c-0.1-0.1-0.1-0.3,0-0.4c0.1-0.1,0.3-0.1,0.4,0l76.9,77.1
					c0.1,0.1,0.1,0.3,0,0.4C857.1,562.7,857,562.7,856.9,562.7z"/>
				<path class="st8" d="M856.4,566.2c-0.1,0-0.1,0-0.2-0.1l-76.9-77.1c-0.1-0.1-0.1-0.3,0-0.4c0.1-0.1,0.3-0.1,0.4,0l76.9,77.1
					c0.1,0.1,0.1,0.3,0,0.4C856.6,566.2,856.5,566.2,856.4,566.2z"/>
				<path class="st8" d="M855.9,569.7c-0.1,0-0.1,0-0.2-0.1l-76.9-77.1c-0.1-0.1-0.1-0.3,0-0.4c0.1-0.1,0.3-0.1,0.4,0l76.9,77.1
					c0.1,0.1,0.1,0.3,0,0.4C856.1,569.7,856,569.7,855.9,569.7z"/>
				<path class="st8" d="M855.4,573.2c-0.1,0-0.1,0-0.2-0.1l-76.9-77.1c-0.1-0.1-0.1-0.3,0-0.4c0.1-0.1,0.3-0.1,0.4,0l76.9,77.1
					c0.1,0.1,0.1,0.3,0,0.4C855.6,573.2,855.5,573.2,855.4,573.2z"/>
				<path class="st8" d="M854.9,576.7c-0.1,0-0.1,0-0.2-0.1l-76.9-77.1c-0.1-0.1-0.1-0.3,0-0.4c0.1-0.1,0.3-0.1,0.4,0l76.9,77.1
					c0.1,0.1,0.1,0.3,0,0.4C855.1,576.7,855,576.7,854.9,576.7z"/>
				<path class="st8" d="M854.5,580.2c-0.1,0-0.1,0-0.2-0.1l-76.9-77.1c-0.1-0.1-0.1-0.3,0-0.4c0.1-0.1,0.3-0.1,0.4,0l76.9,77.1
					c0.1,0.1,0.1,0.3,0,0.4C854.6,580.2,854.5,580.2,854.5,580.2z"/>
				<path class="st8" d="M854,583.7c-0.1,0-0.1,0-0.2-0.1l-76.9-77.1c-0.1-0.1-0.1-0.3,0-0.4c0.1-0.1,0.3-0.1,0.4,0l76.9,77.1
					c0.1,0.1,0.1,0.3,0,0.4C854.1,583.7,854,583.7,854,583.7z"/>
				<path class="st8" d="M853.5,587.2c-0.1,0-0.1,0-0.2-0.1l-76.9-77.1c-0.1-0.1-0.1-0.3,0-0.4c0.1-0.1,0.3-0.1,0.4,0l76.9,77.1
					c0.1,0.1,0.1,0.3,0,0.4C853.6,587.2,853.5,587.2,853.5,587.2z"/>
				<path class="st8" d="M853,590.7c-0.1,0-0.1,0-0.2-0.1l-76.9-77.1c-0.1-0.1-0.1-0.3,0-0.4c0.1-0.1,0.3-0.1,0.4,0l76.9,77.1
					c0.1,0.1,0.1,0.3,0,0.4C853.1,590.7,853,590.7,853,590.7z"/>
				<path class="st8" d="M852.5,594.2c-0.1,0-0.1,0-0.2-0.1l-76.9-77.1c-0.1-0.1-0.1-0.3,0-0.4c0.1-0.1,0.3-0.1,0.4,0l76.9,77.1
					c0.1,0.1,0.1,0.3,0,0.4C852.6,594.2,852.5,594.2,852.5,594.2z"/>
				<path class="st8" d="M852,597.7c-0.1,0-0.1,0-0.2-0.1l-76.9-77.1c-0.1-0.1-0.1-0.3,0-0.4c0.1-0.1,0.3-0.1,0.4,0l76.9,77.1
					c0.1,0.1,0.1,0.3,0,0.4C852.1,597.7,852,597.7,852,597.7z"/>
				<path class="st8" d="M851.5,601.2c-0.1,0-0.1,0-0.2-0.1l-76.9-77.1c-0.1-0.1-0.1-0.3,0-0.4c0.1-0.1,0.3-0.1,0.4,0l76.9,77.1
					c0.1,0.1,0.1,0.3,0,0.4C851.6,601.2,851.5,601.2,851.5,601.2z"/>
				<path class="st8" d="M851,604.7c-0.1,0-0.1,0-0.2-0.1l-76.9-77.1c-0.1-0.1-0.1-0.3,0-0.4c0.1-0.1,0.3-0.1,0.4,0l76.9,77.1
					c0.1,0.1,0.1,0.3,0,0.4C851.1,604.7,851,604.7,851,604.7z"/>
				<path class="st8" d="M850.5,608.2c-0.1,0-0.1,0-0.2-0.1l-76.9-77.1c-0.1-0.1-0.1-0.3,0-0.4c0.1-0.1,0.3-0.1,0.4,0l76.9,77.1
					c0.1,0.1,0.1,0.3,0,0.4C850.6,608.2,850.5,608.2,850.5,608.2z"/>
				<path class="st8" d="M850,611.7c-0.1,0-0.1,0-0.2-0.1l-76.9-77.1c-0.1-0.1-0.1-0.3,0-0.4c0.1-0.1,0.3-0.1,0.4,0l76.9,77.1
					c0.1,0.1,0.1,0.3,0,0.4C850.1,611.7,850,611.7,850,611.7z"/>
				<path class="st8" d="M849.5,615.2c-0.1,0-0.1,0-0.2-0.1l-76.9-77.1c-0.1-0.1-0.1-0.3,0-0.4c0.1-0.1,0.3-0.1,0.4,0l76.9,77.1
					c0.1,0.1,0.1,0.3,0,0.4C849.6,615.2,849.5,615.2,849.5,615.2z"/>
				<path class="st8" d="M849,618.7c-0.1,0-0.1,0-0.2-0.1l-76.9-77.1c-0.1-0.1-0.1-0.3,0-0.4c0.1-0.1,0.3-0.1,0.4,0l76.9,77.1
					c0.1,0.1,0.1,0.3,0,0.4C849.1,618.7,849,618.7,849,618.7z"/>
			</g>
		</g>
	</g>
</g>
<g>
	<g>
		
			<image style="overflow:visible;opacity:0.2;" width="1176" height="727" xlink:href="E573B8E1.png"  transform="matrix(1 0 0 1 -168 -212)">
		</image>
		<g>
			<g>
				<g>
					<g>
						<defs>
							<path id="SVGID_17_" d="M750,51.2c0-26-22-47.1-49.1-47.1H49.1C22,4.1,0,25.2,0,51.2V500h750V51.2z"/>
						</defs>
						<clipPath id="SVGID_18_">
							<use xlink:href="#SVGID_17_"  style="overflow:visible;"/>
						</clipPath>
					</g>
				</g>
			</g>
			<g>
				<linearGradient id="SVGID_19_" gradientUnits="userSpaceOnUse" x1="700.3473" y1="-41.1609" x2="-235.7594" y2="841.79">
					<stop  offset="8.080040e-02" style="stop-color:#F640FF"/>
					<stop  offset="0.6017" style="stop-color:#FF8856"/>
				</linearGradient>
				<path class="st12" d="M750,51.2c0-26-22-47.1-49.1-47.1H49.1C22,4.1,0,25.2,0,51.2V500h750V51.2z"/>
				<g>
					<g>
						<defs>
							<path id="SVGID_20_" d="M750,51.2c0-26-22-47.1-49.1-47.1H49.1C22,4.1,0,25.2,0,51.2V500h750V51.2z"/>
						</defs>
						<clipPath id="SVGID_21_">
							<use xlink:href="#SVGID_20_"  style="overflow:visible;"/>
						</clipPath>
						<g class="st13">
							<g>
								<line class="st2" x1="895.5" y1="-40.8" x2="653.9" y2="191.2"/>
								<path class="st3" d="M653.9,217.9c-7.1,0-14.2-2.6-19.6-7.8c-10.9-10.4-10.9-27.3,0-37.7L875.9-59.7
									c10.8-10.4,28.4-10.4,39.3,0c10.9,10.4,10.9,27.3,0,37.7L673.5,210.1C668.1,215.3,661,217.9,653.9,217.9z"/>
							</g>
							<g>
								<line class="st2" x1="666" y1="302.9" x2="650.4" y2="317.8"/>
								<path class="st3" d="M650.4,324.5c-1.8,0-3.6-0.6-4.9-2c-2.7-2.6-2.7-6.8,0-9.4l15.6-15c2.7-2.6,7.1-2.6,9.8,0
									c2.7,2.6,2.7,6.8,0,9.4l-15.6,15C653.9,323.8,652.1,324.5,650.4,324.5z"/>
							</g>
							<g>
								<line class="st2" x1="985.5" y1="-4" x2="690.2" y2="279.6"/>
								<path class="st3" d="M690.2,286.3c-1.8,0-3.6-0.6-4.9-2c-2.7-2.6-2.7-6.8,0-9.4L980.6-8.7c2.7-2.6,7.1-2.6,9.8,0
									c2.7,2.6,2.7,6.8,0,9.4L695.1,284.3C693.7,285.6,692,286.3,690.2,286.3z"/>
							</g>
						</g>
						<g class="st13">
							<g>
								<line class="st2" x1="174.2" y1="117.2" x2="189.8" y2="132.2"/>
								<path class="st3" d="M189.8,138.9c-1.8,0-3.6-0.6-4.9-2l-15.6-15c-2.7-2.6-2.7-6.8,0-9.4c2.7-2.6,7.1-2.6,9.8,0l15.6,15
									c2.7,2.6,2.7,6.8,0,9.4C193.3,138.2,191.5,138.9,189.8,138.9z"/>
							</g>
							<g>
								<line class="st2" x1="-145.6" y1="-189.5" x2="149.9" y2="94"/>
								<path class="st3" d="M149.9,100.7c-1.8,0-3.6-0.6-4.9-2l-295.5-283.5c-2.7-2.6-2.7-6.8,0-9.4c2.7-2.6,7.1-2.6,9.8,0
									L154.8,89.3c2.7,2.6,2.7,6.8,0,9.4C153.5,100,151.7,100.7,149.9,100.7z"/>
							</g>
						</g>
					</g>
				</g>
			</g>
			<g>
				<g>
					<g>
						<defs>
							<path id="SVGID_22_" d="M750,51.2c0-26-22-47.1-49.1-47.1H49.1C22,4.1,0,25.2,0,51.2V500h750V51.2z"/>
						</defs>
						<clipPath id="SVGID_23_">
							<use xlink:href="#SVGID_22_"  style="overflow:visible;"/>
						</clipPath>
					</g>
				</g>
			</g>
		</g>
	</g>
	<linearGradient id="SVGID_24_" gradientUnits="userSpaceOnUse" x1="692.1904" y1="501.0814" x2="398.9551" y2="207.8462">
		<stop  offset="0.1978" style="stop-color:#4D1DA8"/>
		<stop  offset="0.3235" style="stop-color:#5720BE"/>
		<stop  offset="0.4611" style="stop-color:#5E23CE"/>
		<stop  offset="0.6156" style="stop-color:#6225D8"/>
		<stop  offset="0.8208" style="stop-color:#6325DB"/>
	</linearGradient>
	<ellipse class="st14" cx="532.9" cy="341.8" rx="94.8" ry="91"/>
	<linearGradient id="SVGID_25_" gradientUnits="userSpaceOnUse" x1="516.5662" y1="127.0173" x2="316.8748" y2="-72.6741">
		<stop  offset="0.1978" style="stop-color:#4D1DA8"/>
		<stop  offset="0.3235" style="stop-color:#5720BE"/>
		<stop  offset="0.4611" style="stop-color:#5E23CE"/>
		<stop  offset="0.6156" style="stop-color:#6225D8"/>
		<stop  offset="0.8208" style="stop-color:#6325DB"/>
	</linearGradient>
	<path class="st15" d="M355.1,55c29.3,28.1,76.8,28.1,106.1,0c14.6-14.1,22-32.5,22-50.9h-150C333.1,22.5,340.4,40.9,355.1,55z"/>
	<linearGradient id="SVGID_26_" gradientUnits="userSpaceOnUse" x1="38.0872" y1="552.7444" x2="282.1786" y2="385.3674">
		<stop  offset="0.1978" style="stop-color:#4D1DA8"/>
		<stop  offset="0.3235" style="stop-color:#5720BE"/>
		<stop  offset="0.4611" style="stop-color:#5E23CE"/>
		<stop  offset="0.6156" style="stop-color:#6225D8"/>
		<stop  offset="0.8208" style="stop-color:#6325DB"/>
	</linearGradient>
	<path class="st16" d="M194,449.8c-28.9-27.7-75.7-27.7-104.6,0c-14.4,13.9-21.7,32-21.7,50.2h147.9
		C215.6,481.8,208.4,463.7,194,449.8z"/>
	<g>
		<defs>
			<path id="SVGID_27_" d="M704.6,403.8c0,41.4-34.9,74.9-78,74.9c-43.1,0-78-33.5-78-74.9H704.6z"/>
		</defs>
		<clipPath id="SVGID_28_">
			<use xlink:href="#SVGID_27_"  style="overflow:visible;"/>
		</clipPath>
		<g class="st17">
			<g>
				<path class="st8" d="M636.3,546c-0.2,0-0.4-0.1-0.5-0.2c-0.3-0.3-0.3-0.7,0-0.9l214.1-205.1c0.3-0.3,0.7-0.3,1,0
					c0.3,0.3,0.3,0.7,0,0.9L636.8,545.8C636.6,545.9,636.4,546,636.3,546z"/>
				<path class="st8" d="M626.5,544.7c-0.2,0-0.4-0.1-0.5-0.2c-0.3-0.3-0.3-0.7,0-0.9l214.1-205.1c0.3-0.3,0.7-0.3,1,0
					c0.3,0.3,0.3,0.7,0,0.9L627,544.5C626.9,544.6,626.7,544.7,626.5,544.7z"/>
				<path class="st8" d="M616.8,543.3c-0.2,0-0.4-0.1-0.5-0.2c-0.3-0.3-0.3-0.7,0-0.9l214.1-205.1c0.3-0.3,0.7-0.3,1,0
					c0.3,0.3,0.3,0.7,0,0.9L617.3,543.1C617.2,543.3,617,543.3,616.8,543.3z"/>
				<path class="st8" d="M607.1,542c-0.2,0-0.4-0.1-0.5-0.2c-0.3-0.3-0.3-0.7,0-0.9l214.1-205.1c0.3-0.3,0.7-0.3,1,0
					c0.3,0.3,0.3,0.7,0,0.9L607.6,541.8C607.4,541.9,607.3,542,607.1,542z"/>
				<path class="st8" d="M597.3,540.7c-0.2,0-0.4-0.1-0.5-0.2c-0.3-0.3-0.3-0.7,0-0.9l214.1-205.1c0.3-0.3,0.7-0.3,1,0
					c0.3,0.3,0.3,0.7,0,0.9L597.8,540.5C597.7,540.6,597.5,540.7,597.3,540.7z"/>
				<path class="st8" d="M587.6,539.4c-0.2,0-0.4-0.1-0.5-0.2c-0.3-0.3-0.3-0.7,0-0.9l214.1-205.1c0.3-0.3,0.7-0.3,1,0
					c0.3,0.3,0.3,0.7,0,0.9L588.1,539.2C588,539.3,587.8,539.4,587.6,539.4z"/>
				<path class="st8" d="M577.9,538c-0.2,0-0.4-0.1-0.5-0.2c-0.3-0.3-0.3-0.7,0-0.9l214.1-205.1c0.3-0.3,0.7-0.3,1,0
					c0.3,0.3,0.3,0.7,0,0.9L578.4,537.8C578.2,538,578.1,538,577.9,538z"/>
				<path class="st8" d="M568.2,536.7c-0.2,0-0.4-0.1-0.5-0.2c-0.3-0.3-0.3-0.7,0-0.9l214.1-205.1c0.3-0.3,0.7-0.3,1,0
					c0.3,0.3,0.3,0.7,0,0.9L568.6,536.5C568.5,536.6,568.3,536.7,568.2,536.7z"/>
				<path class="st8" d="M558.4,535.4c-0.2,0-0.4-0.1-0.5-0.2c-0.3-0.3-0.3-0.7,0-0.9L772,329.2c0.3-0.3,0.7-0.3,1,0
					c0.3,0.3,0.3,0.7,0,0.9L558.9,535.2C558.8,535.3,558.6,535.4,558.4,535.4z"/>
				<path class="st8" d="M548.7,534c-0.2,0-0.4-0.1-0.5-0.2c-0.3-0.3-0.3-0.7,0-0.9l214.1-205.1c0.3-0.3,0.7-0.3,1,0
					c0.3,0.3,0.3,0.7,0,0.9L549.2,533.9C549.1,534,548.9,534,548.7,534z"/>
				<path class="st8" d="M539,532.7c-0.2,0-0.4-0.1-0.5-0.2c-0.3-0.3-0.3-0.7,0-0.9l214.1-205.1c0.3-0.3,0.7-0.3,1,0
					c0.3,0.3,0.3,0.7,0,0.9L539.5,532.5C539.3,532.7,539.1,532.7,539,532.7z"/>
				<path class="st8" d="M529.2,531.4c-0.2,0-0.4-0.1-0.5-0.2c-0.3-0.3-0.3-0.7,0-0.9l214.1-205.1c0.3-0.3,0.7-0.3,1,0
					c0.3,0.3,0.3,0.7,0,0.9L529.7,531.2C529.6,531.3,529.4,531.4,529.2,531.4z"/>
				<path class="st8" d="M519.5,530.1c-0.2,0-0.4-0.1-0.5-0.2c-0.3-0.3-0.3-0.7,0-0.9l214.1-205.1c0.3-0.3,0.7-0.3,1,0
					c0.3,0.3,0.3,0.7,0,0.9L520,529.9C519.9,530,519.7,530.1,519.5,530.1z"/>
				<path class="st8" d="M509.8,528.7c-0.2,0-0.4-0.1-0.5-0.2c-0.3-0.3-0.3-0.7,0-0.9l214.1-205.1c0.3-0.3,0.7-0.3,1,0
					c0.3,0.3,0.3,0.7,0,0.9L510.3,528.5C510.1,528.7,510,528.7,509.8,528.7z"/>
				<path class="st8" d="M500.1,527.4c-0.2,0-0.4-0.1-0.5-0.2c-0.3-0.3-0.3-0.7,0-0.9l214.1-205.1c0.3-0.3,0.7-0.3,1,0
					c0.3,0.3,0.3,0.7,0,0.9L500.5,527.2C500.4,527.3,500.2,527.4,500.1,527.4z"/>
				<path class="st8" d="M490.3,526.1c-0.2,0-0.4-0.1-0.5-0.2c-0.3-0.3-0.3-0.7,0-0.9l214.1-205.1c0.3-0.3,0.7-0.3,1,0
					c0.3,0.3,0.3,0.7,0,0.9L490.8,525.9C490.7,526,490.5,526.1,490.3,526.1z"/>
				<path class="st8" d="M480.6,524.8c-0.2,0-0.4-0.1-0.5-0.2c-0.3-0.3-0.3-0.7,0-0.9l214.1-205.1c0.3-0.3,0.7-0.3,1,0
					c0.3,0.3,0.3,0.7,0,0.9L481.1,524.6C481,524.7,480.8,524.8,480.6,524.8z"/>
				<path class="st8" d="M470.9,523.4c-0.2,0-0.4-0.1-0.5-0.2c-0.3-0.3-0.3-0.7,0-0.9l214.1-205.1c0.3-0.3,0.7-0.3,1,0
					c0.3,0.3,0.3,0.7,0,0.9L471.4,523.2C471.2,523.4,471,523.4,470.9,523.4z"/>
				<path class="st8" d="M461.1,522.1c-0.2,0-0.4-0.1-0.5-0.2c-0.3-0.3-0.3-0.7,0-0.9l214.1-205.1c0.3-0.3,0.7-0.3,1,0
					c0.3,0.3,0.3,0.7,0,0.9L461.6,521.9C461.5,522,461.3,522.1,461.1,522.1z"/>
				<path class="st8" d="M451.4,520.8c-0.2,0-0.4-0.1-0.5-0.2c-0.3-0.3-0.3-0.7,0-0.9L665,314.6c0.3-0.3,0.7-0.3,1,0
					c0.3,0.3,0.3,0.7,0,0.9L451.9,520.6C451.8,520.7,451.6,520.8,451.4,520.8z"/>
				<path class="st8" d="M441.7,519.5c-0.2,0-0.4-0.1-0.5-0.2c-0.3-0.3-0.3-0.7,0-0.9l214.1-205.1c0.3-0.3,0.7-0.3,1,0
					c0.3,0.3,0.3,0.7,0,0.9L442.2,519.3C442,519.4,441.9,519.5,441.7,519.5z"/>
				<path class="st8" d="M432,518.1c-0.2,0-0.4-0.1-0.5-0.2c-0.3-0.3-0.3-0.7,0-0.9l214.1-205.1c0.3-0.3,0.7-0.3,1,0
					c0.3,0.3,0.3,0.7,0,0.9L432.4,517.9C432.3,518.1,432.1,518.1,432,518.1z"/>
				<path class="st8" d="M422.2,516.8c-0.2,0-0.4-0.1-0.5-0.2c-0.3-0.3-0.3-0.7,0-0.9l214.1-205.1c0.3-0.3,0.7-0.3,1,0
					c0.3,0.3,0.3,0.7,0,0.9L422.7,516.6C422.6,516.7,422.4,516.8,422.2,516.8z"/>
				<path class="st8" d="M412.5,515.5c-0.2,0-0.4-0.1-0.5-0.2c-0.3-0.3-0.3-0.7,0-0.9l214.1-205.1c0.3-0.3,0.7-0.3,1,0
					c0.3,0.3,0.3,0.7,0,0.9L413,515.3C412.9,515.4,412.7,515.5,412.5,515.5z"/>
				<path class="st8" d="M402.8,514.1c-0.2,0-0.4-0.1-0.5-0.2c-0.3-0.3-0.3-0.7,0-0.9l214.1-205.1c0.3-0.3,0.7-0.3,1,0
					c0.3,0.3,0.3,0.7,0,0.9L403.3,514C403.1,514.1,402.9,514.1,402.8,514.1z"/>
				<path class="st8" d="M393,512.8c-0.2,0-0.4-0.1-0.5-0.2c-0.3-0.3-0.3-0.7,0-0.9l214.1-205.1c0.3-0.3,0.7-0.3,1,0
					c0.3,0.3,0.3,0.7,0,0.9L393.5,512.6C393.4,512.8,393.2,512.8,393,512.8z"/>
			</g>
		</g>
	</g>
	<g>
		<defs>
			<path id="SVGID_29_" d="M499.5,170.2c-43.1,0-78-33.5-78-74.9c0-41.4,34.9-74.9,78-74.9V170.2z"/>
		</defs>
		<clipPath id="SVGID_30_">
			<use xlink:href="#SVGID_29_"  style="overflow:visible;"/>
		</clipPath>
		<g class="st18">
			<g>
				<path class="st8" d="M565.8,310.7c-0.2,0-0.4-0.1-0.5-0.2L351.6,105c-0.3-0.3-0.3-0.7,0-0.9c0.3-0.3,0.7-0.3,1,0l213.6,205.5
					c0.3,0.3,0.3,0.7,0,0.9C566.1,310.6,566,310.7,565.8,310.7z"/>
				<path class="st8" d="M567.2,301.4c-0.2,0-0.4-0.1-0.5-0.2L353,95.7c-0.3-0.3-0.3-0.7,0-0.9c0.3-0.3,0.7-0.3,1,0l213.6,205.5
					c0.3,0.3,0.3,0.7,0,0.9C567.5,301.3,567.3,301.4,567.2,301.4z"/>
				<path class="st8" d="M568.5,292c-0.2,0-0.4-0.1-0.5-0.2L354.4,86.3c-0.3-0.3-0.3-0.7,0-0.9c0.3-0.3,0.7-0.3,1,0L569,290.9
					c0.3,0.3,0.3,0.7,0,0.9C568.9,292,568.7,292,568.5,292z"/>
				<path class="st8" d="M569.9,282.7c-0.2,0-0.4-0.1-0.5-0.2L355.8,77c-0.3-0.3-0.3-0.7,0-0.9c0.3-0.3,0.7-0.3,1,0l213.6,205.5
					c0.3,0.3,0.3,0.7,0,0.9C570.3,282.6,570.1,282.7,569.9,282.7z"/>
				<path class="st8" d="M571.3,273.4c-0.2,0-0.4-0.1-0.5-0.2L357.2,67.7c-0.3-0.3-0.3-0.7,0-0.9c0.3-0.3,0.7-0.3,1,0l213.6,205.5
					c0.3,0.3,0.3,0.7,0,0.9C571.7,273.3,571.5,273.4,571.3,273.4z"/>
				<path class="st8" d="M572.7,264c-0.2,0-0.4-0.1-0.5-0.2L358.6,58.3c-0.3-0.3-0.3-0.7,0-0.9c0.3-0.3,0.7-0.3,1,0l213.6,205.5
					c0.3,0.3,0.3,0.7,0,0.9C573,264,572.9,264,572.7,264z"/>
				<path class="st8" d="M574.1,254.7c-0.2,0-0.4-0.1-0.5-0.2L359.9,49c-0.3-0.3-0.3-0.7,0-0.9c0.3-0.3,0.7-0.3,1,0l213.6,205.5
					c0.3,0.3,0.3,0.7,0,0.9C574.4,254.6,574.2,254.7,574.1,254.7z"/>
				<path class="st8" d="M575.5,245.3c-0.2,0-0.4-0.1-0.5-0.2L361.3,39.6c-0.3-0.3-0.3-0.7,0-0.9c0.3-0.3,0.7-0.3,1,0l213.6,205.5
					c0.3,0.3,0.3,0.7,0,0.9C575.8,245.3,575.6,245.3,575.5,245.3z"/>
				<path class="st8" d="M576.8,236c-0.2,0-0.4-0.1-0.5-0.2L362.7,30.3c-0.3-0.3-0.3-0.7,0-0.9c0.3-0.3,0.7-0.3,1,0l213.6,205.5
					c0.3,0.3,0.3,0.7,0,0.9C577.2,235.9,577,236,576.8,236z"/>
				<path class="st8" d="M578.2,226.7c-0.2,0-0.4-0.1-0.5-0.2L364.1,21c-0.3-0.3-0.3-0.7,0-0.9c0.3-0.3,0.7-0.3,1,0l213.6,205.5
					c0.3,0.3,0.3,0.7,0,0.9C578.6,226.6,578.4,226.7,578.2,226.7z"/>
				<path class="st8" d="M579.6,217.3c-0.2,0-0.4-0.1-0.5-0.2L365.5,11.6c-0.3-0.3-0.3-0.7,0-0.9c0.3-0.3,0.7-0.3,1,0l213.6,205.5
					c0.3,0.3,0.3,0.7,0,0.9C580,217.3,579.8,217.3,579.6,217.3z"/>
				<path class="st8" d="M581,208c-0.2,0-0.4-0.1-0.5-0.2L366.9,2.3c-0.3-0.3-0.3-0.7,0-0.9c0.3-0.3,0.7-0.3,1,0l213.6,205.5
					c0.3,0.3,0.3,0.7,0,0.9C581.3,207.9,581.2,208,581,208z"/>
				<path class="st8" d="M582.4,198.6c-0.2,0-0.4-0.1-0.5-0.2L368.2-7c-0.3-0.3-0.3-0.7,0-0.9c0.3-0.3,0.7-0.3,1,0l213.6,205.5
					c0.3,0.3,0.3,0.7,0,0.9C582.7,198.6,582.5,198.6,582.4,198.6z"/>
				<path class="st8" d="M583.7,189.3c-0.2,0-0.4-0.1-0.5-0.2L369.6-16.4c-0.3-0.3-0.3-0.7,0-0.9c0.3-0.3,0.7-0.3,1,0l213.6,205.5
					c0.3,0.3,0.3,0.7,0,0.9C584.1,189.2,583.9,189.3,583.7,189.3z"/>
				<path class="st8" d="M585.1,180c-0.2,0-0.4-0.1-0.5-0.2L371-25.7c-0.3-0.3-0.3-0.7,0-0.9c0.3-0.3,0.7-0.3,1,0l213.6,205.5
					c0.3,0.3,0.3,0.7,0,0.9C585.5,179.9,585.3,180,585.1,180z"/>
				<path class="st8" d="M586.5,170.6c-0.2,0-0.4-0.1-0.5-0.2L372.4-35.1c-0.3-0.3-0.3-0.7,0-0.9c0.3-0.3,0.7-0.3,1,0L587,169.5
					c0.3,0.3,0.3,0.7,0,0.9C586.9,170.6,586.7,170.6,586.5,170.6z"/>
				<path class="st8" d="M587.9,161.3c-0.2,0-0.4-0.1-0.5-0.2L373.8-44.4c-0.3-0.3-0.3-0.7,0-0.9c0.3-0.3,0.7-0.3,1,0l213.6,205.5
					c0.3,0.3,0.3,0.7,0,0.9C588.2,161.2,588.1,161.3,587.9,161.3z"/>
				<path class="st8" d="M589.3,152c-0.2,0-0.4-0.1-0.5-0.2L375.1-53.7c-0.3-0.3-0.3-0.7,0-0.9c0.3-0.3,0.7-0.3,1,0l213.6,205.5
					c0.3,0.3,0.3,0.7,0,0.9C589.6,151.9,589.5,152,589.3,152z"/>
				<path class="st8" d="M590.7,142.6c-0.2,0-0.4-0.1-0.5-0.2L376.5-63.1c-0.3-0.3-0.3-0.7,0-0.9c0.3-0.3,0.7-0.3,1,0l213.6,205.5
					c0.3,0.3,0.3,0.7,0,0.9C591,142.6,590.8,142.6,590.7,142.6z"/>
				<path class="st8" d="M592,133.3c-0.2,0-0.4-0.1-0.5-0.2L377.9-72.4c-0.3-0.3-0.3-0.7,0-0.9c0.3-0.3,0.7-0.3,1,0l213.6,205.5
					c0.3,0.3,0.3,0.7,0,0.9C592.4,133.2,592.2,133.3,592,133.3z"/>
				<path class="st8" d="M593.4,123.9c-0.2,0-0.4-0.1-0.5-0.2L379.3-81.7c-0.3-0.3-0.3-0.7,0-0.9c0.3-0.3,0.7-0.3,1,0l213.6,205.5
					c0.3,0.3,0.3,0.7,0,0.9C593.8,123.9,593.6,123.9,593.4,123.9z"/>
				<path class="st8" d="M594.8,114.6c-0.2,0-0.4-0.1-0.5-0.2L380.7-91.1c-0.3-0.3-0.3-0.7,0-0.9c0.3-0.3,0.7-0.3,1,0l213.6,205.5
					c0.3,0.3,0.3,0.7,0,0.9C595.2,114.5,595,114.6,594.8,114.6z"/>
				<path class="st8" d="M596.2,105.3c-0.2,0-0.4-0.1-0.5-0.2L382.1-100.4c-0.3-0.3-0.3-0.7,0-0.9c0.3-0.3,0.7-0.3,1,0l213.6,205.5
					c0.3,0.3,0.3,0.7,0,0.9C596.5,105.2,596.4,105.3,596.2,105.3z"/>
				<path class="st8" d="M597.6,95.9c-0.2,0-0.4-0.1-0.5-0.2L383.4-109.8c-0.3-0.3-0.3-0.7,0-0.9c0.3-0.3,0.7-0.3,1,0L598.1,94.8
					c0.3,0.3,0.3,0.7,0,0.9C597.9,95.9,597.7,95.9,597.6,95.9z"/>
				<path class="st8" d="M598.9,86.6c-0.2,0-0.4-0.1-0.5-0.2L384.8-119.1c-0.3-0.3-0.3-0.7,0-0.9c0.3-0.3,0.7-0.3,1,0L599.4,85.5
					c0.3,0.3,0.3,0.7,0,0.9C599.3,86.5,599.1,86.6,598.9,86.6z"/>
				<path class="st8" d="M600.3,77.3c-0.2,0-0.4-0.1-0.5-0.2L386.2-128.4c-0.3-0.3-0.3-0.7,0-0.9c0.3-0.3,0.7-0.3,1,0L600.8,76.1
					c0.3,0.3,0.3,0.7,0,0.9C600.7,77.2,600.5,77.3,600.3,77.3z"/>
			</g>
		</g>
	</g>
	<g>
		<rect x="592.1" y="74.8" class="st3" width="41.3" height="2.7"/>
		<rect x="611.3" y="56.3" class="st3" width="2.8" height="39.6"/>
	</g>
	<g>
		<rect x="313.3" y="130.9" class="st3" width="41.3" height="2.7"/>
		<rect x="332.6" y="112.4" class="st3" width="2.8" height="39.6"/>
	</g>
	<g>
		<g>
			<rect x="355.8" y="447.5" class="st10" width="41.3" height="2.7"/>
			<rect x="375" y="429" class="st10" width="2.8" height="39.6"/>
		</g>
	</g>
	<g>
		<rect x="16.4" y="408.2" class="st10" width="41.3" height="2.7"/>
		<rect x="35.7" y="389.7" class="st10" width="2.8" height="39.6"/>
	</g>
	<g>
		<defs>
			<path id="SVGID_31_" d="M0,63.6c43.1,0,78,33.5,78,74.9s-34.9,74.9-78,74.9V63.6z"/>
		</defs>
		<clipPath id="SVGID_32_">
			<use xlink:href="#SVGID_31_"  style="overflow:visible;"/>
		</clipPath>
		<g class="st19">
			<g>
				<path class="st8" d="M147.4,129.9c-0.2,0-0.4-0.1-0.5-0.2L-66.7-75.8c-0.3-0.3-0.3-0.7,0-0.9c0.3-0.3,0.7-0.3,1,0l213.6,205.5
					c0.3,0.3,0.3,0.7,0,0.9C147.8,129.8,147.6,129.9,147.4,129.9z"/>
				<path class="st8" d="M146,139.2c-0.2,0-0.4-0.1-0.5-0.2L-68.1-66.5c-0.3-0.3-0.3-0.7,0-0.9c0.3-0.3,0.7-0.3,1,0l213.6,205.5
					c0.3,0.3,0.3,0.7,0,0.9C146.4,139.2,146.2,139.2,146,139.2z"/>
				<path class="st8" d="M144.6,148.6c-0.2,0-0.4-0.1-0.5-0.2L-69.5-57.1c-0.3-0.3-0.3-0.7,0-0.9c0.3-0.3,0.7-0.3,1,0l213.6,205.5
					c0.3,0.3,0.3,0.7,0,0.9C145,148.5,144.8,148.6,144.6,148.6z"/>
				<path class="st8" d="M143.3,157.9c-0.2,0-0.4-0.1-0.5-0.2L-70.9-47.8c-0.3-0.3-0.3-0.7,0-0.9c0.3-0.3,0.7-0.3,1,0l213.6,205.5
					c0.3,0.3,0.3,0.7,0,0.9C143.6,157.8,143.4,157.9,143.3,157.9z"/>
				<path class="st8" d="M141.9,167.2c-0.2,0-0.4-0.1-0.5-0.2L-72.3-38.5c-0.3-0.3-0.3-0.7,0-0.9c0.3-0.3,0.7-0.3,1,0l213.6,205.5
					c0.3,0.3,0.3,0.7,0,0.9C142.2,167.2,142.1,167.2,141.9,167.2z"/>
				<path class="st8" d="M140.5,176.6c-0.2,0-0.4-0.1-0.5-0.2L-73.6-29.1c-0.3-0.3-0.3-0.7,0-0.9c0.3-0.3,0.7-0.3,1,0L141,175.4
					c0.3,0.3,0.3,0.7,0,0.9C140.8,176.5,140.7,176.6,140.5,176.6z"/>
				<path class="st8" d="M139.1,185.9c-0.2,0-0.4-0.1-0.5-0.2L-75-19.8c-0.3-0.3-0.3-0.7,0-0.9c0.3-0.3,0.7-0.3,1,0l213.6,205.5
					c0.3,0.3,0.3,0.7,0,0.9C139.5,185.9,139.3,185.9,139.1,185.9z"/>
				<path class="st8" d="M137.7,195.3c-0.2,0-0.4-0.1-0.5-0.2L-76.4-10.4c-0.3-0.3-0.3-0.7,0-0.9c0.3-0.3,0.7-0.3,1,0l213.6,205.5
					c0.3,0.3,0.3,0.7,0,0.9C138.1,195.2,137.9,195.3,137.7,195.3z"/>
				<path class="st8" d="M136.3,204.6c-0.2,0-0.4-0.1-0.5-0.2L-77.8-1.1c-0.3-0.3-0.3-0.7,0-0.9c0.3-0.3,0.7-0.3,1,0l213.6,205.5
					c0.3,0.3,0.3,0.7,0,0.9C136.7,204.5,136.5,204.6,136.3,204.6z"/>
				<path class="st8" d="M135,213.9c-0.2,0-0.4-0.1-0.5-0.2L-79.2,8.2c-0.3-0.3-0.3-0.7,0-0.9c0.3-0.3,0.7-0.3,1,0l213.6,205.5
					c0.3,0.3,0.3,0.7,0,0.9C135.3,213.9,135.1,213.9,135,213.9z"/>
				<path class="st8" d="M133.6,223.3c-0.2,0-0.4-0.1-0.5-0.2L-80.5,17.6c-0.3-0.3-0.3-0.7,0-0.9c0.3-0.3,0.7-0.3,1,0l213.6,205.5
					c0.3,0.3,0.3,0.7,0,0.9C133.9,223.2,133.8,223.3,133.6,223.3z"/>
				<path class="st8" d="M132.2,232.6c-0.2,0-0.4-0.1-0.5-0.2L-81.9,26.9c-0.3-0.3-0.3-0.7,0-0.9c0.3-0.3,0.7-0.3,1,0l213.6,205.5
					c0.3,0.3,0.3,0.7,0,0.9C132.6,232.5,132.4,232.6,132.2,232.6z"/>
				<path class="st8" d="M130.8,241.9c-0.2,0-0.4-0.1-0.5-0.2L-83.3,36.3c-0.3-0.3-0.3-0.7,0-0.9c0.3-0.3,0.7-0.3,1,0l213.6,205.5
					c0.3,0.3,0.3,0.7,0,0.9C131.2,241.9,131,241.9,130.8,241.9z"/>
				<path class="st8" d="M129.4,251.3c-0.2,0-0.4-0.1-0.5-0.2L-84.7,45.6c-0.3-0.3-0.3-0.7,0-0.9c0.3-0.3,0.7-0.3,1,0l213.6,205.5
					c0.3,0.3,0.3,0.7,0,0.9C129.8,251.2,129.6,251.3,129.4,251.3z"/>
				<path class="st8" d="M128.1,260.6c-0.2,0-0.4-0.1-0.5-0.2L-86.1,54.9c-0.3-0.3-0.3-0.7,0-0.9c0.3-0.3,0.7-0.3,1,0l213.6,205.5
					c0.3,0.3,0.3,0.7,0,0.9C128.4,260.6,128.2,260.6,128.1,260.6z"/>
				<path class="st8" d="M126.7,270c-0.2,0-0.4-0.1-0.5-0.2L-87.5,64.3c-0.3-0.3-0.3-0.7,0-0.9c0.3-0.3,0.7-0.3,1,0l213.6,205.5
					c0.3,0.3,0.3,0.7,0,0.9C127,269.9,126.9,270,126.7,270z"/>
				<path class="st8" d="M125.3,279.3c-0.2,0-0.4-0.1-0.5-0.2L-88.8,73.6c-0.3-0.3-0.3-0.7,0-0.9c0.3-0.3,0.7-0.3,1,0l213.6,205.5
					c0.3,0.3,0.3,0.7,0,0.9C125.6,279.2,125.5,279.3,125.3,279.3z"/>
				<path class="st8" d="M123.9,288.6c-0.2,0-0.4-0.1-0.5-0.2L-90.2,82.9c-0.3-0.3-0.3-0.7,0-0.9c0.3-0.3,0.7-0.3,1,0l213.6,205.5
					c0.3,0.3,0.3,0.7,0,0.9C124.3,288.6,124.1,288.6,123.9,288.6z"/>
				<path class="st8" d="M122.5,298c-0.2,0-0.4-0.1-0.5-0.2L-91.6,92.3c-0.3-0.3-0.3-0.7,0-0.9c0.3-0.3,0.7-0.3,1,0L123,296.8
					c0.3,0.3,0.3,0.7,0,0.9C122.9,297.9,122.7,298,122.5,298z"/>
				<path class="st8" d="M121.1,307.3c-0.2,0-0.4-0.1-0.5-0.2L-93,101.6c-0.3-0.3-0.3-0.7,0-0.9c0.3-0.3,0.7-0.3,1,0l213.6,205.5
					c0.3,0.3,0.3,0.7,0,0.9C121.5,307.2,121.3,307.3,121.1,307.3z"/>
				<path class="st8" d="M119.8,316.7c-0.2,0-0.4-0.1-0.5-0.2L-94.4,111c-0.3-0.3-0.3-0.7,0-0.9c0.3-0.3,0.7-0.3,1,0l213.6,205.5
					c0.3,0.3,0.3,0.7,0,0.9C120.1,316.6,119.9,316.7,119.8,316.7z"/>
				<path class="st8" d="M118.4,326c-0.2,0-0.4-0.1-0.5-0.2L-95.7,120.3c-0.3-0.3-0.3-0.7,0-0.9c0.3-0.3,0.7-0.3,1,0l213.6,205.5
					c0.3,0.3,0.3,0.7,0,0.9C118.7,325.9,118.6,326,118.4,326z"/>
				<path class="st8" d="M117,335.3c-0.2,0-0.4-0.1-0.5-0.2L-97.1,129.6c-0.3-0.3-0.3-0.7,0-0.9c0.3-0.3,0.7-0.3,1,0l213.6,205.5
					c0.3,0.3,0.3,0.7,0,0.9C117.4,335.3,117.2,335.3,117,335.3z"/>
				<path class="st8" d="M115.6,344.7c-0.2,0-0.4-0.1-0.5-0.2L-98.5,139c-0.3-0.3-0.3-0.7,0-0.9c0.3-0.3,0.7-0.3,1,0l213.6,205.5
					c0.3,0.3,0.3,0.7,0,0.9C116,344.6,115.8,344.7,115.6,344.7z"/>
				<path class="st8" d="M114.2,354c-0.2,0-0.4-0.1-0.5-0.2L-99.9,148.3c-0.3-0.3-0.3-0.7,0-0.9c0.3-0.3,0.7-0.3,1,0l213.6,205.5
					c0.3,0.3,0.3,0.7,0,0.9C114.6,353.9,114.4,354,114.2,354z"/>
				<path class="st8" d="M112.9,363.3c-0.2,0-0.4-0.1-0.5-0.2l-213.6-205.5c-0.3-0.3-0.3-0.7,0-0.9c0.3-0.3,0.7-0.3,1,0l213.6,205.5
					c0.3,0.3,0.3,0.7,0,0.9C113.2,363.3,113,363.3,112.9,363.3z"/>
			</g>
		</g>
	</g>
</g>
</svg>
