<?xml version="1.0" encoding="UTF-8" standalone="no"?>
<svg
   xmlns:dc="http://purl.org/dc/elements/1.1/"
   xmlns:cc="http://creativecommons.org/ns#"
   xmlns:rdf="http://www.w3.org/1999/02/22-rdf-syntax-ns#"
   xmlns:svg="http://www.w3.org/2000/svg"
   xmlns="http://www.w3.org/2000/svg"
   id="svg8"
   version="1.1"
   fill="none"
   viewBox="0 0 70 70"
   height="70"
   width="70">
  <metadata
     id="metadata14">
    <rdf:RDF>
      <cc:Work
         rdf:about="">
        <dc:format>image/svg+xml</dc:format>
        <dc:type
           rdf:resource="http://purl.org/dc/dcmitype/StillImage" />
      </cc:Work>
    </rdf:RDF>
  </metadata>
  <defs
     id="defs12" />
  <path
     id="path2"
     fill="#F16845"
     d="M66.7733 67.2656H63.7746V23.7256C63.7746 21.699 62.1258 20.0504 60.0994 20.0504H53.3969C51.3703 20.0504 49.7216 21.6992 49.7216 23.7256V67.2656H42.1074V43.4526C42.1074 41.4261 40.4587 39.7774 38.4322 39.7774H31.7297C29.7031 39.7774 28.0544 41.4262 28.0544 43.4526V67.2656H20.4403V54.933C20.4403 52.9065 18.7914 51.2578 16.765 51.2578H10.0623C8.03577 51.2578 6.38707 52.9066 6.38707 54.933V67.2656H3.22668C2.47159 67.2656 1.8595 67.8777 1.8595 68.6328C1.8595 69.3879 2.47159 70 3.22668 70H66.7733C67.5284 70 68.1405 69.3879 68.1405 68.6328C68.1405 67.8777 67.5284 67.2656 66.7733 67.2656ZM17.7056 67.2656H9.12131V54.933C9.12131 54.4142 9.54336 53.9921 10.0622 53.9921H16.7647C17.2836 53.9921 17.7056 54.4142 17.7056 54.933V67.2656ZM39.3729 67.2656H30.7886V43.4526C30.7886 42.9338 31.2107 42.5117 31.7295 42.5117H38.432C38.9507 42.5117 39.3729 42.9338 39.3729 43.4526V67.2656ZM61.0403 67.2656H52.456V23.7256C52.456 23.2068 52.878 22.7847 53.3969 22.7847H60.0994C60.6182 22.7847 61.0403 23.2068 61.0403 23.7256V67.2656Z" />
  <path
     id="path4"
     fill="#F16845"
     d="M63.7714 1.43773C63.7905 1.06463 63.6593 0.685234 63.3744 0.400312C63.0894 0.115391 62.71 -0.0159961 62.3369 0.00328125C62.3149 0.00232422 62.2932 0 62.2708 0H53.9993C53.2442 0 52.6321 0.61209 52.6321 1.36719C52.6321 2.12229 53.2442 2.73438 53.9993 2.73438H59.1067L45.5911 16.2501L40.4942 11.1532C40.2379 10.8969 39.89 10.7528 39.5275 10.7528C39.1649 10.7528 38.8171 10.8969 38.5607 11.1532L13.9829 35.7312C13.449 36.2651 13.449 37.1308 13.9829 37.6648C14.2499 37.9315 14.5998 38.065 14.9497 38.065C15.2995 38.065 15.6495 37.9315 15.9164 37.6645L39.5275 14.0533L44.6243 19.1502C45.1582 19.6841 46.0239 19.6841 46.558 19.1502L61.0403 4.66799V9.29045C61.0403 10.0455 61.6524 10.6576 62.4075 10.6576C63.1626 10.6576 63.7747 10.0455 63.7747 9.29045V1.50391C63.7747 1.48162 63.7723 1.45988 63.7714 1.43773Z" />
  <path
     id="path6"
     fill="#F16845"
     d="M10.3414 42.8353C11.0965 42.8353 11.7086 42.2232 11.7086 41.4681C11.7086 40.7131 11.0965 40.101 10.3414 40.101C9.58635 40.101 8.97424 40.7131 8.97424 41.4681C8.97424 42.2232 9.58635 42.8353 10.3414 42.8353Z" />
</svg>
