<?xml version="1.0" encoding="UTF-8" standalone="no"?>
<svg
   xmlns:dc="http://purl.org/dc/elements/1.1/"
   xmlns:cc="http://creativecommons.org/ns#"
   xmlns:rdf="http://www.w3.org/1999/02/22-rdf-syntax-ns#"
   xmlns:svg="http://www.w3.org/2000/svg"
   xmlns="http://www.w3.org/2000/svg"
   id="svg6"
   version="1.1"
   fill="none"
   viewBox="0 0 66 66"
   height="66"
   width="66">
  <metadata
     id="metadata12">
    <rdf:RDF>
      <cc:Work
         rdf:about="">
        <dc:format>image/svg+xml</dc:format>
        <dc:type
           rdf:resource="http://purl.org/dc/dcmitype/StillImage" />
      </cc:Work>
    </rdf:RDF>
  </metadata>
  <defs
     id="defs10" />
  <path
     id="path2"
     fill="#F16845"
     d="M56.3346 9.66539C50.1017 3.43252 41.8146 0 33 0C24.1854 0 15.8983 3.43252 9.66539 9.66539C3.43264 15.8983 0 24.1854 0 33C0 41.8146 3.43264 50.1017 9.66539 56.3346C15.8983 62.5675 24.1854 66 33 66C41.8146 66 50.1017 62.5675 56.3346 56.3346C62.5674 50.1017 66 41.8146 66 33C66 24.1854 62.5674 15.8983 56.3346 9.66539ZM33 62.1328C16.9361 62.1328 3.86719 49.0639 3.86719 33C3.86719 16.9361 16.9361 3.86719 33 3.86719C49.0639 3.86719 62.1328 16.9361 62.1328 33C62.1328 49.0639 49.0639 62.1328 33 62.1328Z" />
  <path
     id="path4"
     fill="#F16845"
     d="M35.0711 31.0664H30.9289C28.569 31.0664 26.6492 29.1466 26.6492 26.7869C26.6492 24.427 28.5691 22.5072 30.9289 22.5072H39.2133C40.2811 22.5072 41.1469 21.6414 41.1469 20.5736C41.1469 19.5057 40.2811 18.64 39.2133 18.64H34.9336V14.3603C34.9336 13.2924 34.0679 12.4267 33 12.4267C31.9321 12.4267 31.0664 13.2924 31.0664 14.3603V18.64H30.929C26.4367 18.64 22.7821 22.2947 22.7821 26.7869C22.7821 31.279 26.4369 34.9336 30.929 34.9336H35.0713C37.431 34.9336 39.3508 36.8535 39.3508 39.2133C39.3508 41.573 37.431 43.493 35.0713 43.493H26.7868C25.719 43.493 24.8532 44.3587 24.8532 45.4266C24.8532 46.4944 25.719 47.3602 26.7868 47.3602H31.0664V51.64C31.0664 52.7078 31.9321 53.5736 33 53.5736C34.0679 53.5736 34.9336 52.7078 34.9336 51.64V47.3602H35.0711C39.5633 47.3602 43.2179 43.7054 43.2179 39.2133C43.2179 34.7212 39.5633 31.0664 35.0711 31.0664Z" />
</svg>
