<?xml version="1.0" encoding="UTF-8" standalone="no"?>
<svg
   xmlns:dc="http://purl.org/dc/elements/1.1/"
   xmlns:cc="http://creativecommons.org/ns#"
   xmlns:rdf="http://www.w3.org/1999/02/22-rdf-syntax-ns#"
   xmlns:svg="http://www.w3.org/2000/svg"
   xmlns="http://www.w3.org/2000/svg"
   id="svg15"
   version="1.1"
   fill="none"
   viewBox="0 0 75 73"
   height="73"
   width="75">
  <metadata
     id="metadata19">
    <rdf:RDF>
      <cc:Work
         rdf:about="">
        <dc:format>image/svg+xml</dc:format>
        <dc:type
           rdf:resource="http://purl.org/dc/dcmitype/StillImage" />
      </cc:Work>
    </rdf:RDF>
  </metadata>
  <g
     id="g8"
     clip-path="url(#clip0)">
    <path
       id="path2"
       fill="#4D99FF"
       d="M66.4449 15.8871L25.8046 2.65633C23.6157 1.94372 21.2299 2.14088 19.1718 3.20442C17.1138 4.26795 15.5522 6.11076 14.8306 8.32742L5.46164 37.1054C4.73999 39.3221 4.91737 41.731 5.95484 43.8023C6.99231 45.8736 8.80483 47.4376 10.9937 48.1502L25.1865 52.7708L28.5626 63.4288L37.2742 56.636L51.6859 61.3278C53.8747 62.0404 56.2606 61.8433 58.3186 60.7797C60.3767 59.7162 61.9383 57.8734 62.6599 55.6567L72.0288 26.8788C72.7321 24.6623 72.5394 22.261 71.4928 20.2008C70.4462 18.1407 68.6311 16.5895 66.4449 15.8871Z" />
    <path
       id="path4"
       fill="#FCFEFF"
       d="M31.7628 23.1187L26.5733 21.4292C25.7273 21.1538 24.8154 21.6251 24.5365 22.4818L20.2282 35.7152C19.9493 36.572 20.409 37.4898 21.255 37.7652L26.4445 39.4547C27.2905 39.7301 28.2024 39.2588 28.4813 38.4021L32.7896 25.1687C33.0685 24.3119 32.6088 23.3941 31.7628 23.1187Z" />
    <path
       id="path6"
       fill="#FCFEFF"
       d="M35.6681 26.8411C35.8136 26.414 36.0525 26.025 36.3669 25.7029C36.6813 25.3809 37.063 25.1342 37.4837 24.9812C39.2616 24.2995 42.0606 23.9852 45.288 17.6829C46.9947 14.352 50.2858 18.0495 49.2678 21.9198C48.4247 25.1467 47.4126 27.6184 47.4126 27.6184L53.6649 29.6539C54.4279 29.9447 55.0543 30.5127 55.4222 31.2474C55.7902 31.982 55.8734 32.8307 55.6556 33.6283L51.739 45.6587C51.4455 46.4317 50.8786 47.0687 50.1487 47.4459C49.4187 47.8232 48.578 47.9135 47.7901 47.6995L35.4729 43.6895C34.9154 43.5015 34.4281 43.1476 34.0748 42.6741L32.5484 40.6716C32.2557 40.2894 32.0609 39.8396 31.9813 39.3618C31.9017 38.8841 31.9397 38.3931 32.092 37.9319L35.6681 26.8411Z" />
  </g>
  <defs
     id="defs13">
    <clipPath
       id="clip0">
      <rect
         id="rect10"
         transform="translate(17.6453) rotate(18.0331)"
         fill="white"
         height="57"
         width="60" />
    </clipPath>
  </defs>
</svg>
