<?xml version="1.0" encoding="UTF-8" standalone="no"?>
<svg
   xmlns:dc="http://purl.org/dc/elements/1.1/"
   xmlns:cc="http://creativecommons.org/ns#"
   xmlns:rdf="http://www.w3.org/1999/02/22-rdf-syntax-ns#"
   xmlns:svg="http://www.w3.org/2000/svg"
   xmlns="http://www.w3.org/2000/svg"
   style="fill:none"
   id="svg6"
   version="1.1"
   viewBox="0 0 75 69.433601"
   height="69.433601"
   width="75">
  <metadata
     id="metadata12">
    <rdf:RDF>
      <cc:Work
         rdf:about="">
        <dc:format>image/svg+xml</dc:format>
        <dc:type
           rdf:resource="http://purl.org/dc/dcmitype/StillImage" />
      </cc:Work>
    </rdf:RDF>
  </metadata>
  <defs
     id="defs10" />
  <path
     style="fill:#f16845;stroke:#100122"
     id="path2"
     d="m 68.9336,15.8936 v 0.5 h 0.5 2.6367 c 1.3419,0 2.4297,1.0877 2.4297,2.4296 0,1.342 -1.0878,2.4297 -2.4297,2.4297 h -2.6367 -0.5 v 0.5 2.6368 c 0,1.3419 -1.0878,2.4296 -2.4297,2.4296 -1.3419,0 -2.4297,-1.0877 -2.4297,-2.4296 v -2.6368 -0.5 h -0.5 -2.6367 c -1.3419,0 -2.4297,-1.0877 -2.4297,-2.4297 0,-1.3419 1.0878,-2.4296 2.4297,-2.4296 h 2.6367 0.5 v -0.5 -2.6368 c 0,-1.3419 1.0878,-2.4296 2.4297,-2.4296 1.3419,0 2.4297,1.0877 2.4297,2.4296 z" />
  <path
     style="fill:#f16845;stroke:#100122"
     id="path4"
     d="m 45.8968,33.3296 -0.7294,0.5635 0.8701,0.3041 c 13.0301,4.5544 22.8961,17.062 22.8961,32.3067 0,1.3419 -1.0878,2.4297 -2.4297,2.4297 H 2.92969 C 1.58776,68.9336 0.5,67.8458 0.5,66.5039 0.5,51.2629 10.3586,38.7542 23.3961,34.1972 l 0.8701,-0.3041 -0.7294,-0.5635 C 19.1939,29.9745 16.3936,24.7197 16.3936,18.8232 16.3936,8.7202 24.6138,0.5 34.7168,0.5 44.8198,0.5 53.04,8.7202 53.04,18.8232 c 0,5.8966 -2.8003,11.1513 -7.1432,14.5064 z M 5.50958,63.5238 5.45384,64.0742 H 6.00703 63.4266 63.9798 L 63.924,63.5238 C 62.4258,48.7298 49.8996,37.1465 34.7168,37.1465 19.534,37.1465 7.00775,48.7298 5.50958,63.5238 Z M 34.7168,5.35938 c -7.4244,0 -13.4639,6.03942 -13.4639,13.46382 0,7.4245 6.0395,13.4639 13.4639,13.4639 7.4244,0 13.4639,-6.0394 13.4639,-13.4639 0,-7.4244 -6.0395,-13.46382 -13.4639,-13.46382 z" />
</svg>
