<?xml version="1.0" standalone="no"?>
<!DOCTYPE svg PUBLIC "-//W3C//DTD SVG 20010904//EN"
 "http://www.w3.org/TR/2001/REC-SVG-20010904/DTD/svg10.dtd">
<svg version="1.0" xmlns="http://www.w3.org/2000/svg"
 width="1829.000000pt" height="1403.000000pt" viewBox="0 0 1829.000000 1403.000000"
 preserveAspectRatio="xMidYMid meet">
<metadata>
Created by potrace 1.16, written by Peter Selinger 2001-2019
</metadata>
<g transform="translate(0.000000,1403.000000) scale(0.100000,-0.100000)"
fill="#000000" stroke="none">
<path d="M12875 13534 c-30 -46 -31 -97 -2 -157 15 -29 38 -64 51 -76 l25 -23
27 21 c25 20 39 21 203 21 157 0 179 -2 208 -20 44 -27 62 -57 75 -130 8 -48
8 -88 -1 -164 -12 -98 -12 -101 9 -118 29 -23 37 -17 45 34 5 27 18 53 38 72
56 56 69 202 26 287 -17 35 -25 38 -339 157 -177 67 -328 122 -335 122 -7 0
-20 -12 -30 -26z"/>
<path d="M11898 11771 c-3 -9 -678 -113 -2048 -316 -212 -32 -396 -63 -409
-69 -13 -6 -39 -33 -58 -60 -25 -37 -33 -59 -33 -92 0 -43 4 -49 105 -156 94
-99 103 -112 88 -123 -16 -12 -16 -14 3 -40 10 -15 24 -35 29 -44 6 -9 17 -21
26 -28 9 -7 19 -22 22 -33 7 -28 -2 -25 -13 5 -19 49 -30 26 -30 -60 l0 -85
73 0 c39 0 95 -3 124 -6 51 -7 52 -8 124 -98 179 -222 414 -525 528 -678 l124
-167 51 -5 c130 -14 251 -24 254 -21 1 1 -25 83 -59 181 -91 267 -214 535
-332 722 -22 35 -38 64 -36 65 2 1 289 1 638 -1 l633 -2 -6 -43 c-16 -103 -24
-470 -16 -657 10 -211 19 -305 50 -490 11 -71 21 -197 25 -330 15 -524 64
-1070 129 -1445 12 -72 11 -93 -5 -205 -47 -321 -54 -465 -54 -1085 1 -731 13
-943 95 -1594 17 -129 30 -246 30 -260 0 -17 -36 -74 -103 -163 -427 -572
-920 -1001 -1537 -1337 -96 -53 -225 -118 -285 -146 -61 -27 -113 -54 -117
-59 -9 -13 -72 10 -232 81 -66 29 -121 53 -123 53 -2 0 -3 -88 -3 -195 l0
-196 -30 16 c-16 8 -35 15 -41 15 -7 0 -20 7 -30 16 -9 8 -24 17 -33 18 -8 1
-24 10 -36 21 -11 10 -20 15 -20 11 0 -4 -7 0 -16 8 -8 9 -20 14 -25 11 -5 -4
-9 -2 -9 3 0 4 -16 14 -35 22 -19 8 -35 17 -35 21 0 4 -11 10 -25 13 -14 4
-25 11 -25 16 0 6 -7 10 -15 10 -8 0 -15 5 -15 11 0 5 -3 8 -8 6 -4 -3 -44 19
-90 49 -45 30 -87 54 -92 54 -6 0 -10 4 -10 8 0 5 -19 19 -42 32 -23 13 -80
52 -126 87 -62 47 -88 61 -96 53 -8 -8 -7 -10 5 -5 9 3 23 -3 34 -15 10 -11
15 -20 10 -20 -4 0 -13 8 -20 17 -11 14 -15 15 -29 4 -13 -11 -15 -10 -11 9 3
14 0 20 -8 17 -7 -3 -11 -10 -9 -16 3 -14 -15 -15 -23 -1 -3 6 1 13 9 16 9 3
13 10 10 15 -3 5 3 6 13 3 17 -5 17 -5 0 6 -9 6 -22 8 -27 5 -6 -3 -10 2 -10
12 0 10 -4 14 -8 8 -10 -14 -32 -17 -32 -5 0 6 -3 9 -7 9 -5 -1 -15 -1 -23 0
-11 1 -11 4 -2 13 14 14 16 42 2 33 -6 -3 -15 6 -21 22 -7 16 -13 23 -16 15
-3 -7 1 -19 7 -27 9 -11 9 -15 1 -15 -6 0 -11 5 -11 10 0 6 -5 10 -11 10 -5 0
-7 -4 -4 -10 4 -6 -1 -7 -11 -3 -15 6 -15 7 -1 18 14 10 14 12 -1 23 -9 7 -11
10 -3 6 8 -4 2 9 -13 29 -16 20 -31 37 -35 37 -3 0 -49 40 -101 90 l-95 89
-225 0 c-890 2 -2285 -88 -3340 -215 -1750 -210 -3397 -588 -4522 -1039 -107
-42 -162 -75 -128 -75 7 0 10 -7 6 -15 -3 -8 -2 -15 3 -15 16 0 21 13 9 27 -6
7 -8 16 -4 20 11 11 17 -2 25 -57 1 -2 8 6 17 18 8 12 21 22 27 22 7 0 4 -5
-5 -11 -10 -5 -18 -15 -18 -21 0 -6 3 -8 6 -5 4 3 15 2 24 -3 13 -7 16 -17 12
-32 -5 -21 -4 -22 11 -9 15 12 17 11 17 -4 0 -11 5 -15 14 -12 11 4 13 1 9
-11 -6 -16 -5 -16 13 0 14 12 23 14 34 7 13 -9 12 -10 -2 -5 -10 3 -20 1 -23
-4 -4 -6 0 -10 8 -10 8 0 25 -9 38 -21 13 -11 19 -18 13 -15 -7 3 -15 -1 -18
-10 -3 -9 -2 -12 5 -9 5 4 21 8 35 10 17 2 21 -1 15 -9 -7 -8 -4 -12 10 -13
11 -1 17 2 15 6 -3 4 1 8 8 8 8 0 11 -8 8 -19 -9 -37 46 -73 76 -48 6 6 10 7
7 4 -3 -4 3 -13 13 -20 9 -7 18 -17 18 -23 1 -6 2 -16 3 -22 0 -7 8 -8 19 -4
9 4 24 8 32 10 8 1 14 8 12 15 -1 6 2 9 8 5 8 -5 8 -11 -1 -21 -6 -7 -15 -12
-19 -9 -5 3 -11 1 -15 -5 -8 -13 21 -13 45 0 16 9 18 7 14 -16 -4 -22 -2 -25
16 -19 14 5 20 2 20 -9 0 -9 9 -16 21 -16 13 0 18 4 13 13 -6 9 -4 9 6 0 12
-11 11 -15 -6 -28 -13 -11 -14 -14 -4 -13 8 2 14 -2 13 -8 -1 -6 4 -11 11 -11
7 0 13 6 13 13 0 7 -5 10 -11 7 -6 -3 -8 -2 -3 2 9 10 48 15 42 5 -3 -4 4 -15
15 -25 11 -10 17 -23 13 -29 -4 -7 -1 -6 8 1 20 16 39 -1 40 -37 0 -14 3 -19
6 -12 2 6 9 10 13 7 5 -3 12 -1 15 5 4 6 1 9 -7 8 -7 -2 -13 4 -13 12 0 8 -4
18 -10 22 -5 4 0 6 13 5 14 -1 18 -5 12 -11 -13 -13 -13 -29 -1 -21 12 7 33
-29 23 -39 -3 -4 1 -4 11 0 10 3 17 1 17 -5 0 -6 7 -11 15 -11 8 0 15 5 15 11
0 5 -4 7 -10 4 -5 -3 -10 -1 -10 5 0 6 8 10 18 8 11 -2 16 -11 14 -25 -2 -11
4 -23 11 -26 11 -4 13 0 10 14 -4 14 0 19 13 19 16 0 17 -2 4 -10 -12 -8 -11
-10 8 -10 12 0 22 6 22 13 0 9 3 8 9 -2 7 -11 9 -11 14 0 4 11 6 11 6 1 1 -7
5 -11 10 -8 5 3 8 -9 7 -27 -1 -27 2 -32 23 -34 18 -1 21 1 10 9 -12 8 -12 9
1 5 8 -2 24 0 35 6 18 8 17 7 -2 -12 -23 -21 -33 -58 -13 -46 6 4 8 11 5 16
-4 5 -2 9 4 9 5 0 11 -9 13 -21 3 -18 5 -19 23 -5 11 8 16 18 12 22 -4 5 -12
2 -17 -6 -7 -11 -10 -11 -10 -2 0 7 7 15 15 18 8 4 12 10 9 15 -3 5 2 6 11 2
9 -3 13 -9 8 -12 -16 -12 -11 -41 7 -41 35 0 52 -11 39 -26 -10 -12 -8 -13 6
-8 12 5 16 4 12 -3 -12 -19 22 -23 39 -6 16 16 16 16 10 -5 -6 -18 -3 -22 14
-22 13 0 19 -4 14 -12 -4 -7 -3 -8 5 -4 6 4 23 0 37 -9 14 -9 33 -14 41 -11
11 4 13 2 9 -9 -3 -8 -1 -15 4 -15 6 0 10 6 10 14 0 10 9 13 31 9 23 -3 29 -1
24 8 -5 8 -4 10 4 5 17 -11 2 -29 -20 -23 -11 3 -19 1 -19 -4 0 -5 7 -9 16 -9
8 0 13 -4 10 -9 -3 -5 3 -11 15 -14 16 -4 18 -3 8 9 -6 8 -8 14 -5 14 8 0 69
-42 77 -54 4 -4 12 0 19 10 11 18 11 18 7 -3 -3 -12 1 -24 8 -27 8 -3 15 2 17
11 3 14 5 15 18 2 20 -18 40 -22 40 -8 0 6 7 3 16 -5 8 -9 13 -22 11 -29 -4
-9 -6 -9 -6 1 -1 6 -6 12 -12 12 -8 0 -8 -4 1 -14 6 -8 19 -12 27 -9 10 4 14
2 9 -5 -3 -6 -2 -14 4 -17 6 -4 10 -3 9 2 -5 27 2 42 17 36 13 -5 13 -7 2 -14
-10 -7 -11 -9 0 -9 7 0 10 -4 7 -10 -3 -5 -1 -10 4 -10 6 0 11 5 11 10 0 6 5
10 11 10 5 0 8 -4 5 -9 -3 -4 1 -17 9 -27 13 -16 14 -17 9 -1 -7 20 6 22 25 5
10 -9 12 -9 7 -1 -3 6 -2 14 4 18 5 3 10 1 10 -4 0 -18 18 -12 24 7 3 9 4 4 2
-11 -2 -20 0 -27 10 -23 15 6 37 -17 27 -28 -4 -4 0 -4 10 0 14 5 16 2 10 -12
-5 -15 -4 -17 8 -8 18 14 50 14 68 1 7 -6 18 -12 25 -13 6 -2 36 -7 66 -13 37
-8 56 -8 58 -1 2 5 8 10 13 10 5 0 4 -9 -3 -19 -12 -20 -28 -23 -39 -8 -3 5
-9 2 -12 -6 -4 -11 4 -14 41 -13 40 1 47 4 44 20 -3 14 1 17 13 12 9 -3 19 -6
22 -6 2 0 -3 -7 -12 -16 -17 -17 -15 -24 7 -28 7 -1 20 -6 28 -11 22 -14 41
-15 33 -2 -5 9 -3 9 8 2 8 -6 28 -10 46 -9 19 1 37 -4 45 -14 11 -13 11 -14
-1 -7 -9 5 -12 4 -7 -3 9 -15 34 -5 40 16 3 12 4 11 3 -3 0 -11 6 -33 16 -50
9 -16 16 -26 17 -22 0 5 -5 17 -10 28 -7 13 -7 19 0 19 5 0 10 -4 10 -10 0 -5
3 -9 8 -9 4 1 10 0 15 -1 4 -1 13 -3 20 -4 6 -1 11 -10 10 -21 -1 -19 -1 -19
12 -2 8 11 11 26 7 35 -5 14 -4 15 10 2 9 -8 14 -18 11 -22 -2 -5 3 -8 12 -8
9 0 13 4 10 10 -3 6 1 7 9 4 9 -3 16 -10 16 -16 0 -5 -4 -7 -9 -3 -5 3 -12 2
-15 -3 -2 -4 7 -9 22 -10 15 -1 29 -7 30 -12 2 -6 12 -10 22 -10 10 0 21 -6
23 -12 3 -8 6 -6 6 5 1 9 6 17 12 17 5 0 7 6 3 13 -4 6 -3 8 1 4 12 -10 15
-38 4 -31 -5 3 -9 0 -9 -5 0 -6 7 -11 15 -11 8 0 15 7 15 15 0 27 20 16 27
-15 4 -24 8 -28 19 -19 8 6 23 9 35 6 12 -3 22 0 26 9 6 17 23 9 23 -12 0 -8
-4 -13 -8 -10 -5 3 -9 -1 -9 -9 0 -13 4 -13 24 1 24 15 24 15 12 -8 -12 -22
-11 -23 8 -5 17 15 22 15 31 4 7 -8 9 -17 5 -20 -3 -4 -1 -7 6 -7 8 0 11 8 8
19 -2 10 0 25 5 32 7 12 9 11 7 -1 -1 -8 0 -24 1 -35 1 -14 5 -10 11 13 6 19
14 30 20 26 7 -4 7 -9 2 -13 -5 -3 -9 -16 -9 -28 0 -17 3 -19 13 -11 9 7 13 7
13 -1 0 -15 33 -14 49 2 10 10 10 7 3 -14 -8 -19 -7 -26 2 -26 7 0 13 7 12 15
-2 23 22 26 29 3 7 -23 35 -35 49 -21 15 15 29 12 23 -5 -5 -11 -1 -12 19 -5
19 7 23 7 18 -2 -5 -8 -2 -9 9 -5 9 3 19 2 22 -3 9 -15 58 -7 77 12 10 10 24
18 30 17 10 0 10 -2 0 -6 -10 -4 -10 -8 0 -21 7 -10 9 -14 4 -10 -13 11 -45
-10 -42 -27 1 -8 5 -17 9 -20 4 -3 5 -2 2 1 -2 4 2 13 10 21 11 11 19 11 35 3
11 -6 18 -15 16 -19 -3 -5 6 -7 21 -5 14 1 36 -4 49 -13 13 -8 28 -12 34 -8 6
4 18 1 27 -7 9 -7 14 -8 11 -3 -4 6 3 17 15 25 20 12 21 11 9 -2 -10 -13 -10
-17 3 -21 8 -4 14 -3 14 1 -4 25 4 34 12 14 8 -21 10 -22 25 -8 18 19 31 21
16 3 -7 -8 -6 -16 3 -24 7 -6 15 -10 18 -7 10 11 47 12 53 2 4 -7 2 -8 -4 -4
-8 5 -10 2 -6 -9 6 -14 8 -14 19 2 13 17 16 16 46 -12 18 -16 29 -24 25 -17
-9 16 16 16 32 0 9 -9 17 -10 31 -1 14 9 18 8 18 -3 0 -7 -4 -11 -9 -8 -4 3
-5 -1 -2 -9 3 -9 14 -12 29 -9 14 2 22 8 19 13 -3 5 -11 6 -17 3 -7 -4 -8 -3
-4 1 4 5 15 10 23 11 12 2 15 -4 12 -26 -4 -29 15 -33 26 -4 3 8 13 11 23 8
16 -5 16 -4 -1 10 -17 13 -18 18 -6 29 7 6 10 8 8 2 -7 -13 17 -36 28 -27 5 4
2 -1 -5 -10 -7 -9 -10 -21 -7 -26 6 -10 42 -9 52 0 3 4 22 -3 42 -15 20 -12
32 -16 28 -9 -4 7 -2 12 4 12 6 0 8 5 4 12 -4 7 -3 8 5 4 6 -4 9 -12 6 -17 -4
-5 6 -9 20 -9 15 0 24 -4 20 -10 -3 -5 -1 -10 4 -10 6 0 11 8 12 18 0 9 3 12
5 6 3 -7 13 -10 24 -7 12 3 23 -2 31 -15 9 -14 20 -19 41 -15 21 3 28 0 28
-12 0 -9 5 -13 10 -10 6 4 8 11 5 16 -4 5 -1 9 4 9 6 0 11 -4 11 -10 0 -18 22
-11 27 9 4 16 8 17 29 7 13 -6 24 -17 24 -24 0 -8 -5 -10 -13 -6 -8 5 -8 2 2
-9 15 -19 26 -23 15 -5 -5 8 -2 9 11 4 14 -5 16 -4 7 7 -12 14 -6 27 12 27 6
0 5 -4 -2 -9 -10 -6 -10 -10 2 -21 13 -10 17 -9 22 4 5 14 10 13 32 -9 26 -26
72 -36 56 -12 -5 7 -2 6 6 -3 8 -8 28 -16 44 -17 16 -1 33 -7 36 -14 9 -13 8
-13 42 0 20 8 28 7 28 0 0 -7 6 -7 18 2 13 11 13 9 -2 -9 -19 -22 -19 -22 5
-18 13 3 30 5 37 5 7 1 10 6 6 13 -5 7 -3 8 7 2 19 -12 32 -12 42 1 5 5 6 0 2
-11 -4 -16 0 -23 16 -27 16 -4 19 -2 15 10 -5 12 -4 13 7 5 8 -7 17 -9 21 -5
4 4 11 2 15 -5 4 -7 22 -14 39 -14 17 -1 29 -5 26 -10 -3 -4 -1 -8 4 -8 5 0
14 10 21 23 6 12 10 14 7 5 -6 -20 17 -31 34 -15 10 9 11 9 6 0 -5 -8 -1 -13
9 -13 9 0 13 4 10 10 -3 5 -1 10 4 10 6 0 11 -4 11 -10 0 -5 7 -6 17 -3 11 4
14 3 9 -5 -4 -7 -1 -12 8 -12 20 0 10 27 -12 33 -15 4 -15 5 0 6 19 1 42 -34
33 -49 -9 -15 21 -12 34 3 6 8 8 17 4 21 -4 4 1 4 12 0 10 -4 14 -9 7 -12 -9
-3 -8 -7 1 -17 7 -7 15 -11 20 -8 4 2 7 0 7 -5 0 -10 58 -3 65 8 3 5 -3 7 -12
6 -10 -2 -12 -1 -5 1 7 3 9 9 6 14 -3 6 3 5 14 -2 12 -7 19 -16 16 -20 -2 -4
6 -11 18 -14 13 -4 32 -15 43 -23 12 -10 15 -11 8 -2 -7 8 -13 24 -13 37 0 15
-6 23 -16 23 -13 0 -14 -3 -5 -13 8 -10 7 -14 -3 -14 -19 0 -13 31 7 35 16 3
41 -31 30 -42 -3 -3 -3 -6 2 -6 4 0 14 8 21 17 13 17 14 17 8 1 -3 -10 -1 -18
5 -18 6 0 11 5 11 12 0 7 5 5 13 -5 22 -29 99 -44 81 -16 -3 5 -1 9 4 9 5 0
13 -10 16 -23 6 -17 9 -19 14 -7 4 8 13 16 20 18 8 1 11 -2 7 -8 -3 -5 1 -10
10 -10 9 0 13 -4 10 -10 -3 -5 1 -10 9 -10 9 0 16 4 16 8 0 13 45 8 63 -6 8
-7 23 -9 32 -5 13 5 16 3 10 -7 -6 -10 -4 -10 11 -2 14 8 24 7 39 -6 11 -9 14
-10 8 -2 -20 22 -15 35 12 36 14 1 25 -2 25 -7 0 -5 -4 -9 -10 -9 -5 0 -10 -4
-10 -10 0 -5 12 -10 26 -10 16 0 23 -4 18 -12 -4 -7 -3 -8 4 -4 6 4 8 14 5 23
-4 11 -3 14 5 9 7 -4 12 -3 12 2 0 5 6 9 13 9 8 0 14 -6 14 -13 0 -7 -4 -11
-9 -8 -4 3 -8 -2 -8 -10 0 -9 7 -16 15 -16 8 0 15 5 15 11 0 5 5 7 10 4 6 -3
10 -2 10 3 0 5 7 9 15 9 11 0 12 -4 4 -13 -9 -11 -4 -12 20 -9 17 2 33 -1 37
-6 3 -6 12 -5 22 3 12 10 14 10 8 1 -4 -8 -2 -13 7 -13 9 0 14 8 12 18 -1 9 0
12 2 5 6 -16 40 -26 55 -17 10 6 10 5 0 -8 -11 -14 -7 -15 29 -11 29 4 39 2
35 -6 -4 -6 -2 -11 4 -11 16 0 40 26 32 34 -15 16 35 -9 66 -32 17 -13 32 -21
32 -17 0 4 7 2 15 -5 13 -11 14 -10 9 3 -9 24 5 41 22 26 7 -6 12 -15 9 -19
-3 -4 6 -7 20 -6 22 1 29 7 27 26 0 3 9 6 21 7 12 0 16 -1 10 -4 -7 -3 -13 -9
-13 -15 0 -6 7 -8 15 -4 18 7 19 -5 3 -24 -9 -9 -5 -9 13 2 16 10 31 13 40 8
8 -6 16 -4 21 3 5 8 8 7 8 -4 0 -9 7 -16 15 -16 19 0 19 6 0 27 -13 15 -13 17
0 17 8 0 15 -7 15 -14 0 -9 5 -11 13 -7 6 4 9 4 5 -1 -4 -4 -3 -14 3 -21 13
-16 72 2 62 19 -3 7 -2 8 3 4 5 -5 10 -13 10 -18 3 -22 5 -23 14 -9 8 13 11
13 22 1 11 -12 10 -13 -2 -6 -8 5 -12 4 -7 0 9 -11 57 -13 57 -3 0 4 9 8 21 8
11 0 17 -4 14 -10 -4 -6 1 -7 12 -3 14 6 13 9 -12 19 l-30 13 35 -2 c33 -2 36
-4 32 -32 -2 -17 0 -26 5 -20 12 15 52 18 68 5 12 -10 17 -7 26 16 7 18 13 24
16 16 3 -8 0 -19 -6 -25 -16 -16 -14 -32 3 -18 10 8 16 9 21 1 11 -17 27 1 21
23 -4 17 -1 16 19 -8 19 -23 24 -26 25 -12 0 9 4 17 10 17 5 0 7 -6 4 -14 -4
-10 2 -13 22 -10 17 1 33 -4 41 -14 12 -15 13 -14 3 5 -12 25 -2 30 19 11 11
-11 12 -10 6 1 -5 9 -4 12 3 7 5 -3 13 0 16 6 3 7 3 2 0 -11 -4 -15 -2 -21 4
-17 6 3 18 -2 28 -11 16 -16 16 -16 10 3 -5 16 -1 20 19 22 14 1 25 -3 25 -8
0 -5 -7 -7 -15 -4 -8 4 -15 1 -15 -5 0 -17 28 -13 39 7 10 16 10 16 11 -1 0
-10 4 -16 9 -13 5 3 7 16 5 29 -4 20 -4 20 4 2 5 -11 7 -26 5 -32 -3 -8 4 -13
18 -12 13 0 18 3 12 6 -28 11 -10 21 29 16 31 -5 39 -3 33 6 -5 9 -1 9 14 -1
12 -7 21 -17 21 -22 0 -4 6 -4 13 2 10 9 19 7 35 -4 17 -12 21 -12 16 -1 -3 8
1 14 10 14 8 0 13 -4 10 -9 -3 -4 -2 -8 3 -9 4 0 20 -3 35 -5 22 -4 25 -1 21
16 -3 11 -1 20 4 20 10 0 11 -29 1 -46 -4 -5 2 -10 13 -10 10 0 19 7 20 16 0
11 2 11 6 2 4 -10 9 -10 23 3 14 12 20 13 26 4 4 -8 3 -10 -4 -5 -7 4 -12 2
-12 -4 0 -7 6 -9 13 -6 6 3 20 9 30 12 9 4 17 10 17 15 0 5 5 9 11 9 5 0 8 -4
4 -9 -8 -13 37 -43 48 -32 5 5 24 5 43 1 19 -4 34 -5 34 -1 0 4 9 7 20 7 13 0
20 -7 20 -20 0 -16 3 -17 12 -8 16 16 52 16 42 0 -6 -10 -5 -10 7 -1 12 10 18
10 27 1 9 -9 12 -8 12 7 0 15 3 16 12 7 17 -17 28 -15 29 6 0 13 2 13 9 -4 5
-12 14 -25 21 -30 8 -5 10 -3 4 6 -6 10 -4 12 8 7 10 -4 17 -1 17 6 0 8 3 8 9
-1 11 -17 47 -11 43 8 -3 11 0 11 12 1 10 -8 16 -9 21 -1 3 5 11 10 18 10 6 0
2 -6 -8 -14 -11 -8 -24 -12 -30 -9 -5 4 -7 2 -2 -2 10 -12 50 -17 43 -6 -3 5
1 12 10 15 12 4 15 2 10 -9 -4 -12 -2 -13 14 -3 15 10 17 15 7 28 -11 13 -10
13 6 1 10 -8 16 -20 13 -28 -3 -7 -1 -13 5 -13 6 0 7 -5 3 -12 -4 -7 -3 -8 5
-4 6 4 9 12 6 17 -4 5 3 9 15 9 14 0 19 -4 14 -12 -4 -7 2 -5 13 4 21 20 38
24 28 8 -3 -5 0 -10 7 -11 7 0 27 -2 45 -3 18 -1 34 3 37 10 3 8 14 10 27 7
22 -6 22 -7 3 -14 -13 -5 -15 -8 -4 -9 8 -1 26 -3 38 -4 20 -2 23 1 19 23 -5
24 -4 25 9 6 8 -10 14 -21 14 -25 0 -3 8 -6 19 -6 11 0 17 5 14 13 -7 17 13
17 29 -1 11 -12 18 -11 43 6 l30 20 -24 -21 c-25 -22 -13 -28 21 -10 13 7 18
7 14 1 -3 -6 -2 -13 4 -17 9 -5 14 6 12 26 -1 3 5 6 12 6 7 0 13 -6 13 -13 0
-7 -4 -11 -9 -8 -4 3 -8 0 -8 -5 0 -13 7 -13 35 -2 11 5 25 4 33 -1 8 -7 12
-7 12 1 0 7 5 9 11 6 5 -4 21 -8 34 -10 22 -2 23 0 13 19 -9 18 -9 19 3 10 8
-5 24 -9 37 -8 18 1 20 -1 11 -13 -10 -11 -8 -12 7 -7 10 4 25 11 32 17 8 7
12 4 12 -8 0 -11 5 -15 15 -11 8 3 15 1 15 -4 0 -6 5 -10 11 -10 6 0 8 10 5
23 -3 12 -3 16 0 9 5 -10 9 -10 22 0 13 12 14 10 3 -10 -14 -27 -11 -27 34 -1
31 19 34 19 28 3 -5 -14 -3 -16 11 -11 14 5 17 3 12 -8 -3 -8 -1 -15 4 -15 5
0 10 12 12 27 2 14 9 28 16 29 7 1 8 0 2 -3 -5 -2 -10 -14 -10 -26 0 -18 2
-19 10 -7 6 10 10 11 10 3 0 -8 13 -13 29 -13 16 0 31 -5 33 -12 3 -7 7 -5 11
6 4 10 3 15 -3 11 -6 -3 -10 -1 -10 5 0 6 -5 8 -12 4 -7 -4 -8 -3 -4 4 9 14
53 -2 73 -26 8 -9 11 -11 7 -3 -5 11 -2 13 13 9 12 -3 27 -2 34 3 8 4 19 3 26
-3 10 -8 13 -6 13 6 0 9 3 16 8 16 13 0 34 -17 30 -25 -1 -5 5 -9 15 -11 18
-2 24 12 7 18 -6 2 -2 8 9 15 16 10 18 9 14 -5 -3 -13 2 -17 21 -17 13 0 22 3
19 8 -2 4 7 7 21 7 14 0 26 -4 26 -10 0 -5 5 -10 11 -10 5 0 7 5 3 12 -5 8 -1
9 12 5 18 -7 18 -7 0 8 -11 8 -16 15 -11 15 5 0 16 -7 26 -16 19 -17 139 -29
139 -14 0 5 -8 7 -17 4 -15 -5 -16 -4 -3 5 11 8 18 7 28 -6 11 -16 16 -11 13
12 -1 6 5 2 12 -7 16 -21 34 -23 39 -6 3 8 8 7 18 -4 8 -8 24 -13 38 -10 19 4
23 2 17 -9 -8 -12 -6 -12 8 -1 9 8 21 11 27 7 5 -3 10 -1 10 4 0 6 5 10 11 9
6 -2 14 3 16 10 3 6 -3 12 -14 13 -11 0 -13 3 -5 6 7 3 21 -2 31 -11 10 -9 21
-13 24 -9 4 3 7 1 7 -5 0 -6 7 -9 17 -5 12 5 14 3 8 -7 -6 -9 -4 -11 4 -6 7 5
10 14 7 22 -3 7 0 16 6 20 7 4 8 3 4 -4 -7 -12 27 -35 38 -25 3 3 6 1 6 -5 0
-8 7 -9 26 -2 18 7 31 7 39 0 9 -8 15 -7 18 2 4 10 6 10 6 1 1 -7 8 -13 17
-13 9 0 12 5 8 12 -5 8 -2 9 9 5 10 -4 17 -2 17 5 0 7 4 7 13 0 11 -9 45 -17
57 -12 21 8 39 6 37 -3 -2 -14 36 -10 41 4 2 5 11 2 19 -7 19 -18 31 -10 14
10 -10 12 -9 14 8 9 12 -3 21 -10 21 -17 0 -6 4 -4 10 4 5 9 5 19 -1 26 -8 9
-5 11 10 7 11 -3 18 -10 15 -16 -3 -9 20 -12 78 -11 48 0 93 -5 107 -12 31
-16 44 -8 38 22 -2 13 -2 24 0 24 8 0 34 -29 33 -37 -1 -4 3 -8 9 -10 7 -1 8
0 1 4 -5 2 -8 9 -4 14 3 5 14 4 26 -2 18 -10 20 -9 15 5 -4 9 -2 16 4 16 6 0
8 4 4 9 -3 5 -1 12 4 16 6 3 8 -5 6 -17 -4 -21 -1 -23 33 -22 74 2 83 4 76 16
-4 7 -3 8 5 4 9 -6 9 -11 1 -21 -10 -11 -8 -13 10 -10 11 2 32 0 44 -5 16 -6
30 -4 43 5 10 7 35 12 56 11 22 -1 39 4 42 11 2 7 9 13 15 13 7 0 7 -7 -1 -23
l-12 -22 23 20 c13 11 20 15 17 9 -4 -7 2 -14 12 -17 11 -3 22 1 25 9 3 8 0
11 -8 8 -7 -3 -13 2 -13 11 0 8 9 15 19 15 10 0 18 -4 18 -9 0 -14 31 -22 45
-11 8 6 15 6 24 -3 9 -9 14 -9 21 3 5 8 10 10 10 4 0 -23 30 -23 51 -1 15 16
19 18 14 5 -4 -11 -2 -18 4 -18 6 0 11 5 11 11 0 8 5 7 15 -1 9 -7 18 -10 21
-7 3 3 17 2 30 -3 28 -11 31 -4 6 18 -9 10 -13 14 -8 10 13 -10 37 2 29 16 -4
6 1 5 10 -3 14 -11 15 -16 5 -29 -11 -12 -7 -12 20 2 28 14 32 15 32 1 0 -8 5
-15 11 -15 5 0 7 6 3 13 -5 8 -2 7 10 -2 14 -12 19 -12 29 -1 10 10 9 11 -2 5
-9 -5 -12 -4 -8 3 8 12 32 10 44 -3 4 -4 2 -5 -4 -1 -7 4 -13 2 -13 -4 0 -7 7
-9 15 -6 8 3 22 9 30 12 8 3 15 1 15 -5 0 -6 7 -8 15 -5 8 4 15 12 15 19 0 10
12 12 41 10 38 -4 40 -3 28 13 -13 15 -12 16 3 4 9 -8 14 -21 12 -30 -5 -14
-2 -13 10 2 9 11 16 14 16 8 0 -7 5 -12 11 -12 5 0 8 4 4 9 -3 5 -1 12 5 16 5
3 10 0 10 -7 0 -18 37 -16 77 4 26 13 34 13 42 4 6 -7 7 -17 3 -21 -4 -5 1 -5
11 -2 10 4 21 7 24 7 3 0 -1 8 -8 17 -11 15 -11 16 1 6 8 -7 20 -13 28 -13 8
0 10 5 6 13 -6 9 -4 9 7 -1 16 -14 33 -16 24 -2 -4 6 1 7 10 3 10 -3 21 0 27
8 7 10 8 9 4 -7 -7 -22 7 -25 52 -10 20 7 21 10 10 24 -10 12 -7 12 14 -2 15
-10 25 -23 22 -28 -4 -6 3 -5 16 2 12 6 28 9 35 6 8 -3 17 -1 20 4 4 6 1 10
-6 10 -7 0 -10 2 -7 5 8 9 38 -6 32 -16 -10 -17 9 -9 22 8 11 16 13 17 19 2 6
-15 9 -15 36 -2 17 9 26 19 22 26 -3 7 2 4 13 -5 16 -14 23 -15 33 -5 10 9 12
9 9 -2 -2 -7 3 -16 11 -18 10 -4 11 1 6 18 -4 18 -4 20 4 10 16 -24 90 -24 76
0 -4 5 -1 9 4 9 6 0 11 -7 11 -16 0 -8 4 -13 10 -9 5 3 8 11 6 18 -1 7 -1 8 2
4 2 -4 11 -2 20 5 10 8 13 9 9 1 -10 -15 12 -22 45 -12 15 4 41 5 57 3 26 -4
29 -2 24 16 -3 11 -1 20 4 20 11 0 11 -29 0 -47 -5 -7 0 -9 14 -6 12 3 18 11
15 20 -4 11 -1 11 14 3 11 -6 20 -9 20 -8 0 2 -4 18 -9 36 -6 20 -6 30 0 27 5
-4 9 -15 9 -26 0 -10 3 -20 8 -20 43 -7 62 -6 62 2 0 5 5 9 11 9 5 0 8 -4 5
-9 -4 -5 3 -7 15 -4 16 4 17 8 7 14 -10 7 -9 9 5 9 9 0 17 -7 17 -17 0 -15 1
-15 13 1 9 12 22 16 42 13 20 -3 40 3 59 16 16 12 27 16 23 10 -8 -13 1 -43
14 -43 5 0 9 8 10 18 0 14 2 14 9 -3 5 -11 9 -14 9 -7 1 6 10 12 22 12 15 0
19 4 15 16 -5 14 -4 15 8 5 8 -7 24 -10 35 -6 10 3 22 2 25 -3 7 -12 56 -3 56
10 0 6 -7 7 -16 4 -14 -5 -15 -4 -5 8 10 12 16 13 26 3 7 -7 11 -14 10 -17 -2
-3 5 -6 15 -7 10 -1 21 5 24 14 5 12 9 13 21 3 10 -8 19 -9 32 -2 12 7 26 6
45 -4 24 -13 27 -12 22 1 -4 8 -1 15 6 15 6 0 8 5 4 12 -4 7 -3 8 4 4 6 -4 9
-14 6 -24 -4 -11 2 -8 16 8 12 14 19 19 15 13 -3 -7 -2 -13 4 -13 5 0 18 -3
28 -6 13 -4 15 -3 4 4 -9 7 -10 11 -2 17 7 4 18 2 24 -4 7 -5 23 -8 35 -4 12
3 28 0 36 -6 11 -10 16 -8 24 5 11 20 53 27 64 10 5 -7 8 -6 8 4 0 11 12 15
45 16 24 1 43 -1 41 -5 -2 -3 9 -7 26 -8 27 -2 28 -1 16 14 -11 15 -11 16 5
10 10 -4 17 -2 17 6 0 8 3 8 8 2 4 -6 21 -11 37 -11 17 0 39 -4 50 -9 18 -8
19 -7 5 10 -11 14 -12 19 -2 22 6 3 10 9 7 14 -7 11 24 0 44 -15 11 -8 15 -8
18 2 3 6 9 10 14 7 5 -3 18 -1 29 5 16 8 19 15 11 24 -8 9 -7 13 4 13 8 0 12
-4 9 -8 -2 -4 1 -11 7 -15 8 -5 7 -9 -2 -15 -8 -5 -2 -7 16 -5 17 1 36 5 43 9
8 6 12 2 13 -10 0 -14 2 -15 6 -3 4 8 12 21 20 28 11 11 13 11 13 0 0 -7 9 -2
19 11 12 16 21 20 25 12 4 -6 3 -11 -2 -11 -5 0 -9 -7 -9 -16 0 -12 5 -10 18
7 14 18 19 20 19 8 0 -9 7 -22 15 -29 13 -10 15 -9 15 8 0 15 5 20 15 16 8 -4
15 -1 15 4 0 6 12 10 28 8 15 -1 35 4 45 12 14 12 20 13 30 3 9 -10 8 -11 -8
-6 -18 6 -19 6 -2 -5 20 -13 47 2 47 25 0 9 8 11 23 7 19 -5 20 -3 10 10 -10
12 -10 15 2 15 7 0 13 -5 12 -11 -1 -6 4 -10 11 -8 7 1 15 -5 18 -13 8 -20 32
-19 30 1 0 9 5 19 12 21 6 3 12 0 12 -7 0 -6 -6 -8 -12 -4 -7 4 -9 3 -5 -1 14
-16 37 -14 37 3 1 16 2 16 13 1 10 -13 15 -14 24 -4 7 7 10 15 7 18 -3 3 18 4
45 3 28 0 51 -5 51 -9 0 -9 70 -6 76 4 2 4 -7 6 -21 3 -15 -3 -25 0 -25 7 0 7
3 10 6 6 3 -3 17 -2 30 3 15 6 24 6 24 0 0 -6 5 -10 11 -10 6 0 8 7 5 16 -3 8
-2 12 4 9 6 -3 10 2 10 11 0 17 14 11 16 -7 1 -5 2 -13 3 -19 0 -5 13 2 28 16
18 17 30 21 37 14 16 -16 46 -12 40 5 -4 8 -2 15 4 15 6 0 12 -6 15 -12 3 -10
8 -9 22 2 17 14 18 13 12 -2 -8 -22 -3 -23 18 -1 14 14 18 14 26 2 7 -12 9
-12 10 1 1 8 1 19 -1 25 -1 5 8 1 19 -9 12 -11 24 -16 28 -12 4 4 1 11 -7 16
-8 6 -10 10 -5 10 6 0 16 -5 23 -12 16 -16 16 4 0 22 -11 12 -10 12 3 2 9 -6
19 -9 23 -5 4 4 11 1 16 -7 8 -13 11 -13 22 -1 11 11 11 13 -1 6 -9 -5 -12 -4
-7 3 4 7 15 8 30 2 35 -13 65 -2 61 21 -3 16 -1 17 16 9 13 -7 19 -7 19 0 0 5
5 10 10 10 6 0 10 -10 10 -22 0 -21 0 -21 14 -2 13 16 18 17 35 7 12 -7 23
-13 26 -13 8 0 1 24 -10 32 -5 4 9 6 33 4 38 -4 46 0 44 24 0 3 8 6 19 6 19 0
19 -1 3 -13 -20 -15 -7 -18 15 -4 10 7 20 4 32 -10 16 -19 17 -19 17 6 0 15
-5 22 -12 18 -6 -3 -8 -2 -3 2 12 13 47 16 47 4 0 -5 -4 -8 -8 -5 -5 3 -9 -1
-9 -8 0 -22 22 -8 34 22 11 27 11 27 18 5 9 -27 15 -28 41 -7 19 15 19 15 -3
11 -20 -4 -21 -3 -10 20 7 16 13 20 16 12 2 -8 10 -19 17 -26 10 -10 13 -9 18
3 4 10 12 14 22 10 10 -4 24 2 35 15 11 12 19 18 19 14 0 -5 -7 -17 -17 -27
-9 -10 -13 -21 -9 -26 4 -4 14 2 22 13 15 20 70 30 80 14 2 -4 11 -6 19 -3 8
4 12 11 8 17 -4 6 0 8 10 4 9 -3 19 -2 23 4 3 5 14 7 24 4 13 -4 20 0 25 15 7
21 26 29 21 8 -1 -7 -1 -10 1 -5 3 4 11 7 19 7 9 0 13 4 10 9 -4 5 3 7 15 4
16 -4 17 -8 7 -14 -7 -5 -8 -9 -3 -9 15 1 45 26 45 38 0 6 5 14 12 18 7 5 8 3
3 -6 -6 -10 -3 -12 13 -8 17 5 22 2 22 -14 0 -10 4 -17 10 -13 5 3 7 13 4 23
-4 12 -3 14 3 4 8 -11 15 -11 39 0 16 7 34 20 41 28 7 8 13 11 13 6 0 -5 8 -2
17 5 10 8 14 9 10 2 -4 -6 -2 -15 4 -19 8 -4 9 -3 5 4 -5 8 0 12 13 12 26 0
27 -15 4 -29 -10 -6 -13 -11 -6 -11 6 0 19 10 28 23 13 19 17 20 25 7 5 -8 10
-10 10 -5 0 6 10 15 23 20 12 6 23 16 23 23 4 35 5 36 15 20 5 -9 16 -15 23
-12 7 3 22 -3 32 -13 17 -17 17 -17 11 0 -3 9 -2 17 3 17 6 0 10 -5 10 -11 0
-5 5 -7 10 -4 17 11 -1 27 -24 23 -17 -3 -22 1 -24 16 -1 17 1 18 8 6 5 -8 10
-12 10 -7 0 4 12 1 28 -7 23 -12 29 -12 40 0 15 16 42 19 42 4 0 -5 5 -10 11
-10 8 0 8 4 0 14 -9 11 -9 16 0 22 8 4 9 3 5 -4 -4 -7 -2 -12 3 -12 19 0 12
30 -6 31 -15 0 -15 2 2 8 27 11 34 6 31 -24 -2 -13 1 -22 5 -19 5 3 9 14 9 25
0 10 5 19 10 19 6 0 10 -5 10 -11 0 -5 5 -7 10 -4 6 4 7 12 3 18 -5 9 -3 9 8
0 9 -7 20 -8 29 -3 8 5 18 6 22 4 4 -3 8 0 8 7 0 7 7 4 15 -7 13 -17 14 -17 9
-1 -4 11 2 27 16 42 24 25 40 25 40 -2 0 -11 -6 -14 -22 -10 -22 6 -22 5 -5
-8 22 -16 48 -9 40 11 -5 13 5 17 50 17 9 0 17 4 17 9 0 5 4 7 9 3 5 -3 12 -1
16 5 3 5 1 10 -6 10 -7 0 -9 3 -6 6 4 4 13 2 20 -4 10 -9 17 -7 30 8 19 22 33
25 42 10 5 -8 11 -7 21 1 19 16 45 4 39 -18 -3 -10 0 -8 6 5 7 12 16 22 21 22
5 0 6 -6 2 -12 -4 -8 -3 -10 2 -5 5 5 9 12 9 15 1 21 27 51 40 46 9 -4 15 0
15 10 0 12 5 14 24 6 13 -5 27 -6 32 -2 4 4 4 1 0 -5 -4 -8 -1 -13 8 -13 9 0
16 8 16 19 0 11 4 22 9 25 5 4 7 -2 4 -13 -5 -21 32 -37 44 -19 3 6 2 8 -3 5
-6 -3 -16 -2 -24 4 -11 6 -5 9 20 9 25 0 31 3 20 9 -8 6 -18 7 -22 5 -4 -3 -8
3 -8 12 0 14 3 15 12 6 15 -15 31 -16 22 0 -4 7 -3 8 4 4 7 -4 12 -1 12 9 0
12 4 13 18 7 20 -10 62 -9 80 2 7 4 17 4 22 1 6 -3 10 -2 10 4 0 5 -8 15 -17
21 -16 10 -16 10 2 8 12 -2 19 2 17 10 -1 8 2 11 7 8 5 -4 8 -19 5 -34 -3 -19
-2 -23 5 -13 8 12 12 13 26 1 12 -10 18 -11 28 -1 9 10 8 11 -5 6 -11 -4 -20
0 -27 14 -14 25 4 39 18 14 5 -10 13 -15 17 -11 4 5 14 2 23 -5 14 -11 14 -10
2 6 -7 9 -10 17 -5 17 5 0 2 5 -6 11 -13 9 -12 10 3 5 11 -4 20 0 24 11 6 15
7 15 13 -1 5 -16 8 -15 25 5 11 12 14 19 8 15 -8 -4 -13 -2 -13 4 0 7 7 9 16
6 9 -3 18 -6 20 -6 2 0 4 -9 4 -21 0 -11 4 -18 9 -14 5 3 8 17 5 30 -2 14 0
25 6 25 6 0 8 -5 5 -10 -9 -15 0 -12 39 9 19 11 38 17 42 13 5 -4 0 3 -10 16
-11 12 -14 22 -8 22 7 0 12 -4 12 -9 0 -4 11 -6 25 -3 13 2 32 1 41 -2 14 -5
14 -9 3 -23 -13 -15 -12 -15 8 -4 23 12 26 29 8 44 -5 5 1 5 14 2 19 -6 23 -4
18 8 -4 11 0 13 14 10 10 -3 17 -9 14 -13 -3 -5 5 -5 17 -2 19 5 20 7 6 10
-27 5 -22 23 16 52 12 9 17 10 12 3 -5 -9 0 -13 18 -13 13 0 27 -6 29 -12 4
-10 6 -10 6 0 1 6 6 12 12 12 6 0 17 7 25 15 10 10 11 15 3 15 -9 0 -9 3 0 14
12 14 35 16 47 3 4 -4 12 -7 18 -7 6 0 4 5 -4 10 -13 8 -13 11 -1 22 8 7 11 9
8 3 -3 -6 10 -10 31 -11 21 0 31 1 24 4 -10 3 -10 7 0 20 12 14 10 14 -10 3
-13 -7 -26 -10 -30 -7 -3 3 0 6 7 6 7 0 9 4 6 10 -3 5 0 7 8 5 7 -3 21 3 31
14 18 20 36 20 36 1 0 -5 -8 -7 -17 -4 -15 5 -15 4 -3 -4 8 -6 18 -8 24 -5 5
3 6 1 2 -6 -4 -6 -11 -9 -16 -6 -5 3 -11 1 -15 -5 -4 -6 4 -9 20 -8 23 2 25 6
20 30 -4 18 -2 28 5 28 6 0 9 -4 6 -8 -3 -5 4 -8 16 -7 12 1 22 9 24 18 3 20
-12 32 -21 17 -3 -5 -14 -10 -23 -9 -12 0 -10 3 7 10 20 8 22 11 10 27 -12 15
-11 14 8 -1 13 -12 29 -16 41 -12 22 6 24 -7 7 -35 -8 -13 -7 -13 8 -1 9 7 17
19 17 26 0 7 7 19 17 26 15 13 15 12 4 -9 -11 -21 -11 -22 8 -10 15 9 17 16 9
25 -5 7 -14 10 -19 7 -5 -3 -12 1 -15 10 -8 20 -230 168 -394 262 -183 104
-526 273 -746 367 -660 281 -1495 542 -2364 739 l-105 24 -7 194 c-25 692 -69
1000 -199 1400 -80 245 -193 434 -357 600 l-95 95 -38 255 c-21 140 -38 258
-39 263 0 4 -16 7 -36 7 l-36 0 3 193 c5 246 1 287 -22 287 -16 0 -18 10 -17
88 0 66 -13 162 -56 396 -71 386 -203 1047 -216 1081 -19 49 -99 382 -119 495
-48 270 -53 542 -12 705 26 104 191 600 274 825 97 261 199 520 206 520 3 0
158 -303 343 -673 l336 -674 -14 -64 c-34 -160 -48 -359 -47 -709 0 -310 14
-729 29 -851 l5 -46 126 -27 c69 -14 127 -25 128 -24 4 5 74 478 95 643 59
473 80 851 62 1138 -6 106 -18 231 -26 277 -15 81 -166 692 -221 890 -121 439
-255 785 -363 942 -29 41 -52 79 -52 84 0 5 -28 24 -63 43 -34 18 -154 85
-267 148 -434 243 -485 271 -490 266 -3 -3 1 -8 8 -10 6 -3 12 -8 12 -13 0 -5
-32 -62 -72 -127 -147 -242 -321 -630 -448 -998 -122 -355 -192 -616 -350
-1305 -45 -195 -83 -356 -85 -358 -6 -6 -15 70 -30 248 -29 354 -38 612 -32
1010 5 353 8 413 30 560 40 265 117 562 209 803 l30 79 -33 34 -33 34 30 42
c16 24 49 55 72 71 85 57 87 57 -407 57 -247 0 -451 -4 -453 -9z m1684 -204
c15 -12 12 -35 -32 -292 -27 -154 -79 -455 -115 -670 -37 -214 -68 -391 -69
-392 -3 -3 -189 58 -195 63 -6 6 82 309 91 312 4 2 6 7 3 12 -4 6 228 827 256
905 17 45 32 75 38 75 3 0 13 -6 23 -13z m-1206 -344 c-3 -10 -7 -81 -11 -158
-3 -77 -10 -178 -15 -225 -9 -88 -15 -154 -25 -275 -13 -166 -10 -160 -69
-178 -29 -10 -55 -17 -57 -17 -6 0 8 189 21 285 22 155 73 360 135 538 16 44
32 68 21 30z m-1875 -223 c200 -16 382 -31 404 -33 22 -2 -129 -4 -336 -5
-341 -2 -377 0 -383 14 -4 9 -9 14 -13 10 -7 -7 -53 33 -53 46 0 5 4 7 9 4 4
-3 172 -19 372 -36z m1792 -897 c-7 -92 -14 -185 -16 -205 -1 -21 -5 -38 -8
-38 -7 0 -69 229 -69 255 0 21 89 167 99 161 4 -3 1 -80 -6 -173z m881 15 l16
-66 -68 -119 c-100 -172 -94 -164 -86 -123 13 76 108 390 114 383 4 -4 15 -38
24 -75z m-428 -3028 c69 -179 126 -334 126 -345 1 -58 -135 -539 -225 -800
-85 -246 -206 -547 -229 -570 -6 -7 -7 34 -3 115 3 69 15 407 26 752 l20 628
63 247 c35 137 67 263 71 281 4 19 11 30 16 25 4 -4 65 -154 135 -333z m661
-1728 c166 -427 367 -946 447 -1152 79 -206 221 -572 316 -814 94 -241 169
-440 167 -442 -1 -2 -95 15 -208 36 -423 83 -912 164 -1366 226 -103 14 -189
26 -190 27 0 1 3 45 9 97 5 53 8 241 5 425 -5 380 -22 524 -98 856 l-20 86 51
89 c80 138 205 391 295 599 8 17 24 53 36 80 42 95 138 351 191 508 29 86 55
157 58 157 3 0 141 -350 307 -778z m-1327 -1699 c33 -199 60 -364 60 -367 0
-3 -6 -3 -12 -1 -7 2 -172 20 -367 40 -195 19 -356 37 -358 38 -1 2 45 47 104
102 121 113 309 315 426 458 44 53 81 96 83 94 2 -1 30 -166 64 -364z"/>
<path d="M8422 7029 c-48 -14 -118 -88 -132 -140 -13 -47 -7 -107 14 -148 23
-43 92 -105 101 -90 6 8 4 10 -6 5 -8 -4 -6 -1 4 7 20 16 23 32 5 21 -7 -4 -2
6 12 22 14 15 18 23 8 16 -10 -8 -18 -9 -22 -3 -4 5 1 14 10 19 11 6 16 22 16
51 -1 24 3 39 9 36 5 -4 6 -11 3 -17 -4 -6 -2 -8 4 -4 6 3 15 -2 21 -11 9 -16
10 -16 11 -1 0 9 -5 18 -11 20 -6 2 -8 14 -4 31 4 15 11 24 16 21 5 -3 10 4
10 15 2 36 4 39 28 67 18 20 19 25 6 21 -9 -4 -19 -7 -21 -7 -3 0 -3 -4 1 -9
3 -5 1 -12 -5 -16 -6 -4 -9 4 -8 19 1 13 5 23 9 20 4 -2 18 0 31 5 12 6 18 10
11 10 -7 1 -10 8 -6 17 12 32 -45 43 -115 23z"/>
<path d="M15203 6635 c3 -6 -23 -112 -57 -235 l-64 -225 -257 -7 c-141 -3
-259 -9 -262 -11 -2 -3 11 -64 31 -136 20 -72 38 -145 41 -163 3 -18 11 -51
17 -73 6 -22 11 -45 11 -51 0 -9 82 -11 306 -8 168 2 322 7 341 10 55 8 120
46 120 69 0 11 -18 83 -39 160 -21 77 -49 181 -61 230 -50 206 -113 431 -122
440 -7 7 -9 7 -5 0z"/>
</g>
</svg>
