<?xml version="1.0" encoding="UTF-8" standalone="no"?>
<svg
   xmlns:dc="http://purl.org/dc/elements/1.1/"
   xmlns:cc="http://creativecommons.org/ns#"
   xmlns:rdf="http://www.w3.org/1999/02/22-rdf-syntax-ns#"
   xmlns:svg="http://www.w3.org/2000/svg"
   xmlns="http://www.w3.org/2000/svg"
   style="fill:none"
   id="svg17"
   version="1.1"
   viewBox="0 0 67.04052 67.040558"
   height="67.040558"
   width="67.04052">
  <metadata
     id="metadata21">
    <rdf:RDF>
      <cc:Work
         rdf:about="">
        <dc:format>image/svg+xml</dc:format>
        <dc:type
           rdf:resource="http://purl.org/dc/dcmitype/StillImage" />
      </cc:Work>
    </rdf:RDF>
  </metadata>
  <g
     transform="translate(-13.107314,-13.101884)"
     id="g10"
     clip-path="url(#clip0)">
    <path
       style="fill:#946eff"
       id="path2"
       d="M 28.9463,75.0945 C 44.6711,84.8596 65.3348,80.0283 75.0999,64.3035 84.865,48.5786 80.0337,27.9149 64.3088,18.1498 48.584,8.38469 27.9204,13.2161 18.1553,28.9409 8.39015,44.6658 13.2214,65.3294 28.9463,75.0945 Z" />
    <path
       style="fill:#ffffff"
       id="path4"
       d="M 46.5594,67.3193 27.457,55.4736 c -1.6815,-1.0496 -2.8779,-2.7235 -3.3265,-4.6542 -0.4487,-1.9307 -0.113,-3.9606 0.9335,-5.644 L 36.9097,26.073 c 1.0496,-1.6815 2.7234,-2.8778 4.6541,-3.3264 1.9307,-0.4487 3.9605,-0.113 5.644,0.9334 l 19.1024,11.8457 c 1.6815,1.0496 2.8778,2.7234 3.3265,4.6541 0.4486,1.9307 0.1129,3.9606 -0.9335,5.644 L 56.8575,64.9262 c -1.0495,1.6815 -2.7234,2.8779 -4.6541,3.3266 -1.9307,0.4486 -3.9606,0.1129 -5.644,-0.9335 z M 45.4125,26.6052 c -0.4417,-0.2763 -0.9336,-0.4628 -1.4474,-0.5487 -0.5139,-0.086 -1.0396,-0.0697 -1.5472,0.0478 -0.5076,0.1175 -0.9869,0.334 -1.4107,0.6371 -0.4238,0.303 -0.7837,0.6867 -1.059,1.129 L 28.1025,46.9727 c -0.2763,0.4417 -0.4628,0.9335 -0.5487,1.4474 -0.086,0.5138 -0.0697,1.0396 0.0478,1.5472 0.1175,0.5075 0.334,0.987 0.6371,1.4108 0.303,0.4238 0.6866,0.7836 1.1289,1.0589 l 19.1025,11.8457 c 0.4416,0.2763 0.9335,0.4628 1.4473,0.5487 0.5139,0.086 1.0396,0.0697 1.5472,-0.0478 0.5075,-0.1175 0.987,-0.334 1.4108,-0.637 0.4237,-0.3031 0.7836,-0.6868 1.0589,-1.1291 L 65.78,43.9152 c 0.2763,-0.4417 0.4628,-0.9335 0.5487,-1.4474 0.086,-0.5138 0.0697,-1.0396 -0.0478,-1.5472 -0.1175,-0.5075 -0.334,-0.987 -0.6371,-1.4108 -0.303,-0.4237 -0.6866,-0.7836 -1.129,-1.0589 z" />
    <path
       style="fill:#ffffff"
       id="path6"
       d="m 42.249,52.9409 c -1.4723,-0.916 -2.64,-2.2478 -3.3557,-3.8272 -0.7157,-1.5794 -0.9473,-3.3355 -0.6655,-5.0464 0.2819,-1.7109 1.0645,-3.2999 2.2489,-4.5663 1.1845,-1.2664 2.7176,-2.1534 4.4059,-2.5488 1.6883,-0.3955 3.456,-0.2816 5.0797,0.327 1.6236,0.6087 3.0304,1.6849 4.0427,3.0927 1.0123,1.4078 1.5847,3.0841 1.6448,4.817 0.0601,1.7329 -0.3947,3.4449 -1.307,4.9194 -0.6071,0.9812 -1.4018,1.833 -2.3386,2.5066 -0.9367,0.6736 -1.9972,1.1558 -3.1206,1.4189 -1.1234,0.2631 -2.2877,0.302 -3.4261,0.1145 -1.1385,-0.1875 -2.2289,-0.5978 -3.2085,-1.2074 z m 7.412,-11.9235 c -0.8813,-0.5483 -1.9054,-0.8229 -2.9428,-0.7894 -1.0374,0.0335 -2.0416,0.3738 -2.8857,0.9778 -0.8441,0.604 -1.4903,1.4447 -1.8569,2.4158 -0.3665,0.971 -0.4371,2.0289 -0.2026,3.0401 0.2344,1.0111 0.7632,1.9301 1.5197,2.6408 0.7564,0.7107 1.7066,1.1813 2.7303,1.3523 1.0238,0.1709 2.0753,0.0346 3.0216,-0.3918 0.9464,-0.4263 1.7451,-1.1236 2.2953,-2.0038 0.3661,-0.5855 0.6131,-1.2374 0.7268,-1.9185 0.1138,-0.6811 0.092,-1.378 -0.0639,-2.0507 -0.156,-0.6727 -0.4431,-1.308 -0.8449,-1.8696 -0.4019,-0.5615 -0.9105,-1.0383 -1.4969,-1.403 z" />
    <path
       style="fill:#ffffff"
       id="path8"
       d="m 62.2482,39.9028 c 0.4221,0.2627 0.7568,0.6446 0.962,1.0975 0.2051,0.4529 0.2715,0.9565 0.1906,1.4471 -0.0809,0.4906 -0.3054,0.9462 -0.6451,1.3092 -0.3397,0.3631 -0.7794,0.6173 -1.2635,0.7306 -0.4841,0.1133 -0.991,0.0807 -1.4565,-0.094 -0.4655,-0.1746 -0.8688,-0.4833 -1.159,-0.887 -0.2902,-0.4037 -0.4543,-0.8844 -0.4714,-1.3813 -0.0172,-0.4969 0.1133,-0.9877 0.375,-1.4105 0.1741,-0.2813 0.4021,-0.5255 0.6707,-0.7186 0.2686,-0.1931 0.5727,-0.3313 0.8948,-0.4067 0.3222,-0.0754 0.656,-0.0865 0.9824,-0.0327 0.3264,0.0539 0.6391,0.1716 0.92,0.3464 z" />
  </g>
  <defs
     id="defs15">
    <clipPath
       id="clip0">
      <rect
         style="fill:#ffffff"
         y="0"
         x="0"
         id="rect12"
         transform="rotate(34.6902,19.06615,61.045077)"
         height="67"
         width="67" />
    </clipPath>
  </defs>
</svg>
