<?xml version="1.0" encoding="UTF-8" standalone="no"?>
<svg
   xmlns:dc="http://purl.org/dc/elements/1.1/"
   xmlns:cc="http://creativecommons.org/ns#"
   xmlns:rdf="http://www.w3.org/1999/02/22-rdf-syntax-ns#"
   xmlns:svg="http://www.w3.org/2000/svg"
   xmlns="http://www.w3.org/2000/svg"
   style="fill:none"
   id="svg14"
   version="1.1"
   viewBox="0 0 69.312553 85"
   height="85"
   width="69.312553">
  <metadata
     id="metadata20">
    <rdf:RDF>
      <cc:Work
         rdf:about="">
        <dc:format>image/svg+xml</dc:format>
        <dc:type
           rdf:resource="http://purl.org/dc/dcmitype/StillImage" />
      </cc:Work>
    </rdf:RDF>
  </metadata>
  <defs
     id="defs18" />
  <path
     style="fill:#f16845"
     id="path2"
     d="m 21.09205,34.6562 c 0,-1.1581 -0.9475,-2.1057 -2.1057,-2.1057 H 2.1057 C 0.94756,32.5505 0,33.4981 0,34.6562 c 0,1.1582 0.94756,2.1057 2.1057,2.1057 h 16.88065 c 1.1582,0 2.1057,-0.9475 2.1057,-2.1057 z" />
  <path
     style="fill:#f16845"
     id="path4"
     d="m 67.20685,32.5505 h -16.8807 c -1.1581,0 -2.1057,0.9476 -2.1057,2.1057 0,1.1582 0.9476,2.1057 2.1057,2.1057 h 16.8807 c 1.1581,0 2.1057,-0.9475 2.1057,-2.1057 0,-1.1581 -0.93,-2.1057 -2.1057,-2.1057 z" />
  <path
     style="fill:#f16845"
     id="path6"
     d="m 34.65625,21.0921 c 1.1581,0 2.1057,-0.9476 2.1057,-2.1057 V 2.1057 C 36.76195,0.947564 35.81435,0 34.65625,0 c -1.1582,0 -2.1057,0.947564 -2.1057,2.1057 v 16.8807 c 0,1.1581 0.9475,2.1057 2.1057,2.1057 z" />
  <path
     style="fill:#f16845"
     id="path8"
     d="m 45.72875,25.6895 c 0.544,0 1.0704,-0.2105 1.4915,-0.6141 l 11.9499,-11.9499 c 0.8247,-0.8247 0.8247,-2.1583 0,-2.983 -0.8248,-0.82476 -2.1584,-0.82476 -2.9831,0 l -11.9498,11.9498 c -0.8248,0.8247 -0.8248,2.1583 0,2.9831 0.4211,0.4036 0.9651,0.6141 1.4915,0.6141 z" />
  <path
     style="fill:#f16845"
     id="path10"
     d="m 22.09235,25.0754 c 0.4036,0.4036 0.9475,0.6141 1.4915,0.6141 0.544,0 1.0704,-0.2105 1.4915,-0.6141 0.8248,-0.8248 0.8248,-2.1584 0,-2.9831 L 13.12555,10.1425 c -0.8247,-0.82476 -2.1583,-0.82476 -2.9831,0 -0.8247,0.8247 -0.8247,2.1583 0,2.983 z" />
  <path
     style="fill:#f16845"
     id="path12"
     d="m 59.95965,47.9397 c -1.5968,-1.3687 -3.6148,-2.1232 -5.6678,-2.1232 h -1.9127 -6.8786 -3.2638 v -8.5106 c 0,-4.071 -1.2108,-7.0365 -3.6148,-8.8088 -3.7903,-2.7725 -8.9317,-1.2108 -9.1598,-1.1406 -0.8774,0.2808 -1.474,1.088 -1.474,2.0004 v 10.2653 c 0,3.1235 -1.4915,5.7731 -4.457,7.8964 -2.2461,1.6143 -4.5448,2.3513 -4.8432,2.4391 l -0.2105,0.0526 c -0.7897,-0.8949 -1.9478,-1.4564 -3.2463,-1.4564 h -8.0017 c -2.3864,0 -4.3342,1.9477 -4.3342,4.3342 v 26.251 c 0,2.3865 1.9478,4.3343 4.3342,4.3343 h 8.0368 c 1.0528,0 2.0355,-0.3861 2.7725,-1.0178 1.6144,1.5793 3.8078,2.5444 6.1767,2.5444 h 7.9841 0.8247 16.3367 c 2.5269,0 4.7554,-0.6142 6.4575,-1.7547 2.1759,-1.474 3.5271,-3.8078 3.9131,-6.7909 l 3.2463,-20.1796 c 0.5089,-3.1235 -0.6493,-6.3171 -3.0182,-8.3351 z m -44.5706,31.1994 c 0,0.0702 -0.0526,0.1229 -0.1228,0.1229 h -8.0368 c -0.0701,0 -0.1228,-0.0527 -0.1228,-0.1229 v -26.251 c 0,-0.0702 0.0527,-0.1228 0.1228,-0.1228 h 8.0368 c 0.0702,0 0.1228,0.0526 0.1228,0.1228 z m 43.43,-23.5136 -3.2463,20.2147 c 0,0.0176 0,0.0527 -0.0175,0.0878 -0.1404,1.2107 -0.5966,4.8782 -6.1943,4.8782 h -16.3367 -0.8247 -7.9841 c -2.2461,0 -4.2114,-1.6846 -4.5623,-3.9131 -0.0176,-0.0878 -0.0351,-0.1755 -0.0527,-0.2457 V 54.0813 l 0.1228,-0.0351 c 0.0351,0 0.0527,-0.0175 0.0878,-0.0175 0.1228,-0.0351 3.1059,-0.8774 6.0714,-3.0006 4.1237,-2.9305 6.3171,-6.8786 6.3171,-11.4059 v -8.5281 c 1.1581,-0.1228 2.755,-0.0702 3.9306,0.7897 1.2635,0.93 1.8952,2.7549 1.8952,5.4046 v 10.6162 c 0,1.1582 0.9475,2.1057 2.1057,2.1057 h 5.3695 6.8786 1.9127 c 1.0528,0 2.0881,0.4036 2.9304,1.1055 1.2634,1.088 1.86,2.8076 1.5968,4.5097 z" />
</svg>
