<?xml version="1.0" encoding="UTF-8" standalone="no"?>
<svg
   xmlns:dc="http://purl.org/dc/elements/1.1/"
   xmlns:cc="http://creativecommons.org/ns#"
   xmlns:rdf="http://www.w3.org/1999/02/22-rdf-syntax-ns#"
   xmlns:svg="http://www.w3.org/2000/svg"
   xmlns="http://www.w3.org/2000/svg"
   style="fill:none"
   id="svg13"
   version="1.1"
   viewBox="0 0 68.28495 62.630753"
   height="62.630753"
   width="68.28495">
  <metadata
     id="metadata17">
    <rdf:RDF>
      <cc:Work
         rdf:about="">
        <dc:format>image/svg+xml</dc:format>
        <dc:type
           rdf:resource="http://purl.org/dc/dcmitype/StillImage" />
      </cc:Work>
    </rdf:RDF>
  </metadata>
  <g
     transform="translate(-2.8653868,-2.8394433)"
     id="g6"
     clip-path="url(#clip0)">
    <path
       style="fill:#ff572f"
       id="path2"
       d="M 46.1188,3.62577 7.8192,21.3856 c -1.02683,0.4761 -1.94805,1.1537 -2.71108,1.994 -0.76302,0.8402 -1.35289,1.8266 -1.73595,2.9031 -0.38305,1.0764 -0.55178,2.2217 -0.49655,3.3704 0.05523,1.1488 0.33331,2.2785 0.81842,3.3246 L 16.3837,60.3434 c 0.4851,1.0462 1.1678,1.9883 2.0089,2.7726 0.8411,0.7843 1.8243,1.3954 2.8934,1.7984 1.0691,0.4031 2.2032,0.5902 3.3375,0.5506 1.1343,-0.0395 2.2466,-0.3049 3.2735,-0.7811 l 13.4301,-6.2276 9.5505,5.609 1.7078,-10.8296 13.6112,-6.3116 c 2.0737,-0.9616 3.6734,-2.7232 4.447,-4.8971 0.7736,-2.174 0.6577,-4.5822 -0.322,-6.695 L 57.6319,7.96632 C 56.6522,5.85352 54.8889,4.2092 52.7297,3.3952 50.5706,2.58121 48.1926,2.66415 46.1188,3.62577 Z" />
    <path
       style="fill:#ffffff"
       id="path4"
       d="m 44.1385,20.3177 c -1.0709,-0.4058 -2.2073,-0.5948 -3.3441,-0.5562 -1.1369,0.0387 -2.2519,0.3043 -3.281,0.7815 -1.0291,0.4772 -1.9521,1.1566 -2.7161,1.9994 -0.764,0.8428 -1.354,1.8324 -1.736,2.9119 l -0.3198,-0.1205 c -1.0708,-0.4059 -2.2072,-0.5949 -3.3441,-0.5563 -1.1369,0.0387 -2.2519,0.3042 -3.281,0.7814 -1.0291,0.4772 -1.9522,1.1568 -2.7162,1.9996 -0.764,0.8428 -1.3538,1.8323 -1.7359,2.9118 -0.3858,1.0781 -0.5563,2.2257 -0.502,3.377 0.0544,1.1513 0.3326,2.2838 0.8188,3.3323 0.4862,1.0484 1.1708,1.9923 2.0145,2.7777 0.8436,0.7853 1.8298,1.3965 2.9019,1.7986 l 16.5769,6.2495 5.844,-16.4222 c 0.7759,-2.1681 0.6662,-4.5714 -0.3048,-6.6831 -0.9709,-2.1117 -2.7241,-3.7596 -4.8751,-4.5824 z" />
  </g>
  <defs
     id="defs11">
    <clipPath
       id="clip0">
      <rect
         style="fill:#ffffff"
         y="0"
         x="0"
         id="rect8"
         transform="rotate(-24.8775,56.696327,12.5057)"
         height="56.792599"
         width="59.4548" />
    </clipPath>
  </defs>
</svg>
