<svg xmlns="http://www.w3.org/2000/svg" xmlns:xlink="http://www.w3.org/1999/xlink" viewBox="0 0 1050.1 420"><defs><linearGradient id="linear-gradient" x1="516.1" y1="-24.13" x2="516.1" y2="382.88" gradientUnits="userSpaceOnUse"><stop offset="0" stop-color="#fe354a"/><stop offset="0.81" stop-color="#e79341"/><stop offset="1" stop-color="#f6c128"/></linearGradient><linearGradient id="linear-gradient-2" x1="521.33" y1="385.5" x2="521.33" y2="399.67" gradientUnits="userSpaceOnUse"><stop offset="0" stop-color="#6424da"/><stop offset="1" stop-color="#9d64e2"/></linearGradient><linearGradient id="linear-gradient-3" x1="521.33" y1="400" x2="521.33" y2="436" xlink:href="#linear-gradient-2"/><linearGradient id="linear-gradient-4" x1="164.33" y1="405" x2="881.71" y2="405" xlink:href="#linear-gradient-2"/><linearGradient id="linear-gradient-5" x1="522.83" y1="416.76" x2="522.83" y2="95.82" xlink:href="#linear-gradient-2"/><clipPath id="clip-path"><rect x="238.28" y="27.21" width="555.64" height="336.06" style="fill:none"/></clipPath></defs><title>macbook</title><g id="Layer_2" data-name="Layer 2"><g id="Layer_8" data-name="Layer 8"><rect x="238.28" y="27.21" width="555.64" height="336.06" style="fill:url(#linear-gradient)"/><path d="M595.33,386v.25A10.54,10.54,0,0,1,584.83,397H458.33a11,11,0,0,1-11-10.75V386Z" style="fill:url(#linear-gradient-2)"/><path d="M878.58,386h-714a5.25,5.25,0,0,0-5.25,5.25V401.5c0,10.4,14,18.5,47.33,18.5H836.5c33.33,0,46.83-8.1,46.83-18.5V391.25C883.33,388.35,881.48,386,878.58,386Z" style="fill:url(#linear-gradient-3)"/><rect x="164.33" y="403.17" width="717.38" height="3.67" style="fill:url(#linear-gradient-4)"/><path d="M805.6,0H239.72a24.39,24.39,0,0,0-24.39,24.39V386h615V24.39A24.68,24.68,0,0,0,805.6,0ZM794.33,363h-556V27h556Z" style="fill:url(#linear-gradient-5)"/><g style="clip-path:url(#clip-path)"><g style="opacity:0.25"><path d="M483.31,331.41a29.94,29.94,0,0,0-5.18.46,50.51,50.51,0,0,0-12-15.63A50.35,50.35,0,0,0,406.55,239a97.31,97.31,0,0,0-123.83-37.79A147.87,147.87,0,1,0,257.48,361,97.22,97.22,0,0,0,384,365.68,50.34,50.34,0,0,0,470.23,388a29.79,29.79,0,1,0,13.08-56.56Z" style="fill:#fff"/></g><g style="opacity:0.25"><circle cx="191.94" cy="243.06" r="51.73" style="fill:#fff"/></g><g style="opacity:0.25"><circle cx="264.14" cy="315.26" r="89.2" style="fill:#fff"/></g><g style="opacity:0.25"><circle cx="311.21" cy="148.48" r="24.99" style="fill:#fff"/></g><g style="opacity:0.25"><circle cx="365.62" cy="164.55" r="13.46" style="fill:#fff"/></g><g style="opacity:0.25"><circle cx="358.56" cy="353.21" r="37.95" style="fill:#fff"/></g><g style="opacity:0.25"><circle cx="380.98" cy="294.79" r="15.36" style="fill:#fff"/></g><g style="opacity:0.25"><path d="M566.79,331.41a29.94,29.94,0,0,1,5.18.46,50.51,50.51,0,0,1,12-15.63A50.35,50.35,0,0,1,643.55,239a97.31,97.31,0,0,1,123.83-37.79A147.87,147.87,0,1,1,792.62,361a97.22,97.22,0,0,1-126.49,4.69A50.34,50.34,0,0,1,579.87,388a29.79,29.79,0,1,1-13.08-56.56Z" style="fill:#fff"/></g><g style="opacity:0.25"><circle cx="858.16" cy="243.06" r="51.73" style="fill:#fff"/></g><g style="opacity:0.25"><circle cx="785.97" cy="315.26" r="89.2" style="fill:#fff"/></g><g style="opacity:0.25"><circle cx="738.89" cy="148.48" r="24.99" style="fill:#fff"/></g><g style="opacity:0.25"><circle cx="684.48" cy="164.55" r="13.46" style="fill:#fff"/></g><g style="opacity:0.25"><circle cx="691.54" cy="353.21" r="37.95" style="fill:#fff"/></g><g style="opacity:0.25"><circle cx="669.12" cy="294.79" r="15.36" style="fill:#fff"/></g></g></g></g></svg>