<?xml version="1.0" encoding="UTF-8" standalone="no"?>
<svg
   xmlns:dc="http://purl.org/dc/elements/1.1/"
   xmlns:cc="http://creativecommons.org/ns#"
   xmlns:rdf="http://www.w3.org/1999/02/22-rdf-syntax-ns#"
   xmlns:svg="http://www.w3.org/2000/svg"
   xmlns="http://www.w3.org/2000/svg"
   style="fill:none"
   id="svg6"
   version="1.1"
   viewBox="0 0 52.737251 62"
   height="62"
   width="52.737251">
  <metadata
     id="metadata12">
    <rdf:RDF>
      <cc:Work
         rdf:about="">
        <dc:format>image/svg+xml</dc:format>
        <dc:type
           rdf:resource="http://purl.org/dc/dcmitype/StillImage" />
      </cc:Work>
    </rdf:RDF>
  </metadata>
  <defs
     id="defs10" />
  <path
     style="fill:#f16845"
     id="path2"
     d="m 26.143934,33.4073 c 0.0642,0 0.1284,0 0.2054,0 0.0257,0 0.0514,0 0.077,0 0.0386,0 0.0899,0 0.1284,0 3.7619,-0.0642 6.8048,-1.3866 9.0516,-3.9159 4.9431,-5.5722 4.1213,-15.1244 4.0315,-16.036 -0.321,-6.84326 -3.5565,-10.11723 -6.227,-11.64509 C 31.420734,0.667633 29.096934,0.0513564 26.503434,0 h -0.0899 c -0.0128,0 -0.0385,0 -0.0514,0 h -0.077 c -1.4251,0 -4.2241,0.231104 -6.9074,1.75896 -2.6962,1.52785 -5.9831,4.80182 -6.304,11.69644 -0.0899,0.9116 -0.9116,10.4638 4.0314,16.036 2.2341,2.5293 5.2769,3.8517 9.0388,3.9159 z m -9.6521,-19.5303 c 0.0061,-0.0688 0.0227,-0.1344 0.0227,-0.2034 0.4237,-9.20559 6.9588,-10.1942 9.7578,-10.1942 h 0.0513 c 0.0257,0 0.0642,0 0.1027,0 3.4666,0.07703 9.3597,1.48933 9.7578,10.1942 0,0.0692 0.0166,0.135 0.0229,0.2038 0.0905,0.9917 0.6637,8.9871 -3.1814,13.3158 -1.6177,1.8232 -3.7747,2.7219 -6.6121,2.7476 -0.0257,0 -0.0385,0 -0.0642,0 -0.0257,0 -0.0385,0 -0.0642,0 -2.8246,-0.0257 -4.9944,-0.9244 -6.5993,-2.7476 -3.8313,-4.3027 -3.2823,-12.3259 -3.194,-13.3162 z" />
  <path
     style="fill:#f16845"
     id="path4"
     d="m 52.733634,49.2508 c 0,-0.0129 0,-0.0257 0,-0.0385 0,-0.1027 -0.0128,-0.2055 -0.0128,-0.321 -0.077,-2.5422 -0.2439,-8.4867 -5.8161,-10.3868 -0.0385,-0.0129 -0.0899,-0.0257 -0.1284,-0.0386 -5.7904,-1.4765 -10.6051,-4.8146 -10.6565,-4.8531 -0.7831,-0.5521 -1.8616,-0.3595 -2.4137,0.4236 -0.5521,0.7832 -0.3595,1.8617 0.4237,2.4138 0.2182,0.1541 5.3282,3.7105 11.7221,5.3539 2.9915,1.0657 3.3253,4.2626 3.4152,7.1899 0,0.1156 0,0.2183 0.0128,0.321 0.0281,2.5287 -1.5191,4.7215 -3.8601,5.6778 -3.9076,1.5963 -10.4576,3.5535 -19.0448,3.5535 -8.5637,0 -15.1338,-1.9689 -19.0554998,-3.5702 -2.34081,-0.9557 -3.91849,-3.1462 -3.86232,-5.674 0,-0.1027 0.01284,-0.2054 0.01284,-0.3209 0.08987,-2.9274 0.42369,-6.1243 3.41518,-7.1899 6.3938998,-1.6434 11.5037998,-5.2127 11.7220998,-5.3539 0.7832,-0.5521 0.9758,-1.6306 0.4237,-2.4138 -0.5521,-0.7832 -1.6306,-0.9758 -2.4137,-0.4237 -0.0514,0.0385 -4.8404,3.3767 -10.6564998,4.8532 -0.0514,0.0128 -0.0899,0.0257 -0.1284,0.0385 -5.57214997,1.913 -5.73905997,7.8575 -5.81609997,10.3869 0,0.1155 0,0.2182 -0.01284,0.3209 0,0.0129 0,0.0257 0,0.0385 -0.01284,0.6677 -0.02567,4.0957 0.6548,5.8162 0.12839,0.3338 0.35948997,0.6162 0.66762997,0.8088 C 1.7110942,56.1197 10.942434,62 26.387834,62 c 15.4454,0 24.6767,-5.8931 25.0619,-6.1371 0.2953,-0.1926 0.5393,-0.475 0.6677,-0.8088 0.6419,-1.7076 0.6291,-5.1357 0.6162,-5.8033 z" />
</svg>
