<svg xmlns="http://www.w3.org/2000/svg" xmlns:xlink="http://www.w3.org/1999/xlink" viewBox="0 0 176.08 791.33"><defs><linearGradient id="linear-gradient" x1="88.85" y1="625.83" x2="88.85" y2="763.36" gradientUnits="userSpaceOnUse"><stop offset="0" stop-color="#e79341"/><stop offset="1" stop-color="#f6c128" stop-opacity="0"/></linearGradient><linearGradient id="linear-gradient-2" x1="21.31" y1="575.75" x2="75.5" y2="575.75" gradientUnits="userSpaceOnUse"><stop offset="0" stop-color="#fe354a"/><stop offset="0.81" stop-color="#e79341"/><stop offset="1" stop-color="#f6c128"/></linearGradient><linearGradient id="linear-gradient-3" x1="82.83" y1="723.78" x2="52.16" y2="618.32" gradientUnits="userSpaceOnUse"><stop offset="0" stop-color="#fe354a"/><stop offset="0" stop-color="#fe354a"/><stop offset="0.15" stop-color="#f45e46"/><stop offset="0.23" stop-color="#f06e45"/><stop offset="0.29" stop-color="#ed7844"/><stop offset="0.42" stop-color="#ea8742"/><stop offset="0.58" stop-color="#e89041"/><stop offset="0.81" stop-color="#e79341"/><stop offset="1" stop-color="#f6c128"/></linearGradient><linearGradient id="linear-gradient-4" x1="171.73" y1="579.62" x2="74.55" y2="571.72" xlink:href="#linear-gradient-2"/><linearGradient id="linear-gradient-5" x1="155.15" y1="567.43" x2="114.79" y2="633.07" xlink:href="#linear-gradient-2"/><radialGradient id="radial-gradient" cx="96.72" cy="447.21" r="170.72" gradientUnits="userSpaceOnUse"><stop offset="0" stop-color="#fff"/><stop offset="1" stop-color="#ccc"/></radialGradient><radialGradient id="radial-gradient-2" cx="10.76" cy="265.15" r="162.02" gradientUnits="userSpaceOnUse"><stop offset="0" stop-color="#1a1a1a"/><stop offset="1" stop-color="#333"/></radialGradient><linearGradient id="linear-gradient-6" x1="176.92" y1="6.78" x2="43.59" y2="306.78" xlink:href="#linear-gradient-2"/><linearGradient id="linear-gradient-7" x1="174.25" y1="105.89" x2="8.56" y2="152.08" gradientUnits="userSpaceOnUse"><stop offset="0" stop-color="#fff"/><stop offset="1" stop-color="#fff" stop-opacity="0"/></linearGradient><linearGradient id="linear-gradient-8" x1="-2527.87" y1="35.76" x2="-2419.91" y2="207.56" gradientTransform="matrix(-1, 0, 0, 1, -2432.13, 0)" xlink:href="#linear-gradient-7"/><linearGradient id="linear-gradient-9" x1="-2550.24" y1="49.21" x2="-2441.8" y2="221.77" gradientTransform="matrix(-1, 0, 0, 1, -2432.13, 0)" xlink:href="#linear-gradient-7"/><linearGradient id="linear-gradient-10" x1="-2532.19" y1="250.3" x2="-2428.89" y2="478.42" gradientTransform="matrix(-1, 0, 0, 1, -2432.13, 0)" xlink:href="#linear-gradient-7"/><radialGradient id="radial-gradient-3" cx="85.34" cy="615.9" r="30.48" xlink:href="#radial-gradient-2"/><linearGradient id="linear-gradient-11" x1="90.39" y1="660.07" x2="88.79" y2="514.65" xlink:href="#linear-gradient-2"/><linearGradient id="linear-gradient-12" x1="81.4" y1="646.42" x2="45.65" y2="588.17" xlink:href="#linear-gradient"/><linearGradient id="linear-gradient-13" x1="114.43" y1="652.83" x2="132.68" y2="596.83" xlink:href="#linear-gradient"/><linearGradient id="linear-gradient-14" x1="89.5" y1="650.58" x2="89.5" y2="590.27" xlink:href="#linear-gradient"/><linearGradient id="linear-gradient-15" x1="323.63" y1="195.92" x2="135.63" y2="292.59" gradientUnits="userSpaceOnUse"><stop offset="1"/><stop offset="1" stop-opacity="0"/></linearGradient><linearGradient id="linear-gradient-16" x1="122.6" y1="302.25" x2="71.67" y2="366.23" gradientUnits="userSpaceOnUse"><stop offset="0" stop-color="#6424da"/><stop offset="1" stop-color="#9d64e2"/></linearGradient></defs><title>rocket_1</title><g style="isolation:isolate"><g id="Layer_2" data-name="Layer 2"><g id="Layer_8" data-name="Layer 8"><path d="M104.24,629.93c-.22.23-15.24.3-15.24.3s-15.17-.13-15.39-.35L40.7,791.33H137Z" style="mix-blend-mode:screen;fill:url(#linear-gradient)"/><path d="M32.82,497.64s-10.4,24.93-11.48,74.43,22.42,81.78,22.42,81.78l16.32-72.09Z" style="fill:url(#linear-gradient-2)"/><polygon points="59.73 580.65 61.7 584.08 45.56 656.54 42.41 651.82 59.73 580.65" style="fill:url(#linear-gradient-3)"/><path d="M142.72,498.72s10.4,24.93,11.48,74.43-22.42,81.78-22.42,81.78l-16.32-72.09Z" style="fill:url(#linear-gradient-4)"/><polygon points="115.82 581.72 113.85 585.16 129.99 657.61 133.14 652.9 115.82 581.72" style="fill:url(#linear-gradient-5)"/><path d="M88.38,270.33H.15c.74,114,25.7,228,68.33,343h39.28c42.63-115,67.59-229,68.33-343Z" style="fill:url(#radial-gradient)"/><rect y="251.33" width="176" height="19" style="fill:url(#radial-gradient-2)"/><path d="M88.38,0C36.73,56.63,3.86,136.33,1.23,252.33H176.08C173.45,136.33,140.6,56.63,88.38,0Z" style="fill:url(#linear-gradient-6)"/><path d="M80,22S23.67,88.33,13.67,242.33H80Z" style="mix-blend-mode:soft-light;fill:url(#linear-gradient-7)"/><path d="M22.54,176.33c9.6-52,23.29-97.13,44.48-133.79,0,0-26.18,63.79-35.15,133.79Z" style="mix-blend-mode:soft-light;fill:url(#linear-gradient-8)"/><polyline points="23.38 216.38 30.07 187.33 21 187.33" style="mix-blend-mode:soft-light;fill:url(#linear-gradient-9)"/><path d="M20.39,279.33H12.86s6.1,159.25,39.45,240C52.31,519.29,21.46,371.33,20.39,279.33Z" style="mix-blend-mode:soft-light;fill:url(#linear-gradient-10)"/><polyline points="107.97 613.22 103.99 630.33 73.86 630.33 68.48 613.33 108 613.33" style="fill:url(#radial-gradient-3)"/><rect x="80" y="500.33" width="19" height="158" style="fill:url(#linear-gradient-11)"/><path d="M45.56,656.54,61.7,584.08l-2-3.44h0l-26.9-83s-10.61,24.93-11.68,74.43c-.92,42.29,15.86,72,20.86,79.75h0l.24.05c.66,1,1.21,1.67,1.36,1.88Z" style="mix-blend-mode:screen;fill:url(#linear-gradient-12)"/><path d="M133,652.9h0c5-7.76,22.05-37.46,21.13-79.75-1.08-49.5-11.44-74.43-11.44-74.43l-26.88,83-2,3.44L130,657.61l1.86-2.78c.15-.21.53-.86,1.19-1.88Z" style="mix-blend-mode:screen;fill:url(#linear-gradient-13)"/><rect x="80" y="500.33" width="19" height="158" style="mix-blend-mode:screen;fill:url(#linear-gradient-14)"/><g style="opacity:0.25"><circle cx="89.5" cy="343.83" r="45.33" style="fill:#fff"/></g><path d="M176,270.33h.08c-.74,114-25.7,228-68.33,343H99c145-457-4.5-606-4.5-606h.41c48.42,56.13,78.65,133.92,81.17,245H176Z" style="mix-blend-mode:soft-light;fill:url(#linear-gradient-15)"/><g style="opacity:0.25"><circle cx="89.5" cy="343.83" r="51.5" style="fill:#fff"/></g><circle cx="89.5" cy="343.83" r="39.37" style="fill:url(#linear-gradient-16)"/></g></g></g></svg>