<?xml version="1.0" encoding="UTF-8" standalone="no"?>
<svg
   xmlns:dc="http://purl.org/dc/elements/1.1/"
   xmlns:cc="http://creativecommons.org/ns#"
   xmlns:rdf="http://www.w3.org/1999/02/22-rdf-syntax-ns#"
   xmlns:svg="http://www.w3.org/2000/svg"
   xmlns="http://www.w3.org/2000/svg"
   id="svg4"
   version="1.1"
   fill="none"
   viewBox="0 0 78 76"
   height="76"
   width="78">
  <metadata
     id="metadata10">
    <rdf:RDF>
      <cc:Work
         rdf:about="">
        <dc:format>image/svg+xml</dc:format>
        <dc:type
           rdf:resource="http://purl.org/dc/dcmitype/StillImage" />
      </cc:Work>
    </rdf:RDF>
  </metadata>
  <defs
     id="defs8" />
  <path
     id="path2"
     fill="#F16845"
     d="M76.3066 34.5029C77.8419 33.0067 78.3839 30.8107 77.7217 28.7693C77.0579 26.7279 75.3289 25.2707 73.2047 24.9614L54.3185 22.2172C53.5142 22.1001 52.8191 21.5956 52.4599 20.8662L44.0164 3.75275C43.0684 1.83009 41.1441 0.635254 38.9997 0.635254C36.8568 0.635254 34.9326 1.83009 33.9845 3.75275L25.5394 20.8662C25.1802 21.5956 24.4836 22.1001 23.6792 22.2172L4.79307 24.963C2.67048 25.2707 0.941486 26.7279 0.277689 28.7693C-0.384545 30.8107 0.157425 33.0067 1.69275 34.5029L15.3576 47.8226C15.9402 48.3911 16.2072 49.2095 16.0698 50.0092L12.8445 68.8189C12.4822 70.9321 13.3334 73.0266 15.0686 74.2886C16.8023 75.5521 19.0592 75.7161 20.96 74.7149L37.8501 65.8341C38.5702 65.4562 39.4292 65.4562 40.1492 65.8341L57.0409 74.7149C57.8656 75.1491 58.7589 75.3631 59.6476 75.3631C60.8019 75.3631 61.9514 75.0023 62.9323 74.2886C64.6675 73.0266 65.5187 70.9321 65.1564 68.8189L61.9295 50.0108C61.7921 49.2095 62.0592 48.3927 62.6418 47.8242L76.3066 34.5029ZM58.8527 50.5387L62.0779 69.3468C62.2404 70.2933 61.8733 71.1976 61.0955 71.763C60.3161 72.3268 59.3462 72.3956 58.495 71.952L41.6033 63.0696C40.7896 62.6432 39.8931 62.4277 38.9997 62.4277C38.1063 62.4277 37.2113 62.6432 36.396 63.0712L19.5075 71.952C18.6531 72.3956 17.6832 72.3268 16.9054 71.763C16.1276 71.1976 15.7621 70.2948 15.923 69.3468L19.1483 50.5387C19.4591 48.7238 18.8577 46.8714 17.5395 45.5876L3.87312 32.2663C3.18434 31.5947 2.95006 30.6482 3.24837 29.7345C3.54513 28.8193 4.29014 28.1914 5.24133 28.0524L24.1259 25.3082C25.9487 25.0442 27.5246 23.9009 28.3383 22.2485L36.7834 5.13501C37.2082 4.27286 38.0376 3.759 38.9981 3.759C39.9602 3.759 40.788 4.27286 41.2144 5.13501L49.6595 22.2485C50.4732 23.9009 52.0476 25.0442 53.8703 25.3082L72.7565 28.0524C73.7076 28.1914 74.4527 28.8193 74.7494 29.7345C75.0462 30.6482 74.8134 31.5947 74.1247 32.2663L60.4598 45.586C59.1416 46.8714 58.5403 48.7222 58.8527 50.5387Z" />
</svg>
