<?xml version="1.0" encoding="UTF-8" standalone="no"?>
<svg
   xmlns:dc="http://purl.org/dc/elements/1.1/"
   xmlns:cc="http://creativecommons.org/ns#"
   xmlns:rdf="http://www.w3.org/1999/02/22-rdf-syntax-ns#"
   xmlns:svg="http://www.w3.org/2000/svg"
   xmlns="http://www.w3.org/2000/svg"
   id="svg6"
   version="1.1"
   fill="none"
   viewBox="0 0 84 84"
   height="84"
   width="84">
  <metadata
     id="metadata12">
    <rdf:RDF>
      <cc:Work
         rdf:about="">
        <dc:format>image/svg+xml</dc:format>
        <dc:type
           rdf:resource="http://purl.org/dc/dcmitype/StillImage" />
      </cc:Work>
    </rdf:RDF>
  </metadata>
  <defs
     id="defs10" />
  <path
     id="path2"
     stroke="black"
     fill="#F16845"
     d="M83.0625 40.6613L83.0626 40.6615C83.6456 41.4584 83.6458 42.5414 83.0626 43.3395C82.6994 43.8359 78.0695 50.0833 70.6957 56.2018C63.3129 62.3278 53.246 68.2693 41.9996 68.2693C30.7532 68.2693 20.6861 62.3278 13.3032 56.2018C5.92918 50.0831 1.2994 43.8355 0.936841 43.339C0.354432 42.5409 0.354387 41.4585 0.936706 40.6603C1.29941 40.1641 5.9292 33.9168 13.3032 27.7983C20.6861 21.6723 30.7532 15.7308 41.9996 15.7308C53.246 15.7308 63.3129 21.6723 70.6957 27.7984C78.0696 33.917 82.6994 40.1646 83.0625 40.6613ZM5.9106 41.6805L5.649 41.9985L5.91094 42.3162C8.08083 44.9482 12.8306 50.2902 19.1599 54.978C25.4823 59.6608 33.4348 63.7309 41.9996 63.7309C50.5823 63.7309 58.5361 59.663 64.855 54.9815C71.1806 50.2951 75.9214 44.9539 78.0886 42.3196L78.3502 42.0016L78.0883 41.6839C75.9174 39.0505 71.1674 33.7086 64.8383 29.0211C58.516 24.3387 50.564 20.2693 41.9996 20.2693C33.4169 20.2693 25.4631 24.3371 19.1442 29.0186C12.8186 33.705 8.07776 39.0461 5.9106 41.6805Z" />
  <path
     id="path4"
     stroke="black"
     fill="#F16845"
     d="M25.8842 42.0001C25.8842 33.1147 33.1142 25.8846 41.9996 25.8846C50.8851 25.8846 58.1151 33.1147 58.1151 42.0001C58.1151 50.8856 50.8851 58.1156 41.9996 58.1156C33.1142 58.1156 25.8842 50.8856 25.8842 42.0001ZM30.4228 42.0001C30.4228 48.3841 35.6154 53.577 41.9996 53.577C48.3838 53.577 53.5765 48.3841 53.5765 42.0001C53.5765 35.6161 48.3837 30.4232 41.9996 30.4232C35.6156 30.4232 30.4228 35.6161 30.4228 42.0001Z" />
</svg>
